<svg xmlns="http://www.w3.org/2000/svg" viewBox="0 0 40 40"><title>Asset 10</title><g id="Layer_2" data-name="Layer 2"><g id="Icons"><path d="M20,29A13,13,0,0,1,7,16C7,8.83,12.83,6,20,6S33,8.83,33,16A13,13,0,0,1,20,29Z" style="fill:none;stroke:#e6e6e6;stroke-linejoin:round;stroke-width:2px"/><path d="M15.92,24A9,9,0,0,1,11,16c0-4,3-6,9-6" style="fill:none;stroke:#e6e6e6;stroke-linejoin:round;stroke-width:2px"/><line x1="2" y1="39" x2="38" y2="39" style="fill:none;stroke:#e6e6e6;stroke-linejoin:round;stroke-width:2px"/><path d="M35,38.5V35.75A2.89,2.89,0,0,0,32,33H8a2.89,2.89,0,0,0-3,2.75V38.5" style="fill:none;stroke:#e6e6e6;stroke-linejoin:round;stroke-width:2px"/><path d="M12,33A17,17,0,0,1,3.75,23h0A2.89,2.89,0,0,1,1,20V16a2.89,2.89,0,0,1,2.75-3h0a17,17,0,0,1,32.5,0h0A2.89,2.89,0,0,1,39,16v4a2.89,2.89,0,0,1-2.75,3h0A17,17,0,0,1,28,33" style="fill:none;stroke:#e6e6e6;stroke-linejoin:round;stroke-width:2px"/></g></g></svg>