<svg id="Layer_1" data-name="Layer 1" xmlns="http://www.w3.org/2000/svg" viewBox="0 0 215.4 98.5"><title>sidemenu-illustration</title><path d="M-10.1,5l62.78-.17,100.68-.27,23-.06a1.5,1.5,0,0,0,0-3l-62.78.17L12.94,1.94-10.1,2a1.5,1.5,0,0,0,0,3Z" transform="translate(37.55 -1.5)" style="fill:#e6e6e6"/><path d="M-36.1,100l128.28-.44,18.22-.06a1.5,1.5,0,0,0,0-3l-128.28.44L-36.1,97a1.5,1.5,0,0,0,0,3Z" transform="translate(37.55 -1.5)" style="fill:#e6e6e6"/><path d="M-10.1,50h94a1.5,1.5,0,0,0,0-3h-94a1.5,1.5,0,0,0,0,3Z" transform="translate(37.55 -1.5)" style="fill:#e6e6e6"/></svg>