<svg xmlns="http://www.w3.org/2000/svg" viewBox="0 0 40 40"><title>Asset 10</title><g fill="none" stroke="#e6e6e6" stroke-linejoin="round" stroke-width="2" data-name="Layer 2"><path d="M20 29A13 13 0 0 1 7 16C7 8.83 12.83 6 20 6s13 2.83 13 10a13 13 0 0 1-13 13z"/><path d="M15.92 24A9 9 0 0 1 11 16c0-4 3-6 9-6M2 39h36M35 38.5v-2.75A2.89 2.89 0 0 0 32 33H8a2.89 2.89 0 0 0-3 2.75v2.75"/><path d="M12 33a17 17 0 0 1-8.25-10A2.89 2.89 0 0 1 1 20v-4a2.89 2.89 0 0 1 2.75-3 17 17 0 0 1 32.5 0A2.89 2.89 0 0 1 39 16v4a2.89 2.89 0 0 1-2.75 3A17 17 0 0 1 28 33"/></g></svg>