<svg data-name="Layer 1" xmlns="http://www.w3.org/2000/svg" viewBox="0 0 283.44 159.44"><title>sidemenu-illustration-2</title><path d="M97.39 90.13c1.36-6.63 2.26-13.47 4-20 1.6-5.74 5.12-9.27 11.42-7.94 3.42.72 4.46 1.54 4.66 5 .29 5.24-.91 10.82-1.52 16s-1.38 10.54-2.3 15.78-1 13.42-6.26 16.47a7.8 7.8 0 0 1-11.51-4.46c-1.92-6.43.29-14.49 1.53-20.84 1.49-7.55-10.08-10.75-11.57-3.2-2.52 12.83-6.45 32.1 8.16 39.38a21.07 21.07 0 0 0 19.45-.52c6.17-3.6 9.18-10 10.51-16.72 2.52-12.82 4.72-26.16 5.43-39.23.3-5.38-.57-11.13-4.67-15-3.62-3.41-9.64-5.06-14.5-5a20.13 20.13 0 0 0-18.27 11.26c-3.68 7.89-4.37 17.37-6.11 25.83-1.54 7.54 10.02 10.77 11.55 3.19z" fill="#f2f2f2"/><path d="M108.82 86.03c4.07 9.3 12.7 8.23 21.3 7.76 4-.22 8.22-.78 11.67-3 2.15-1.38 3.34-3.36 5.14-5.06 5.62-5.32-2.87-13.79-8.49-8.49-2.87 2.71-2.64 3.94-6.94 4.45-3 .36-6.2.3-9.24.42a6.66 6.66 0 0 1-2.33 0c1.3.53-.32-1.19-.74-2.14-3.09-7.06-13.43-1-10.36 6.06z" fill="#f2f2f2"/><path d="M163.21 94.39a42.79 42.79 0 0 1-11 21c-.58.61-1.29 1.16-1.83 1.8a3.6 3.6 0 0 1-.49.44c2.94-2.31 1.21-.39.34-.75-1.95-.81-2.1.38-3.22-2.29-2.71-6.46-1.68-14.88-1-21.63.49-4.71 1.12-9.41 1.85-14.09 2-12.85 4.14-27.13 10.43-38.7a17.74 17.74 0 0 1 3.56-5c.76-.68 1.57-1.38 2.34-.95 4.9 2.78 2.65 11 1.14 15.14-4.7 12.79-14.38 30.19-29.18 32.42-7.61 1.14-4.38 12.71 3.19 11.57 18.65-2.8 30.69-23.26 37-39.24 3-7.73 4.1-16.27-.13-23.91-4.66-8.28-14.59-10.4-21.82-4.31-5.8 4.81-8.82 12.5-11.17 19.37a168 168 0 0 0-6.11 25.37c-1.26 7.24-2.28 14.53-3.06 21.83-1 8.95-1.61 19.3 2.3 27.69s15 12.22 22.48 5.57a53 53 0 0 0 16-28.12c1.57-7.54-10-10.76-11.57-3.19z" fill="#f2f2f2"/><path d="M170 101c-1.52 0-1.4-1.07-.52.47s1.69 2.83 2.41 4.33a91 91 0 0 1 3.92 10.07c1.63 4.76 2.55 9.46 7.4 12 5.48 2.86 10.32-.65 12.63-5.66 4.09-8.88 5.67-19.18 7.95-28.6 1.81-7.5-9.76-10.71-11.57-3.19-2.06 8.54-3.58 17.66-6.83 25.86 0 0-1 1.63-.92 1.88.19.43-.36-.2.87-.73a5.74 5.74 0 0 1 1.94-.48c.28 0 2.29.69 1.51.32s0-.11.19.19c-.65-.81.55 2 .14.39a106 106 0 0 0-6.45-17.19c-2.37-5.14-6.16-11.77-12.67-11.63-7.71.17-7.74 12.17 0 12zM212.39 125.85q1-7.56 2.05-15.11l1-7.56c.19-1.37 0-5.18 1-6.31 2.41-2.91 9.53.18 10.14 3.65 1 5.45-5.38 5.72-9.06 5.92-3.51.2-5.48 3.07-4.89 6.41 1.82 10.25 9.88 16 19.89 16.72 6.5.5 6.47-9.64 0-10.13-5.78-.44-9.11-3.63-10.11-9.28l-4.89 6.41c7.83-.44 15.88-2.34 18.58-10.78 2.56-8-2.52-16.54-10.41-19-6.68-2-15.89-1.33-18.64 6.15-1.66 4.4-1.66 9.59-2.26 14.15q-1.09 8-2.18 16.06c-.86 6.38 8.9 9.14 9.77 2.69z" fill="#f2f2f2"/><circle cx="252.5" cy="122.5" r="6" fill="#fff" stroke="#f2f2f2" stroke-linecap="round" stroke-miterlimit="10" stroke-width="3.378"/><path d="M32.09 86.39c-2.11 12.78-4.55 29.7 8.17 38.09 11.8 7.78 26.09 2.33 33-8.94 5.74-9.34 9.17-22.78 9.43-33.68.14-5.75-1.08-11.93-5.1-16.27-4.76-5.2-11.2-5.6-17.8-5.32-2.45.1-5.53.76-6.63-1.92-1.2-2.91.19-7.14 1.63-9.68 2.68-4.7 10.47-8.62 14.41-2.89 5 7.23 16.88.38 11.85-6.93-7.66-11.13-22.98-12.46-32.96-3.53-9.28 8.28-13.7 27.17-2.11 35.53 5.52 4 11.62 2.79 18 3 5.05.18 5.2 4.28 5 8.61-.22 5.25-1.72 10.44-3.23 15.45-1.42 4.69-2.88 9.71-6.3 13.38s-10.05 4.52-13.36 0c-4.12-5.57-1.75-15.24-.75-21.34 1.4-8.56-11.82-12.31-13.25-3.56zM9 36.5v-32c0-5.79-9-5.8-9 0v32c0 5.79 9 5.8 9 0z" fill="#f2f2f2"/><path d="M42.5 0h-38c-5.79 0-5.8 9 0 9h38c5.79 0 5.8-9 0-9zM274.56 123.5V155c0 5.71 8.87 5.72 8.87 0v-31.5c0-5.71-8.87-5.72-8.87 0z" fill="#f2f2f2"/><path d="M241.5 159.39H279c5.71 0 5.72-8.87 0-8.87h-37.5c-5.71 0-5.72 8.87 0 8.87z" fill="#f2f2f2"/></svg>