<svg xmlns="http://www.w3.org/2000/svg" viewBox="0 0 500.48 414.32"><title>Asset 1</title><g data-name="Layer 2"><circle cx="293.32" cy="207.16" r="207.16" fill="#fc8e76"/><path d="M169.85 254.26c2.73-15.59-6.54-26.18-19.33-33.44-20.9-11.87-30-16.35-50.67-28.63-7.92-4.7-61.78-40-60-68 3-47 12.25 9.86 15.08 9.86a187.41 187.41 0 0 1 37.3 3.84c17.89 3.68 35.42 10.09 50.36 20.6s27.19 25.31 32.84 42.68 4.2 37.32-5.56 52.75" fill="#1c1c1c" stroke="#000" stroke-linecap="round" stroke-linejoin="round" stroke-width="4"/><path d="M122.57 112.42a13.57 13.57 0 0 1 1.62-4.26c7.57-12.76 29.4-15.94 42.73-15.24 14.55.77 28.6 5.81 41.54 12.51 2.74 1.42 5.85 3 8.76 1.95a10.64 10.64 0 0 0 3.29-2.13 133.88 133.88 0 0 0 24.18-27c3.2-4.74 1-27.34-5.83-30.06-45-18-99-2.44-141.06 21.55C84.88 77.1 72.67 86 62.82 97.08s-17.31 24.64-19.92 39.27a184.2 184.2 0 0 0 75.29-29.42M2.86 292.19c-.1 3.61-1.6 9.84-.38 13.16 2 5.56 13.53 11.55 18.39 14.91A227.1 227.1 0 0 0 65.26 344a238.6 238.6 0 0 0 98.94 16.9c27.1-1.19 56.36-8 75.67-28.33 26-27.31 31.51-66 22.86-101.68a154.56 154.56 0 0 0-7.87-23.72c-.86 21.58-15.21 41.82-33.44 53.4s-39.77 16.64-61 20.41a629 629 0 0 1-153 8.14" fill="#1c1c1c" stroke="#000" stroke-linecap="round" stroke-linejoin="round" stroke-width="4"/><path d="M261.43 216a105 105 0 0 1 1 58.59l-1.53-.41-20.53-39.55 20.53-18.45z" fill="#ff4d5f"/><path d="M260.86 274.19l1.53.41c-9.08 34-34.59 62.92-71.92 68.4q-8 1.17-16 1.85l-12.58-39.66 42.28-38 36.18-32.54z" fill="#ffb244"/><path d="M261.43 216l-.57.18-20.53 18.45-36.18 32.54-35.28-22h-.18c.07-.3.13-.59.18-.89 2.27-13-2.37-21.47-10-27.81l3-.26 45.8-30.3 19.2-12.7.23-2.06c9.94 6.56 19 14.56 25.15 24.67a92.33 92.33 0 0 1 9.18 20.18zM229.42 42c8 3.88 17.55 9.9 14.89 20.22-1 4-3.37 7.44-5.82 10.71a130.58 130.58 0 0 1-13.84 15.6l-.79-1.36-4-49 .18-.42q4.74 2.02 9.38 4.25z" fill="#9bffee"/><path d="M227.09 171.13l-.23 2.06-19.2 12.7-32.8-29.57v-.83l24 .7.32-.63c7.07 3.58 14.07 7.29 20.91 11.25 2.37 1.37 4.71 2.81 7 4.32z" fill="#fc9f8b"/><path d="M223.86 87.19l.79 1.36q-3.42 3.28-7.08 6.31a5.11 5.11 0 0 1-1.76 1.08c-3.49 1-13.72-5.58-17.12-6.92a125.93 125.93 0 0 0-22.47-6.79 76.68 76.68 0 0 0-14.35-1.4v-.64l-11.63-55.76z" fill="#2f8cf6"/><path d="M219.86 38.19l4 49-73.62-62.76 1.62-1.24v-.29A186.05 186.05 0 0 1 220 37.77z" fill="#fc9f8b"/><path d="M207.66 185.89l-45.8 30.3-3 .26c-9.18-7.68-22.69-12.23-33.54-17.85-5.23-2.71-10.83-5.43-16.57-8.27l.07-.14 30.31-34 .05-1.73 35.66 1v.83z" fill="#ffb244"/><path d="M199.18 155.56l-.32.63-24-.7-35.66-1-37.12-1.08 25.76-35.18a46.12 46.12 0 0 0 11.37 8c19.65 10.35 40.12 19.3 59.97 29.33z" fill="#ffc0fc"/><path d="M161.86 305.19l12.58 39.66a251.38 251.38 0 0 1-57.87-1.67l32.29-79z" fill="#2f8cf6"/><path d="M161.86 80.19v.64A59 59 0 0 0 131.11 89c-3.08 1.85-6.08 4.07-7.92 7.17-3.24 5.47-2.11 12.75 1.41 18.06a25.86 25.86 0 0 0 3.25 4l-44.08 12.9.09-55.9 66.38-50.76z" fill="#ff4d5f"/><path d="M161.86 305.19l-13-41v-.16a25.7 25.7 0 0 0 9.52-3.29c5.47-3.34 9-9.3 10.33-15.58h.18l35.28 22z" fill="#ffc0fc"/><path d="M93.41 32.14a163.2 163.2 0 0 1 58.46-9.24v.29l-1.62 1.24-66.39 50.76-27.75-14.86c9.66-12.79 22.62-22.97 37.3-28.19z" fill="#ffb244"/><path d="M148.83 264v.16l-32.29 79a227.13 227.13 0 0 1-24.68-5c-1.79-.47-3.56-1-5.33-1.49l-32.65-57.83 29.71-29.38a105.15 105.15 0 0 0 58.8 15.19 55.69 55.69 0 0 0 6.44-.65z" fill="#fc9f8b"/><path d="M139.22 154.46l-.05 1.73-30.31 34-.07.14a325.3 325.3 0 0 1-29.47-15.92c5.83 2.47 7.54-.22 7.54-.22l15.23-20.81z" fill="#2f8cf6"/><path fill="#9bffee" d="M127.86 118.19v.01l-.01-.01h.01zM127.86 118.2l-25.76 35.18-15.24 20.81s-1.71 2.69-7.54.22c-13.66-8.58-25.85-18.84-33.25-32.28l37.7-11 44.08-12.9zM53.88 278.84l32.68 57.83c-30.44-9-58.12-25.79-83.12-45.09l-.11-.09q10.74-16.64 22.17-32.81c2.6-3.68 5.67-8.78 9.28-13.55l.08.06 15.77 27.9z"/><path d="M83.86 75.19l-.09 55.9-37.7 11a57.26 57.26 0 0 1-2.74-5.62c-10.56-25.08-3.69-54.4 12.78-76.18z" fill="#fc9f8b"/><path d="M83.59 249.46l-29.71 29.38-3.25-5.75-15.77-27.9-.08-.06c6.4-8.48 14.48-15.91 24.56-12.43 6.66 2.3 11.46 7.64 16.92 11.78a87.41 87.41 0 0 0 7.33 4.98z" fill="#ff4d5f"/><path d="M86.56 336.67c-30.44-9-58.12-25.79-83.12-45.09l-.11-.09q10.74-16.64 22.17-32.81c2.6-3.68 5.67-8.78 9.28-13.55 6.4-8.48 14.48-15.91 24.56-12.43 6.66 2.3 11.46 7.64 16.92 11.78a87.41 87.41 0 0 0 7.33 5 105.15 105.15 0 0 0 58.8 15.19 55.69 55.69 0 0 0 6.44-.62 25.7 25.7 0 0 0 9.52-3.29c5.47-3.34 9-9.3 10.33-15.58.07-.3.13-.59.18-.89 2.27-13-2.37-21.47-10-27.81-9.18-7.68-22.69-12.23-33.54-17.85-5.23-2.71-10.83-5.43-16.57-8.27a325.3 325.3 0 0 1-29.47-15.92c-13.66-8.58-25.85-18.84-33.25-32.28a57.26 57.26 0 0 1-2.74-5.62c-10.56-25.08-3.69-54.4 12.78-76.18 9.66-12.79 22.62-23 37.3-28.19a163.2 163.2 0 0 1 58.46-9.24A186.05 186.05 0 0 1 220 37.77q4.74 2 9.38 4.25c8 3.88 17.55 9.9 14.89 20.22-1 4-3.37 7.44-5.82 10.71a130.58 130.58 0 0 1-13.84 15.6q-3.42 3.28-7.08 6.31a5.11 5.11 0 0 1-1.76 1.08c-3.49 1-13.72-5.58-17.12-6.92a125.93 125.93 0 0 0-22.47-6.79 76.68 76.68 0 0 0-14.35-1.4A59 59 0 0 0 131.11 89c-3.08 1.85-6.08 4.07-7.92 7.17-3.24 5.47-2.11 12.75 1.41 18.06a25.86 25.86 0 0 0 3.25 4 46.12 46.12 0 0 0 11.37 8c19.63 10.4 40.1 19.35 59.95 29.38 7.07 3.58 14.07 7.29 20.91 11.25 2.37 1.37 4.71 2.81 7 4.32 9.94 6.56 19 14.56 25.15 24.67a92.33 92.33 0 0 1 9.2 20.15 105 105 0 0 1 1 58.59c-9.08 34-34.59 62.92-71.92 68.4q-8 1.17-16 1.85a251.38 251.38 0 0 1-57.87-1.67 227.13 227.13 0 0 1-24.68-5c-1.86-.48-3.63-.97-5.4-1.5z" fill="none" stroke="#000" stroke-linecap="round" stroke-linejoin="round" stroke-width="4"/><path d="M55.72 100.64a39.45 39.45 0 0 1 9.86-26.07M75.37 60.16c17.06-16 38.21-21.57 61-21.82M243.78 259.81a39.45 39.45 0 0 1-6.61 27.08M229.2 302.37c-15 17.95-35.29 26.06-57.89 29.09" fill="none" stroke="#fff" stroke-linecap="round" stroke-linejoin="round" stroke-width="7"/><g fill="#fff"><path d="M283.68 302.73c1.36-6.63 2.26-13.47 4-20 1.56-5.79 5.08-9.28 11.38-7.95 3.42.72 4.46 1.54 4.66 5 .29 5.24-.91 10.82-1.52 16s-1.38 10.54-2.3 15.78-1 13.38-6.26 16.41a7.8 7.8 0 0 1-11.51-4.46c-1.92-6.43.29-14.49 1.53-20.84 1.48-7.54-10.08-10.77-11.57-3.19-2.52 12.83-6.46 32.09 8.15 39.38a21.07 21.07 0 0 0 19.45-.52c6.17-3.6 9.18-10 10.51-16.72 2.53-12.82 4.73-26.16 5.46-39.24.3-5.38-.57-11.13-4.67-15-3.62-3.41-9.64-5.06-14.5-5a20.13 20.13 0 0 0-18.29 11.26c-3.68 7.89-4.37 17.37-6.11 25.83-1.52 7.61 10.04 10.83 11.59 3.26z"/><path d="M300.27 295.59c2.78 7 6.32 4.86 13.51 4.86 12.62 0 12.31-3.87 15.17-6.37"/><path d="M295.09 298.62c4.07 9.3 12.7 8.23 21.3 7.76 4-.22 8.22-.78 11.67-3 2.15-1.38 3.34-3.36 5.14-5.06 5.62-5.32-2.87-13.79-8.49-8.49-2.87 2.71-2.64 3.94-6.94 4.45-3 .36-6.2.3-9.24.42a6.66 6.66 0 0 1-2.33 0c1.3.53-.32-1.19-.74-2.14-3.09-7.06-13.43-1-10.36 6.06z"/><path d="M349.48 307a42.79 42.79 0 0 1-11 21c-.58.61-1.29 1.16-1.83 1.8a3.6 3.6 0 0 1-.49.44c2.94-2.31 1.21-.39.34-.75-1.95-.81-2.1.38-3.22-2.29-2.71-6.46-1.68-14.88-1-21.63.49-4.71 1.12-9.41 1.85-14.09 2-12.85 4.14-27.13 10.43-38.7a17.74 17.74 0 0 1 3.56-5c.76-.68 1.57-1.38 2.34-.95 4.9 2.78 2.65 11 1.14 15.14-4.7 12.79-14.38 30.19-29.18 32.42-7.61 1.14-4.38 12.71 3.19 11.57 18.65-2.8 30.69-23.26 37-39.24 3-7.73 4.1-16.27-.13-23.91-4.62-8.34-14.54-10.46-21.82-4.37-5.75 4.81-8.77 12.47-11.12 19.38a168 168 0 0 0-6.11 25.37c-1.26 7.24-2.28 14.53-3.06 21.83-1 8.95-1.61 19.3 2.3 27.69s15 12.22 22.48 5.57a53 53 0 0 0 16-28.12c1.57-7.54-10-10.76-11.57-3.19z"/><path d="M356.27 313.59c-1.52 0-1.4-1.07-.52.47s1.69 2.83 2.41 4.33a91 91 0 0 1 3.92 10.07c1.63 4.76 2.55 9.46 7.4 12 5.48 2.86 10.32-.65 12.63-5.66 4.09-8.88 5.67-19.18 7.95-28.6 1.81-7.5-9.76-10.71-11.57-3.19-2.06 8.54-3.58 17.66-6.83 25.86 0 0-1 1.63-.92 1.88.19.43-.36-.2.87-.73a5.74 5.74 0 0 1 1.94-.48c.28 0 2.29.69 1.51.32s0-.11.19.19c-.65-.81.55 2 .14.39a106 106 0 0 0-6.45-17.19c-2.37-5.14-6.16-11.77-12.67-11.63-7.71.17-7.74 12.17 0 12zM398.65 338.44q1-7.56 2.05-15.11l1-7.56c.19-1.37 0-5.18 1-6.31 2.41-2.91 9.53.18 10.14 3.65 1 5.45-5.38 5.72-9.06 5.92-3.51.2-5.48 3.07-4.89 6.41 1.82 10.25 9.88 16 19.89 16.72 6.5.5 6.47-9.64 0-10.13-5.78-.44-9.11-3.63-10.11-9.28l-4.89 6.41c7.83-.44 15.88-2.34 18.58-10.78 2.56-8-2.52-16.54-10.41-19-6.68-2-15.89-1.33-18.64 6.15-1.6 4.36-1.62 9.55-2.24 14.12q-1.09 8-2.18 16.06c-.86 6.38 8.9 9.14 9.77 2.69z"/><circle cx="438.77" cy="335.09" r="6" stroke="#fff" stroke-linecap="round" stroke-miterlimit="10" stroke-width="3.378"/></g></g></svg>