<svg data-name="Layer 1" xmlns="http://www.w3.org/2000/svg" viewBox="0 0 258.62 107.8"><title>brand-nav-logo-colored</title><path d="M95.84 67.74c1.36-6.63 2.26-13.47 4-20 1.58-5.74 5.08-9.27 11.4-7.94 3.42.72 4.46 1.54 4.66 5 .29 5.24-.91 10.82-1.52 16s-1.38 10.54-2.3 15.78-1 13.38-6.26 16.41a7.8 7.8 0 0 1-11.51-4.46c-1.92-6.43.29-14.49 1.53-20.84C97.32 60.2 85.76 57 84.27 64.55c-2.52 12.83-6.46 32.09 8.15 39.38a21.07 21.07 0 0 0 19.45-.52c6.17-3.6 9.18-10 10.51-16.72 2.53-12.82 4.73-26.16 5.46-39.24.3-5.38-.57-11.13-4.67-15-3.62-3.41-9.64-5.06-14.5-5a20.13 20.13 0 0 0-18.29 11.27c-3.68 7.89-4.37 17.37-6.11 25.83-1.54 7.54 10.02 10.77 11.57 3.19z" fill="#fff"/><path d="M107.25 63.64c4.07 9.3 12.7 8.23 21.3 7.76 4-.22 8.22-.78 11.67-3 2.15-1.38 3.34-3.36 5.14-5.06 5.62-5.32-2.87-13.79-8.49-8.49-2.87 2.71-2.64 3.94-6.94 4.45-3 .36-6.2.3-9.24.42a6.66 6.66 0 0 1-2.33 0c1.3.53-.32-1.19-.74-2.14-3.09-7.06-13.43-1-10.36 6.06z" fill="#fff"/><path d="M161.64 72a42.79 42.79 0 0 1-11 21c-.58.61-1.29 1.16-1.83 1.8a3.6 3.6 0 0 1-.49.44c2.94-2.31 1.21-.39.34-.75-1.95-.81-2.1.38-3.22-2.29-2.71-6.46-1.68-14.88-1-21.63.49-4.71 1.12-9.41 1.85-14.09 2-12.85 4.14-27.13 10.43-38.7a17.74 17.74 0 0 1 3.56-5c.76-.68 1.57-1.38 2.34-.95 4.9 2.78 2.65 11 1.14 15.14-4.7 12.79-14.38 30.19-29.18 32.42-7.66 1.21-4.4 12.77 3.17 11.61 18.65-2.8 30.69-23.26 37-39.24 3-7.73 4.1-16.27-.13-23.91-4.65-8.32-14.57-10.44-21.85-4.35-5.75 4.81-8.77 12.5-11.12 19.37a168 168 0 0 0-6.11 25.37c-1.26 7.24-2.28 14.53-3.06 21.83-1 8.95-1.61 19.3 2.3 27.69s15 12.22 22.48 5.57a53 53 0 0 0 16-28.12c1.57-7.54-10-10.76-11.57-3.19z" fill="#fff"/><path d="M168.43 78.61c-1.52 0-1.4-1.07-.52.47s1.69 2.83 2.41 4.33a91 91 0 0 1 3.92 10.07c1.63 4.76 2.55 9.46 7.4 12 5.48 2.86 10.32-.65 12.63-5.66 4.09-8.88 5.67-19.18 7.95-28.6 1.81-7.5-9.76-10.71-11.57-3.19-2.06 8.54-3.58 17.66-6.83 25.86 0 0-1 1.63-.92 1.88.19.43-.36-.2.87-.73a5.74 5.74 0 0 1 1.94-.48c.28 0 2.29.69 1.51.32s0-.11.19.19c-.65-.81.55 2 .14.39a106 106 0 0 0-6.45-17.19c-2.37-5.14-6.16-11.77-12.67-11.63-7.71.17-7.74 12.17 0 12zM210.81 103.46q1-7.56 2.05-15.11l1-7.56c.19-1.37 0-5.18 1-6.31 2.41-2.91 9.53.18 10.14 3.65 1 5.45-5.38 5.72-9.06 5.92-3.51.2-5.48 3.07-4.89 6.41 1.82 10.25 9.88 16 19.89 16.72 6.5.5 6.47-9.64 0-10.13-5.78-.44-9.11-3.63-10.11-9.28l-4.91 6.41c7.83-.44 15.88-2.34 18.58-10.78 2.56-8-2.52-16.54-10.41-19-6.68-2-15.89-1.33-18.64 6.15-1.6 4.36-1.62 9.55-2.24 14.12q-1.09 8-2.18 16.06c-.86 6.38 8.9 9.14 9.77 2.69z" fill="#fff"/><circle cx="250.93" cy="100.11" r="6" fill="#fff" stroke="#fff" stroke-linecap="round" stroke-miterlimit="10" stroke-width="3.378"/><path d="M75.17 67.35a30.46 30.46 0 0 1 .28 17.06l-.45-.12-6-11.52 6-5.37z" fill="#ff4d5f"/><path d="M75.01 84.29l.45.12c-2.64 9.9-10.08 18.33-20.95 19.93q-2.32.35-4.67.54l-3.67-11.56L58.5 82.25l10.54-9.48z" fill="#ffb244"/><path d="M75.17 67.35l-.16.05-6 5.37-10.51 9.48-10.28-6.4v-.26a8 8 0 0 0-2.9-8.11l.87-.07 13.33-8.84 5.59-3.7.06-.6a23.52 23.52 0 0 1 7.32 7.19 26.85 26.85 0 0 1 2.68 5.89zM65.85 16.66c2.33 1.13 5.12 2.88 4.34 5.89a9.16 9.16 0 0 1-1.7 3.12 36.45 36.45 0 0 1-4 4.47l-.3-.32-1.12-14.27.05-.12c.92.39 1.8.79 2.73 1.23z" fill="#9bffee"/><path d="M65.17 54.27l-.06.6-5.59 3.7-9.6-8.57v-.24l7 .21.09-.18c2.06 1 4.1 2.12 6.09 3.27.73.35 1.4.78 2.07 1.21z" fill="#fc9f8b"/><path d="M64.24 29.82l.3.32c-.68.68-1.4 1.31-2.14 1.92a1.41 1.41 0 0 1-.51.32c-1 .28-4-1.63-5-2a37.37 37.37 0 0 0-6.55-2 22.66 22.66 0 0 0-4.16-.38v-.18l-3.39-16.28z" fill="#2f8cf6"/><path d="M63.07 15.55l1.17 14.27-21.45-18.28.48-.36v-.08a54.24 54.24 0 0 1 19.85 4.33z" fill="#fc9f8b"/><path d="M59.52 58.57L46.18 67.4l-.87.07c-2.67-2.24-6.61-3.56-9.77-5.2-1.52-.79-3.15-1.58-4.83-2.41l8.83-9.9v-.51l10.38.3V50z" fill="#ffb244"/><path d="M58.5 82.25L46.18 93.32l-3.79-11.94a7.65 7.65 0 0 0 2.77-1 7 7 0 0 0 3-4.53zM57.04 49.74l-.09.18-7-.21-10.38-.3-10.8-.31 7.5-10.25a13.55 13.55 0 0 0 3.31 2.33c5.72 3.03 11.68 5.63 17.46 8.56z" fill="#ffc0fc"/><path d="M46.17 93.32l3.67 11.55a73.22 73.22 0 0 1-16.85-.48l9.41-23z" fill="#2f8cf6"/><path d="M46.18 27.78V28a17.18 17.18 0 0 0-9 2.38 6.4 6.4 0 0 0-2.26 2.05 5.1 5.1 0 0 0 .41 5.26 7.24 7.24 0 0 0 1 1.15l-12.9 3.77V26.33l19.36-14.79z" fill="#ff4d5f"/><path d="M43.26 11.1v.08l-.48.36-19.33 14.78L15.37 22a23.92 23.92 0 0 1 10.87-8.21 47.47 47.47 0 0 1 17.02-2.69z" fill="#ffb244"/><path d="M42.38 81.33l-9.41 23a65.52 65.52 0 0 1-7.19-1.46c-.51-.14-1-.28-1.54-.43l-9.52-16.79 8.65-8.56a30.67 30.67 0 0 0 17.13 4.43 17.21 17.21 0 0 0 1.88-.19z" fill="#fc9f8b"/><path d="M39.58 49.42v.51l-8.83 9.9a95.28 95.28 0 0 1-8.6-4.65c1.71.73 2.21-.05 2.21-.05l4.43-6.06z" fill="#2f8cf6"/><path d="M36.27 38.85l-7.5 10.25-4.43 6.06s-.5.78-2.21.05c-4-2.5-7.52-5.48-9.67-9.39l11-3.22zM14.72 85.65l9.52 16.85C15.37 99.88 7.3 95 .03 89.36q3.12-4.84 6.46-9.56c.76-1.07 1.65-2.56 2.71-3.94L13.78 84z" fill="#9bffee"/><path d="M23.45 26.32V42.6l-11 3.22a17.9 17.9 0 0 1-.8-1.64c-3.08-7.3-1.08-15.84 3.72-22.18z" fill="#fc9f8b"/><path d="M23.37 77.09l-8.65 8.56-.94-1.65-4.6-8.13c1.86-2.47 4.22-4.64 7.15-3.62 1.93.67 3.34 2.22 4.93 3.43.66.47 1.38.96 2.11 1.41z" fill="#ff4d5f"/><path d="M15.84 33.74a11.49 11.49 0 0 1 2.87-7.6M21.56 21.95c5-4.66 11.13-6.28 17.77-6.36M70.62 80.1a11.49 11.49 0 0 1-1.93 7.9M66.37 92.5c-4.37 5.23-10.28 7.59-16.86 8.48" fill="none" stroke="#fff" stroke-linecap="round" stroke-linejoin="round" stroke-width="2.039"/></svg>