<svg xmlns="http://www.w3.org/2000/svg" viewBox="0 0 259.62 107.8"><title>Asset 2</title><g data-name="Layer 1"><path d="M96.84 67.74c1.36-6.63 2.26-13.47 4-20 1.56-5.79 5.08-9.28 11.38-7.95 3.42.72 4.46 1.54 4.66 5 .29 5.24-.91 10.82-1.52 16S114 71.4 113.08 76.64s-1 13.38-6.26 16.41a7.8 7.8 0 0 1-11.51-4.46c-1.92-6.43.29-14.49 1.53-20.84 1.49-7.55-10.08-10.75-11.57-3.2-2.52 12.83-6.46 32.09 8.15 39.38a21.07 21.07 0 0 0 19.45-.52c6.17-3.6 9.18-10 10.51-16.72 2.53-12.82 4.73-26.16 5.46-39.24.3-5.38-.57-11.13-4.67-15-3.62-3.41-9.64-5.06-14.5-5a20.13 20.13 0 0 0-18.29 11.27C87.7 46.61 87 56.09 85.27 64.55c-1.54 7.54 10.02 10.77 11.57 3.19z"/><path d="M108.25 63.64c4.07 9.3 12.7 8.23 21.3 7.76 4-.22 8.22-.78 11.67-3 2.15-1.38 3.34-3.36 5.14-5.06 5.62-5.32-2.87-13.79-8.49-8.49-2.87 2.71-2.64 3.94-6.94 4.45-3 .36-6.2.3-9.24.42a6.66 6.66 0 0 1-2.33 0c1.3.53-.32-1.19-.74-2.14-3.09-7.06-13.43-1-10.36 6.06z"/><path d="M162.64 72a42.79 42.79 0 0 1-11 21c-.58.61-1.29 1.16-1.83 1.8a3.6 3.6 0 0 1-.49.44c2.94-2.31 1.21-.39.34-.75-1.95-.81-2.1.38-3.22-2.29-2.71-6.46-1.68-14.88-1-21.63.49-4.71 1.12-9.41 1.85-14.09 2-12.85 4.14-27.13 10.43-38.7a17.74 17.74 0 0 1 3.56-5c.76-.68 1.57-1.38 2.34-.95 4.9 2.78 2.65 11 1.14 15.14-4.7 12.79-14.38 30.19-29.18 32.42-7.58 1.21-4.4 12.77 3.17 11.61 18.65-2.8 30.69-23.26 37-39.24 3-7.73 4.1-16.27-.13-23.91C171-.47 161-2.59 153.77 3.5 148 8.31 145 16 142.65 22.87a168 168 0 0 0-6.11 25.37c-1.26 7.24-2.28 14.53-3.06 21.83-1 8.95-1.61 19.3 2.3 27.69s15 12.22 22.48 5.57a53 53 0 0 0 16-28.12c1.57-7.54-10-10.76-11.57-3.19z"/><path d="M169.43 78.61c-1.52 0-1.4-1.07-.52.47s1.69 2.83 2.41 4.33a91 91 0 0 1 3.92 10.07c1.63 4.76 2.55 9.46 7.4 12 5.48 2.86 10.32-.65 12.63-5.66 4.09-8.88 5.67-19.18 7.95-28.6C205 63.7 193.46 60.5 191.64 68c-2.06 8.54-3.58 17.66-6.83 25.86 0 0-1 1.63-.92 1.88.19.43-.36-.2.87-.73a5.74 5.74 0 0 1 1.94-.48c.28 0 2.29.69 1.51.32s0-.11.19.19c-.65-.81.55 2 .14.39a106 106 0 0 0-6.45-17.19c-2.37-5.14-6.16-11.77-12.67-11.63-7.71.17-7.74 12.17 0 12zM211.81 103.46q1-7.56 2.05-15.11l1-7.56c.19-1.37 0-5.18 1-6.31 2.41-2.91 9.53.18 10.14 3.65 1 5.45-5.38 5.72-9.06 5.92-3.51.2-5.48 3.07-4.89 6.41 1.82 10.25 9.88 16 19.89 16.72 6.5.5 6.47-9.64 0-10.13-5.78-.44-9.11-3.63-10.11-9.28l-4.89 6.41c7.83-.44 15.88-2.34 18.58-10.78 2.56-8-2.52-16.54-10.41-19-6.68-2-15.89-1.33-18.64 6.15-1.6 4.36-1.62 9.55-2.24 14.12q-1.09 8-2.18 16.06c-.86 6.38 8.9 9.14 9.77 2.69z"/><circle cx="251.93" cy="100.11" r="6" stroke="#000" stroke-linecap="round" stroke-miterlimit="10" stroke-width="3.378"/><path d="M49.53 74.53c.8-4.55-1.91-7.63-5.64-9.75-6.1-3.46-8.74-4.77-14.78-8.35-2.31-1.37-18-11.68-17.5-19.83.87-13.71 3.57 2.87 4.4 2.88a54.65 54.65 0 0 1 10.89 1.11 39.14 39.14 0 0 1 14.69 6A25 25 0 0 1 51.16 59a18.47 18.47 0 0 1-1.62 15.38" fill="#1c1c1c" stroke="#000" stroke-linecap="round" stroke-linejoin="round" stroke-width="1.166"/><path d="M35.74 33.17a4 4 0 0 1 .47-1.24c2.21-3.72 8.57-4.65 12.46-4.44a30.1 30.1 0 0 1 12.11 3.65 3.39 3.39 0 0 0 2.56.57 3.1 3.1 0 0 0 1-.62 39 39 0 0 0 7-7.87c.93-1.38.28-8-1.7-8.76-13.11-5.26-28.84-.74-41.12 6.26a39.77 39.77 0 0 0-10.2 8 23.86 23.86 0 0 0-5.81 11.45 53.72 53.72 0 0 0 22-8.58M.83 85.59c0 1.05-.47 2.87-.11 3.84.6 1.62 3.95 3.37 5.36 4.35A66.23 66.23 0 0 0 19 100.7a69.58 69.58 0 0 0 28.85 4.93c7.9-.35 16.43-2.34 22.07-8.26 7.58-8 9.19-19.25 6.67-29.65a45.07 45.07 0 0 0-2.3-6.92c-.25 6.29-4.43 12.19-9.75 15.57s-11.6 4.85-17.8 6A183.42 183.42 0 0 1 2.15 84.7" fill="#1c1c1c" stroke="#000" stroke-linecap="round" stroke-linejoin="round" stroke-width="1.166"/><path d="M76.23 63.37a30.62 30.62 0 0 1 .29 17.09l-.45-.12-6-11.53 6-5.38z" fill="#ff4d5f"/><path d="M76.07 80.34l.45.12c-2.65 9.91-10.09 18.35-21 19.95q-2.32.34-4.68.54L47.2 89.38l12.33-11.09 10.55-9.49z" fill="#ffb244"/><path d="M76.23 63.37l-.16.05-6 5.38-10.54 9.49-10.29-6.41h-.05c0-.08 0-.17.05-.26a8 8 0 0 0-2.9-8.11l.86-.07 13.36-8.84 5.6-3.7.07-.6a23.59 23.59 0 0 1 7.33 7.19 26.78 26.78 0 0 1 2.67 5.88zM66.9 12.63c2.33 1.13 5.12 2.89 4.34 5.9a9.14 9.14 0 0 1-1.7 3.12 37.57 37.57 0 0 1-4 4.55l-.23-.4-1.2-14.28.05-.12q1.39.6 2.74 1.23z" fill="#9bffee"/><path d="M66.22 50.28l-.07.6-5.6 3.7L51 46v-.24l7 .2.09-.18c2.06 1 4.1 2.12 6.1 3.28.68.36 1.37.78 2.03 1.22z" fill="#fc9f8b"/><path d="M65.28 25.81l.23.4q-1 1-2.06 1.84a1.46 1.46 0 0 1-.51.31c-1 .29-4-1.63-5-2a36.83 36.83 0 0 0-6.56-2A22.36 22.36 0 0 0 47.2 24v-.19L43.81 7.5z" fill="#2f8cf6"/><path d="M64.11 11.52l1.17 14.29L43.81 7.5l.47-.36v-.08a54.26 54.26 0 0 1 19.88 4.34z" fill="#fc9f8b"/><path d="M60.56 54.59L47.2 63.42l-.86.07c-2.68-2.24-6.62-3.56-9.78-5.2-1.53-.79-3.16-1.58-4.83-2.41l8.84-9.91v-.5l10.4.3V46z" fill="#ffb244"/><path d="M49.24 71.88l10.29 6.41L47.2 89.38l-3.79-12a7.53 7.53 0 0 0 2.78-1 7 7 0 0 0 3-4.54zM58.08 45.74l-.09.18-7-.2-10.4-.3-10.83-.31 7.51-10.26a13.4 13.4 0 0 0 3.32 2.33c5.74 3.03 11.7 5.64 17.49 8.56z" fill="#ffc0fc"/><path d="M47.2 89.38l3.67 11.57a73.31 73.31 0 0 1-16.87-.49l9.42-23z" fill="#2f8cf6"/><path d="M47.2 23.76V24a17.21 17.21 0 0 0-9 2.38 6.37 6.37 0 0 0-2.31 2.09 5.09 5.09 0 0 0 .41 5.27 7.51 7.51 0 0 0 .95 1.15l-12.82 3.72v-16.3L43.81 7.5z" fill="#ff4d5f"/><path d="M44.29 7.06v.08l-.47.36-19.37 14.81L16.36 18a23.93 23.93 0 0 1 10.88-8.25 47.59 47.59 0 0 1 17.05-2.69z" fill="#ffb244"/><path d="M43.4 77.37l-9.42 23A66.24 66.24 0 0 1 26.79 99c-.52-.14-1-.28-1.55-.43l-9.53-16.88 8.66-8.57a30.58 30.58 0 0 0 17.15 4.43 16.31 16.31 0 0 0 1.88-.18z" fill="#fc9f8b"/><path d="M40.6 45.42v.5l-8.84 9.91a94.41 94.41 0 0 1-8.59-4.64c1.69.71 2.19-.07 2.19-.07l4.44-6.07z" fill="#2f8cf6"/><path d="M37.28 34.85l-7.51 10.26-4.44 6.07s-.5.78-2.19.07c-4-2.5-7.54-5.5-9.7-9.42l11-3.22 12.85-3.76zM15.71 81.69l9.53 16.86C16.37 95.94 8.29 91 1 85.41q3.13-4.85 6.47-9.57c.76-1.07 1.66-2.56 2.71-4L14.76 80z" fill="#9bffee"/><path d="M24.45 22.31v16.3l-11 3.22a17 17 0 0 1-.8-1.64C9.56 32.88 11.56 24.32 16.36 18z" fill="#fc9f8b"/><path d="M24.37 73.13l-8.66 8.57-.95-1.7-4.6-8.14c1.87-2.47 4.22-4.64 7.16-3.62 1.93.67 3.34 2.23 4.93 3.44a25.49 25.49 0 0 0 2.12 1.45z" fill="#ff4d5f"/><path d="M37.28 34.85a13.4 13.4 0 0 0 3.32 2.33c5.72 3 11.69 5.64 17.48 8.57 2.06 1 4.1 2.12 6.1 3.28.69.4 1.37.82 2 1.26a23.59 23.59 0 0 1 7.33 7.19 26.78 26.78 0 0 1 2.68 5.89 30.62 30.62 0 0 1 .29 17.09c-2.65 9.91-10.09 18.35-21 19.95q-2.32.34-4.68.54a73.31 73.31 0 0 1-16.8-.49A66.24 66.24 0 0 1 26.79 99c-.52-.14-1-.28-1.55-.43C16.37 95.94 8.29 91 1 85.41q3.13-4.85 6.47-9.57c.76-1.07 1.66-2.56 2.71-4 1.87-2.47 4.22-4.64 7.16-3.62 1.93.67 3.34 2.23 4.93 3.44a25.49 25.49 0 0 0 2.14 1.45 30.58 30.58 0 0 0 17.15 4.43 16.31 16.31 0 0 0 1.88-.18 7.53 7.53 0 0 0 2.78-1 7 7 0 0 0 3-4.54c0-.08 0-.17.05-.26a8 8 0 0 0-2.9-8.11c-2.68-2.24-6.62-3.56-9.78-5.2-1.53-.79-3.16-1.58-4.83-2.41a94.41 94.41 0 0 1-8.59-4.64c-4-2.5-7.54-5.5-9.7-9.42a17 17 0 0 1-.8-1.64C9.56 32.88 11.56 24.32 16.36 18a23.93 23.93 0 0 1 10.88-8.25 47.59 47.59 0 0 1 17-2.69 54.26 54.26 0 0 1 19.88 4.34q1.38.58 2.74 1.24c2.33 1.13 5.12 2.89 4.34 5.9a9.14 9.14 0 0 1-1.7 3.12 37.57 37.57 0 0 1-4 4.55q-1 1-2.06 1.84a1.46 1.46 0 0 1-.51.31c-1 .29-4-1.63-5-2a36.83 36.83 0 0 0-6.56-2A22.36 22.36 0 0 0 47.2 24a17.21 17.21 0 0 0-9 2.38 6.37 6.37 0 0 0-2.31 2.09 5.09 5.09 0 0 0 .41 5.27 7.51 7.51 0 0 0 .95 1.15" fill="none" stroke="#000" stroke-linecap="round" stroke-linejoin="round" stroke-width="1.166"/><path d="M16.83 29.73a11.5 11.5 0 0 1 2.88-7.6M22.56 17.93c5-4.66 11.14-6.29 17.79-6.36M71.67 76.14A11.5 11.5 0 0 1 69.74 84M67.42 88.56c-4.37 5.23-10.29 7.6-16.88 8.48" fill="none" stroke="#fff" stroke-linecap="round" stroke-linejoin="round" stroke-width="2.041"/></g></svg>