<svg data-name="Layer 1" xmlns="http://www.w3.org/2000/svg" viewBox="0 0 1920.5 1080.5"><title>contact_bg</title><path fill="#fafafa" d="M0 0h1920.5v1080.5H0z"/><circle cx="286.47" cy="427.31" r="28.81" fill="none" stroke="#ededed" stroke-linecap="round" stroke-linejoin="round" stroke-width="9.602"/><path fill="none" stroke="#ededed" stroke-linecap="round" stroke-linejoin="round" stroke-width="9.602" d="M1272.33 126.43l5.43 29.01-22.4 19.2-27.84-9.8-5.43-29 22.41-19.21 27.83 9.8zM1523.6 456.69l-48.02 83.16h96.03l-48.01-83.16zM275.27 240.06l60.82-70.42M832.22 518.53l67.21 57.62M1571.61 92.82l25.61 16.01"/><path fill="#ededed" stroke="#ededed" stroke-linecap="round" stroke-linejoin="round" stroke-width="9.589037300000001" d="M555.564 46.641l21 14.598-14.597 21-21-14.598z"/><path fill="#ededed" stroke="#ededed" stroke-linecap="round" stroke-linejoin="round" stroke-width="9.602" d="M1763.596 439.928l21.06 14.572-14.572 21.06-21.06-14.572zM92.767 558.333l21.06 14.572-14.572 21.06-21.06-14.572z"/><circle cx="990.66" cy="449.72" r="28.81" fill="none" stroke="#ededed" stroke-linecap="round" stroke-linejoin="round" stroke-width="9.602"/><circle cx="1776.46" cy="233.66" r="28.81" fill="none" stroke="#ededed" stroke-linecap="round" stroke-linejoin="round" stroke-width="9.602"/><path fill="none" stroke="#ededed" stroke-linecap="round" stroke-linejoin="round" stroke-width="9.602" d="M680.18 296.08l5.43 29-22.41 19.21-27.83-9.8-5.43-29.01 22.4-19.2 27.84 9.8z"/><circle cx="354.47" cy="849.31" r="28.81" fill="none" stroke="#ededed" stroke-linecap="round" stroke-linejoin="round" stroke-width="9.602"/><path fill="none" stroke="#ededed" stroke-linecap="round" stroke-linejoin="round" stroke-width="9.602" d="M1422.57 927.95l65.53 70.2 28.02-91.85-93.55 21.65zM343.27 662.06l60.82-70.42M900.22 940.53l67.21 57.62"/><path fill="#ededed" stroke="#ededed" stroke-linecap="round" stroke-linejoin="round" stroke-width="9.589037300000001" d="M622.974 467.711l21 14.598-14.597 21-21-14.598z"/><path fill="#ededed" stroke="#ededed" stroke-linecap="round" stroke-linejoin="round" stroke-width="9.602" d="M1831.59 861.928l21.06 14.572-14.572 21.06-21.06-14.572zM160.761 980.333l21.06 14.572-14.571 21.06-21.06-14.572z"/><circle cx="1058.66" cy="871.72" r="28.81" fill="none" stroke="#ededed" stroke-linecap="round" stroke-linejoin="round" stroke-width="9.602"/><path fill="none" stroke="#ededed" stroke-linecap="round" stroke-linejoin="round" stroke-width="9.602" d="M748.18 718.08l5.43 29-22.41 19.21-27.83-9.8-5.43-29.01 22.4-19.2 27.84 9.8z"/></svg>