<svg xmlns="http://www.w3.org/2000/svg" viewBox="0 0 44.52 57.73"><title>custom-marker</title><g data-name="Layer 2"><path d="M43.55 23c0-12.18-9.55-22-21.31-22S.92 10.82.92 23A21.51 21.51 0 0 0 2 29.56c.68 1.86 1.21 3.39 1.19 3.39s.93 1.3 2.11 2.89L20 55.58a2.56 2.56 0 0 0 4.32 0l15-19.84c1.19-1.58 2.12-2.88 2.07-2.88a33.19 33.19 0 0 1 1.12-3.39A21.42 21.42 0 0 0 43.55 23z" fill="#fff0db"/><path d="M44.52 23C44.12 9.66 33.09-1.66 19.3.2S-3 16.56 1 29.58c1.18 3.81 3.33 6.55 5.66 9.69l9.87 13.26c1.38 1.86 3.15 5.41 5.9 5.19S27.51 53 29 51.06C35.46 42.44 44 34.28 44.52 23c.06-1.25-1.89-1.25-1.95 0-.38 8.35-5.09 13.58-9.85 19.89l-7.12 9.4c-1.64 2.18-2.9 4.14-5.49 1.81s-4.35-5.85-6.32-8.49l-6.61-8.88C.56 27.82-.14 16 8.31 7.66 21.56-5.35 42.06 5.73 42.58 23c.03 1.22 1.98 1.22 1.94 0z" fill="#ffbe64"/><ellipse cx="22.23" cy="20.25" rx="9.98" ry="9.7" fill="#f7c384"/></g></svg>