<svg xmlns="http://www.w3.org/2000/svg" viewBox="0 0 438.68 332.95"><title>dinosaur-2</title><path fill="#77f2bf" d="M58.5 108.73H400v224.22H58.5z" data-name="Layer 5"/><g data-name="Layer 2"><path d="M44.5 207.95V191.6A10.57 10.57 0 0 1 55 181.06h206.46A10.57 10.57 0 0 1 272 191.6v113.31a10.57 10.57 0 0 1-10.54 10.54H55a10.57 10.57 0 0 1-10.5-10.54v-76.82" fill="#fff"/><path d="M47.5 207.95c0-5.35-.48-10.94 0-16.28s4.13-7.51 8.94-7.62c6.68-.15 13.38 0 20.06 0h164.13c6.53 0 13.08-.16 19.61 0 9.27.23 8.77 7.91 8.77 14.68v81.7c0 8 .7 16.33 0 24.29-.77 8.85-8.88 7.73-15.25 7.73H64.46c-6.07 0-15.59 1.61-16.86-6.65-.43-2.83-.11-5.91-.11-8.76v-69c0-3.86-6-3.87-6 0v72.35c0 4.22-.18 8.26 2.3 12 2.83 4.26 7.4 5.94 12.29 6 6.8.11 13.61 0 20.41 0H246c5.13 0 10.32.23 15.45 0A13.87 13.87 0 0 0 275 304.8c.11-2.69 0-5.41 0-8.1v-101c0-3.22.2-6.4-1.12-9.45-3.73-8.61-12-8.23-19.72-8.23h-194c-1.64 0-3.29-.07-4.92 0a13.87 13.87 0 0 0-13.7 13.62c-.24 5.4 0 10.87 0 16.28 0 3.86 6 3.87 6 0z" fill="#404040"/><path d="M248.79 314.57h-182c-7.45 0-13.55-6.1-11.55-13.55v-97.63c-2-7.45 4.1-13.55 11.55-12.55h182a11 11 0 0 1 12.55 12.55V301c1 7.47-5.1 13.57-12.55 13.57z" fill="#fff"/><path d="M248.79 311.57H123.12c-18.23 0-36.47.24-54.7 0-3.77-.05-7.82-.75-9.73-4.5-1.21-2.36-.4-7.12-.4-10.08v-73.43c0-6.68.43-13.51 0-20.18s1.95-9.52 8.55-9.55h181.83c6.66 0 9.84 3.59 9.66 10.19-.23 8.51 0 17.05 0 25.56 0 23.29-.28 46.59 0 69.87.08 6.39-2.08 11.73-9.55 12.11-3.84.2-3.87 6.2 0 6 9.55-.49 15.64-7.17 15.55-16.56v-85.06c0-8.16 1.92-19.53-5.21-25.17-5-4-12.82-2.93-19-2.93h-117c-18.46 0-37 .43-55.43 0-5-.12-9.74.67-13.07 4.91-3 3.86-2.48 8-2.34 12.49.33 10.56 0 21.19 0 31.76v43c0 7.44.28 15-.28 22.39-.67 8.83 6.46 14.83 14.86 15.17 1.31.05 2.63 0 3.94 0h178c3.85.01 3.86-5.99-.01-5.99z" fill="#404040"/><path d="M62.33 321.95H297.5c4.67 0 8.5-5.1 8.5-11.33v-2.67H3v2.67c0 6.23 3.82 11.33 8.5 11.33h33" fill="#fff"/><path d="M62.33 324.95H295.63c9.76-.08 13.37-8 13.37-17a3 3 0 0 0-3-3H17.36c-4.7 0-9.68-.49-14.36 0a3.07 3.07 0 0 0-3 3c0 5.9 1 12.49 6.69 15.7 3.2 1.81 7.2 1.3 10.74 1.3H44.5c3.86 0 3.87-6 0-6H22.64c-3.42 0-7 .27-10.38 0-5.77-.46-6.26-6.32-6.26-11l-3 3c3.74-.39 7.72 0 11.47 0H306l-3-3c0 4.33-.34 10.39-5.77 11a28.2 28.2 0 0 1-3.1 0H62.33c-3.86 0-3.87 6 0 6z" fill="#404040"/><path d="M132.61 308.13H124v.66c0 1.54.76 2.81 1.68 2.81h56.63c.93 0 1.68-1.26 1.68-2.81v-.66z" fill="#d0e1f4"/><path d="M132.61 306.63c-2.8 0-5.84-.36-8.61 0a1.54 1.54 0 0 0-1.5 1.5c0 5.76 4.29 5 8.45 5h46.1c4.15 0 8.45.8 8.45-5a1.52 1.52 0 0 0-1.5-1.5h-51.39a1.5 1.5 0 0 0 0 3H184l-1.5-1.5c0 2.36-.44 2-2.35 2h-52.3c-1.93 0-2.35.52-2.35-2l-1.5 1.5c2.77-.36 5.82 0 8.61 0a1.5 1.5 0 0 0 0-3z" fill="#404040"/><rect x="67.07" y="202.75" width="103.65" height="25.91" rx="3.82" ry="3.82" fill="#f3f3f3" stroke="#f3f3f3" stroke-miterlimit="10"/><rect x="67.07" y="235.25" width="103.65" height="25.91" rx="3.82" ry="3.82" fill="#f3f3f3" stroke="#f3f3f3" stroke-miterlimit="10"/><rect x="67.07" y="269.5" width="103.65" height="25.91" rx="3.82" ry="3.82" fill="#f3f3f3" stroke="#f3f3f3" stroke-miterlimit="10"/></g><g data-name="Layer 4"><path d="M429 318.95c-12 4-30 3-30 3H288a20.3 20.3 0 0 1-18-20 20 20 0 0 1 18.78-20l.22-35h-19l-10.58-.71A15 15 0 0 1 249 231.95c0-7.91 11.24-16.43 19-17a58 58 0 0 1 0-116h66s17 1 30 10 39 24 41 62v91s0 11 11 20 16 17 16 17 9 16-3 20z" fill="#fff"/><path d="M361 321.95c-1.42.32-7.48 0-9 0a20 20 0 1 1 4.7-39.45" fill="#fff"/><path d="M360.2 319.06c-9.73 1.36-21.17-1.64-24.4-12-4-12.68 7.46-24.22 20.1-21.7 3.77.75 5.38-5 1.6-5.79-16-3.19-31.1 9.85-28.09 26.51 2.79 15.47 18.47 20.67 32.4 18.72 3.81-.53 2.19-6.31-1.6-5.79z" fill="#404040"/><path d="M335.69 213.35a14.86 14.86 0 1 0 .31 29.45h16" fill="#fff"/><path d="M335.69 210.38c-16.36-1-26.56 19-14 30.75 7.58 7.07 20.72 4.64 30.28 4.64 3.82 0 3.83-5.94 0-5.94-5.87 0-11.74.07-17.6.13A12 12 0 0 1 322 228.09c0-7.67 6.56-12.21 13.72-11.77 3.82.23 3.81-5.71 0-5.94z" fill="#404040"/><path d="M382.17 118.75a27 27 0 0 0 24.68 47.93z" fill="#3c4050"/><circle cx="291" cy="149.95" r="7" fill="#404040" stroke="#404040" stroke-miterlimit="10"/><circle cx="325" cy="149.95" r="7" fill="#404040" stroke="#404040" stroke-miterlimit="10"/><path d="M406.36 273.58a13.56 13.56 0 0 0 20.06 18.16z" fill="#3c4050"/><path d="M306 318.95c-7.14 0-16.26 1.64-22.93-1.43-15.79-7.28-11.46-30.91 5.71-32.53a3.07 3.07 0 0 0 3-3l.22-35a3 3 0 0 0-3-3c-7.29 0-14.63.29-21.9-.19-2.27-.15-5 .09-7.22-.48-3.71-1-6.76-5.07-7.56-8.65-1.87-8.29 8.32-15.8 15.69-16.67 3.74-.44 4-6 0-6-30-.36-55-24.75-55-55s25-54.64 55-55c3.86 0 3.87-6 0-6a61.78 61.78 0 0 0-57.08 39.48c-9.11 23.81-1.74 51.86 17.81 68.19A62 62 0 0 0 268 217.95v-6c-8.51 1-17.47 6.82-20.87 14.88-3.55 8.43 2.08 19.53 10.85 22.07 4.26 1.23 9.36 1 13.81 1.05h17.2l-3-3-.22 35 3-3c-18.17 1.71-28.61 22.79-16.51 37.53 8.62 10.52 21.74 8.47 33.74 8.47 3.86 0 3.87-6 0-6z" fill="#404040"/><path d="M306 324.95c3.86 0 3.87-6 0-6s-3.87 6 0 6zM402 242.95c0 10.53-1.61 21.73 3.67 31.33 6.63 12.07 27 20 26.57 35.9-.15 5.44-5 6.38-9.48 7.3a90 90 0 0 1-16.88 1.52c-3.1 0-6.19-.1-9.29-.1H325c-3.86 0-3.87 6 0 6h71.19c3.23 0 6.46.14 9.69.1a108.46 108.46 0 0 0 15.61-1.26c4.5-.72 10-1.54 13.38-4.89 10.36-10.17-2.93-26-10.17-33.17s-16.1-12.89-16.7-23.8c-.34-6.27 0-12.65 0-18.93 0-3.86-6-3.87-6 0z" fill="#404040"/><path d="M405 245.95c3.86 0 3.87-6 0-6s-3.87 6 0 6zM405 231.66c3.86 0 3.87-6 0-6s-3.87 6 0 6z" fill="#404040"/><path d="M298 101.95h33.42c13.9 0 26.15 6.11 37.32 13.86 14.28 9.92 26 22.52 30.78 39.66 3.26 11.78 2.47 23.9 2.47 36v37.2c0 3.86 6 3.87 6 0v-33.82c0-12.71.94-25.77-2-38.25-4.21-18-15.42-32.1-30-42.93-12.46-9.26-26.15-17-42.06-17.72-11.93-.56-24 0-36 0-3.86 0-3.87 6 0 6zM288 101.95h2a3 3 0 0 0 0-6h-2a3 3 0 0 0 0 6zM280 101.95c3.86 0 3.87-6 0-6s-3.87 6 0 6z" fill="#404040"/><path d="M268 101.95h12c3.86 0 3.87-6 0-6h-12c-3.86 0-3.87 6 0 6zM283.18 209.83a59 59 0 0 1-15.18 2.12c-3.86 0-3.87 6 0 6a65.56 65.56 0 0 0 16.78-2.34c3.72-1 2.14-6.81-1.6-5.79z" fill="#404040"/></g><g data-name="Layer 6" fill="#404040"><path d="M409.52 1.45v8.5a1.5 1.5 0 0 0 3 0v-8.5a1.5 1.5 0 0 0-3 0z"/><path d="M406.5 6.93h8.5a1.5 1.5 0 0 0 0-3h-8.5a1.5 1.5 0 0 0 0 3zM386.52 87.45v8.5a1.5 1.5 0 0 0 3 0v-8.5a1.5 1.5 0 0 0-3 0z"/><path d="M383.5 92.93h8.5a1.5 1.5 0 0 0 0-3h-8.5a1.5 1.5 0 0 0 0 3zM225.72 60.95v26c0 5.9 9.18 5.91 9.18 0v-26c0-5.9-9.18-5.91-9.18 0z"/><path d="M216.5 77.72h26c5.9 0 5.91-9.18 0-9.18h-26c-5.9 0-5.91 9.18 0 9.18z"/></g></svg>