<svg xmlns="http://www.w3.org/2000/svg" viewBox="0 0 328.67 275.18"><title>dinosaur-new</title><g data-name="Layer 7" fill="#edf6fe"><path d="M227.58 1.69l19.02 271.9L1.62 154.11 227.58 1.69z"/><path d="M225.95 1.74l6.45 92.28 10.21 145.92 2.36 33.7 2.45-1.41-83.14-40.55-131.47-64.17-30.37-14.77v2.82l76.69-51.73 121.27-81.8 28-18.89c1.73-1.17.1-4-1.65-2.82l-76.67 51.69-121.27 81.8L.8 152.74a1.65 1.65 0 0 0 0 2.82l83.14 40.55 131.47 64.12 30.37 14.81a1.65 1.65 0 0 0 2.45-1.41l-6.45-92.28-10.21-145.96-2.35-33.65c-.15-2.13-3.41-2.15-3.27 0z"/></g><g data-name="Layer 8"><path d="M43.18 195a22.16 22.16 0 0 1 27.66-29.71 34.8 34.8 0 0 1-18 33.72" fill="#cfebde" stroke="#68c299" stroke-miterlimit="10" stroke-width="1.841"/><path d="M61.92 171.37a25.81 25.81 0 0 0-11.33 14.27c-.36 1.11 1.38 1.58 1.74.48a23.88 23.88 0 0 1 10.5-13.19.903.903 0 0 0-.91-1.56z" fill="#90d2b5"/><path d="M58.32 183.65a14.47 14.47 0 0 0-7.33-5.65c-1.1-.38-1.57 1.36-.48 1.74a12.43 12.43 0 0 1 6.26 4.82c.65 1 2.21.06 1.56-.91zM63.84 178.16a16.74 16.74 0 0 0-8.34-6.5c-1.09-.39-1.57 1.35-.48 1.74a14.69 14.69 0 0 1 7.26 5.67c.64 1 2.21.06 1.56-.91z" fill="#90d2b5"/><path d="M66.21 224.42a36.83 36.83 0 0 0-46-49.36c-2.41 22.37 10 45.62 30 56 3.07 1.6 6.56 2.17 9.73.78a12.36 12.36 0 0 0 6.72-7.52" fill="#cfebde" stroke="#68c299" stroke-miterlimit="10" stroke-width="3.059"/><path d="M33.55 187.74A39.68 39.68 0 0 1 51 209.65c.6 1.83 3.49 1 2.89-.8a42.89 42.89 0 0 0-18.83-23.71 1.5 1.5 0 0 0-1.51 2.59z" fill="#90d2b5"/><path d="M43.67 207.07a20.66 20.66 0 0 1 10.39-8c1.81-.63 1-3.53-.8-2.89a24 24 0 0 0-12.19 9.39c-1.08 1.6 1.52 3.11 2.59 1.51zM34.47 197.95a24.41 24.41 0 0 1 12.06-9.43c1.8-.65 1-3.55-.8-2.89a27.82 27.82 0 0 0-13.85 10.81c-1.08 1.61 1.52 3.11 2.59 1.51z" fill="#90d2b5"/><path d="M275.82 223.42a36.83 36.83 0 0 1 46-49.36c2.41 22.37-10 45.62-30 56-3.07 1.6-6.56 2.17-9.73.78a12.36 12.36 0 0 1-6.72-7.52" fill="#cfebde" stroke="#68c299" stroke-miterlimit="10" stroke-width="3.059"/><path d="M306.96 184.15a42.89 42.89 0 0 0-18.83 23.71c-.6 1.84 2.3 2.63 2.89.8a39.68 39.68 0 0 1 17.46-21.92 1.5 1.5 0 0 0-1.51-2.59z" fill="#90d2b5"/><path d="M300.97 204.55a24 24 0 0 0-12.19-9.39c-1.83-.64-2.61 2.26-.8 2.89a20.66 20.66 0 0 1 10.39 8c1.07 1.59 3.67.09 2.59-1.51zM310.15 195.43a27.82 27.82 0 0 0-13.85-10.81c-1.82-.66-2.6 2.24-.8 2.89a24.41 24.41 0 0 1 12.06 9.43c1.07 1.6 3.67.1 2.59-1.51z" fill="#90d2b5"/></g><g data-name="Layer 2"><path d="M64.17 132.69v-16.35a10.57 10.57 0 0 1 10.5-10.54h206.46a10.57 10.57 0 0 1 10.54 10.54v113.31a10.57 10.57 0 0 1-10.54 10.54H74.67a10.57 10.57 0 0 1-10.54-10.54v-76.82" fill="#fff"/><path d="M67.17 132.69c0-5.35-.48-10.94 0-16.28s4.13-7.51 8.94-7.62c6.68-.15 13.38 0 20.06 0H260.3c6.53 0 13.08-.16 19.61 0 9.27.23 8.77 7.91 8.77 14.68v81.7c0 8 .7 16.33 0 24.29-.77 8.85-8.88 7.73-15.25 7.73H84.13c-6.07 0-15.59 1.61-16.86-6.65-.43-2.83-.11-5.91-.11-8.76v-69c0-3.86-6-3.87-6 0v72.35c0 4.22-.18 8.26 2.3 12 2.83 4.26 7.4 5.94 12.29 6 6.8.11 13.61 0 20.41 0h169.51c5.13 0 10.32.23 15.45 0a13.87 13.87 0 0 0 13.55-13.59c.11-2.69 0-5.41 0-8.1v-101c0-3.22.2-6.4-1.12-9.45-3.73-8.61-12-8.23-19.72-8.23h-194c-1.64 0-3.29-.07-4.92 0a13.87 13.87 0 0 0-13.7 13.62c-.24 5.4 0 10.87 0 16.28 0 3.86 6 3.87 6 0z" fill="#404040"/><path d="M268.46 239.31h-182c-7.45 0-13.55-6.1-11.55-13.55v-97.63c-2-7.45 4.1-13.55 11.55-12.55h182a11 11 0 0 1 12.55 12.55v97.61c1 7.47-5.1 13.57-12.55 13.57z" fill="#fff"/><path d="M268.46 236.31H142.79c-18.23 0-36.47.24-54.7 0-3.77-.05-7.82-.75-9.73-4.5-1.21-2.36-.4-7.12-.4-10.08V148.3c0-6.68.43-13.51 0-20.18s1.95-9.52 8.55-9.55h181.83c6.66 0 9.84 3.59 9.66 10.19-.23 8.51 0 17.05 0 25.56 0 23.29-.28 46.59 0 69.87.08 6.39-2.08 11.73-9.55 12.11-3.84.2-3.87 6.2 0 6 9.55-.49 15.64-7.17 15.55-16.56v-85.06c0-8.16 1.92-19.53-5.21-25.17-5-4-12.82-2.93-19-2.93h-117c-18.46 0-37 .43-55.43 0-5-.12-9.74.67-13.07 4.91-3 3.86-2.48 8-2.34 12.49.33 10.56 0 21.19 0 31.76v43c0 7.44.28 15-.28 22.39-.67 8.83 6.46 14.83 14.86 15.17 1.31.05 2.63 0 3.94 0h178c3.85.01 3.86-5.99-.01-5.99z" fill="#404040"/><path d="M82 246.69h235.17c4.67 0 8.5-5.1 8.5-11.33v-2.67h-303v2.67c0 6.23 3.82 11.33 8.5 11.33h33" fill="#fff"/><path d="M82 249.69H315.3c9.76-.08 13.37-8 13.37-17a3 3 0 0 0-3-3H37.03c-4.7 0-9.68-.49-14.36 0a3.07 3.07 0 0 0-3 3c0 5.9 1 12.49 6.69 15.7 3.2 1.81 7.2 1.3 10.74 1.3h27.07c3.86 0 3.87-6 0-6H42.31c-3.42 0-7 .27-10.38 0-5.77-.46-6.26-6.32-6.26-11l-3 3c3.74-.39 7.72 0 11.47 0h291.53l-3-3c0 4.33-.34 10.39-5.77 11a28.2 28.2 0 0 1-3.1 0H82c-3.86 0-3.87 6 0 6z" fill="#404040"/><path d="M152.28 232.87h-8.61v.66c0 1.54.76 2.81 1.68 2.81h56.63c.93 0 1.68-1.26 1.68-2.81v-.66z" fill="#d0e1f4"/><path d="M152.28 231.37c-2.8 0-5.84-.36-8.61 0a1.54 1.54 0 0 0-1.5 1.5c0 5.76 4.29 5 8.45 5h46.1c4.15 0 8.45.8 8.45-5a1.52 1.52 0 0 0-1.5-1.5h-51.39a1.5 1.5 0 0 0 0 3h51.39l-1.5-1.5c0 2.36-.44 2-2.35 2h-52.3c-1.93 0-2.35.52-2.35-2l-1.5 1.5c2.77-.36 5.82 0 8.61 0a1.5 1.5 0 0 0 0-3z" fill="#404040"/><rect x="86.73" y="127.49" width="103.65" height="25.91" rx="3.82" ry="3.82" fill="#edf6fe"/><rect x="86.73" y="159.99" width="103.65" height="25.91" rx="3.82" ry="3.82" fill="#edf6fe"/><rect x="86.73" y="194.24" width="103.65" height="25.91" rx="3.82" ry="3.82" fill="#edf6fe"/></g><g data-name="Layer 6" fill="#fbb1aa"><path d="M261.19 35.19v8.5a1.5 1.5 0 0 0 3 0v-8.5a1.5 1.5 0 0 0-3 0z"/><path d="M258.17 40.67h8.5a1.5 1.5 0 0 0 0-3h-8.5a1.5 1.5 0 0 0 0 3zM316.19 119.19v8.5a1.5 1.5 0 0 0 3 0v-8.5a1.5 1.5 0 0 0-3 0z"/><path d="M313.17 124.67h8.5a1.5 1.5 0 0 0 0-3h-8.5a1.5 1.5 0 0 0 0 3zM21.39 79.69v26c0 5.9 9.18 5.91 9.18 0v-26c0-5.9-9.18-5.91-9.18 0z"/><path d="M12.17 96.46h26c5.9 0 5.91-9.18 0-9.18h-26c-5.9 0-5.91 9.18 0 9.18z"/></g></svg>