<svg data-name="Layer 1" xmlns="http://www.w3.org/2000/svg" viewBox="0 0 381.51 258.51"><title>home-shapes</title><path fill="#e37774" d="M5.96 252.01l208.05-215v215H5.96z"/><path d="M10.2 256.25l70.18-72.52 112.23-116 25.65-26.5-10.25-4.22v215l6-6h-208c-7.72 0-7.73 12 0 12h208a6.09 6.09 0 0 0 6-6v-215c0-5.13-6.6-8-10.24-4.24l-70.18 72.52-112.23 116-25.65 26.5c-5.36 5.53 3.11 14.02 8.49 8.46z" fill="#e37774"/><path fill="#e37774" d="M374.01 201.09l-159-165.08v216h159v-50.92z"/><path d="M378.25 196.84l-53.58-55.63-85.8-89.08-19.62-20.37c-3.63-3.75-10.24-.88-10.24 4.25v216a6.09 6.09 0 0 0 6 6h159a6.09 6.09 0 0 0 6-6v-50.92c0-7.72-12-7.73-12 0v50.92l6-6h-159l6 6v-216l-10.24 4.24 53.58 55.63 85.8 89.13 19.62 20.37c5.36 5.52 13.84-2.97 8.48-8.54z" fill="#e37774"/><path fill="#fce289" d="M380.51 2.36v255.15H117.66L380.51 2.36z"/><path fill="none" stroke="#fce289" stroke-miterlimit="10" stroke-width="2" d="M117.66 257.51L380.51 2.36v255.15H117.66z"/></svg>