<svg xmlns="http://www.w3.org/2000/svg" viewBox="0 0 234.55 165.06"><title>icon-kid</title><g data-name="Layer 2"><g data-name="Layer 4"><rect x="10.09" y="123.61" width="195.94" height="27.07" rx="13.47" ry="13.47" fill="#f8f9fd" stroke="#f8f9fd" stroke-miterlimit="10" stroke-width=".77"/><rect x="21.64" y="81.61" width="173.29" height="27.07" rx="12.67" ry="12.67" fill="#f8f9fd" stroke="#f8f9fd" stroke-miterlimit="10" stroke-width=".724"/><rect x=".39" y="38.68" width="195.94" height="27.07" rx="13.47" ry="13.47" fill="#f8f9fd" stroke="#f8f9fd" stroke-miterlimit="10" stroke-width=".77"/><path d="M171.2 115.91a11.61 11.61 0 0 1 11.72-11.43H38.28A11.61 11.61 0 0 1 50 115.91a11.61 11.61 0 0 1-11.72 11.43h144.64a11.61 11.61 0 0 1-11.72-11.43z" fill="#f8f9fd" stroke="#f8f9fd" stroke-miterlimit="10" stroke-width=".662"/><path d="M161.2 80c0-7.83 4.58-14.24 10.18-14.24H45.69c5.6 0 10.18 6.41 10.18 14.24s-4.58 14.24-10.18 14.24h125.7c-5.61.04-10.19-6.37-10.19-14.24z" fill="#f8f9fd" stroke="#f8f9fd" stroke-miterlimit="10" stroke-width=".688"/><rect x="197.57" y="81.38" width="36.82" height="27.07" rx="13.52" ry="13.52" fill="#f8f9fd" stroke="#f8f9fd" stroke-miterlimit="10" stroke-width=".334"/><ellipse cx="7.55" cy="100.51" rx="7.16" ry="7.23" fill="#f8f9fd" stroke="#f8f9fd" stroke-miterlimit="10" stroke-width=".724"/><ellipse cx="187.02" cy="74.86" rx="4.99" ry="5.03" fill="#f8f9fd" stroke="#f8f9fd" stroke-miterlimit="10" stroke-width=".504"/><path fill="none" stroke="#6b7191" stroke-linecap="round" stroke-linejoin="round" stroke-width="1.485" d="M190.29 7.5l2.6-2.69M181.58 5l3.06 2.95M190.21 13.34l3.05 2.95M181.95 16.13l2.6-2.69M29.31 131.37l-.04-3.75M21.37 135.72l4.25-.05M33.37 135.57l4.24-.05M29.46 143.37l-.04-3.75"/><circle cx="195.39" cy="115.68" r="3.5" fill="none" stroke="#6b7191" stroke-linecap="round" stroke-linejoin="round" stroke-width="1.485"/></g><path d="M160.39 106.68a11 11 0 0 1 22 0c0 6.08-4.92 13-11 13s-11-6.92-11-13z" fill="#fff"/><path d="M162.34 106.68c.74-12.84 20.34-10.68 17.92 1.94-.79 4.12-4.22 9.11-8.87 9.11-5.48 0-8.8-6.3-9.05-11.05-.13-2.5-4-2.51-3.9 0 .36 6.74 4.92 14.49 12.35 14.9s12.92-6.93 13.48-13.68a13.09 13.09 0 0 0-11.6-14.1c-7.81-.76-13.8 5.36-14.23 12.88-.15 2.51 3.75 2.5 3.9 0z" fill="#6b7191"/><path d="M163.43 108.39a7.22 7.22 0 0 1 7.79-1.37c1.79.71 2.57-2.19.8-2.89a10.17 10.17 0 0 0-10.71 2.14c-1.41 1.32.71 3.44 2.12 2.12z" fill="#6b7191"/><path d="M71.39 106.68a11 11 0 0 0-22 0c0 6.08 4.92 13 11 13s11-6.92 11-13z" fill="#fff"/><path d="M73.34 106.68c-.42-7.29-6-13.28-13.59-12.91a13.07 13.07 0 0 0-12.25 14.14c.56 6.53 5.84 13.7 12.89 13.73 7.72 0 12.59-8.08 12.95-15 .13-2.51-3.77-2.5-3.9 0-.24 4.59-3.13 10.19-8.13 10.91s-8.92-4.5-9.79-9C49.09 96 68.69 93.84 69.44 106.68c.14 2.5 4.04 2.51 3.9 0z" fill="#6b7191"/><path d="M70.46 106.27a10.18 10.18 0 0 0-10.71-2.14c-1.77.7-1 3.61.8 2.89a7.22 7.22 0 0 1 7.79 1.37c1.41 1.32 3.53-.8 2.12-2.12z" fill="#6b7191"/><path d="M120 5.49A292.92 292.92 0 0 1 68.72.92a25.56 25.56 0 0 0 8.18 24 11.45 11.45 0 0 0-11.66 5.88 11.45 11.45 0 0 0 1.87 12.91c-6.1-1.64-13.06 3.35-13.46 9.65-.23 3.51 1.27 6.88 2.74 10.09.83 1.8 2.7 5.78 4.44 9.52 1.62 3.49 3.11 6.78 3.5 7.9 1.31 3.78.42 6.7.13 10.55-.58 7.54-.07 15.29-.07 22.86a47.55 47.55 0 0 0 47.41 47.41h8.2a44.51 44.51 0 0 0 44.38-44.38c0-8.86-.7-18 0-26.83 1.28-16.15 6.32-32.84 9.43-48.77.73-3.72 1.38-7.86-.67-11.05-4.31-6.71-15.83-3.2-21.58-8.71-3.19-3.05-3.67-8.05-6.45-11.48-4.15-5.11-11.77-5.19-18.35-5q-3.35.02-6.76.02z" fill="#fff"/><path d="M152.57 24.93c-3.19-3.05-3.67-8.05-6.45-11.48-4.15-5.11-11.77-5.19-18.35-5q-3.36.07-6.72.07a293 293 0 0 1-46.86-3.86q-2.5 1.2-4.91 2.57A25.65 25.65 0 0 0 77.91 28a11.45 11.45 0 0 0-11.67 5.8 11.45 11.45 0 0 0 1.87 12.91c-6.1-1.64-13.06 3.35-13.46 9.65-.23 3.51 1.27 6.88 2.74 10.09.83 1.8 2.7 5.78 4.44 9.52 1.55 3.33 3 6.46 3.43 7.71-1.09-3 4-11.56 5.19-14.16a104.85 104.85 0 0 1 8.48-14.85 21.3 21.3 0 0 1 5.47-6c3.18-2.11 7.14-2.56 10.94-2.94l11.77-1.2a7.8 7.8 0 0 1-3.89 3.54c11.8-.89 23.87-5.52 35.13-1.87 5 1.61 9.28 4.72 13.5 7.77a31.21 31.21 0 0 1 6.49 5.69c1.36 1.73 5.88 18 6.06 18 1.09 0 2.18 0 3.25-.11 2.11-11 5.08-22.13 7.18-32.87 1.35-6.9 3.42-4.68-.67-11.05-4.32-6.69-15.84-3.18-21.59-8.7z" fill="#dbe7ff" stroke="#dbe7ff" stroke-miterlimit="10"/><path d="M96.81 3.51Q83.45 2.35 70.24 0a2 2 0 0 0-2.4 1.36 28.1 28.1 0 0 0 8.68 25.95L77.91 24c-12.47-1.17-19 12.79-11.18 22.07l1.9-3.26c-7.23-1.42-15 3.26-15.85 10.91-1.23 10.76 9.13 20.1 11.1 30.21.54 2.78-.15 5.69-.38 8.46-.28 3.48-.3 7-.26 10.46.06 6.28-.18 12.73.65 19a50.27 50.27 0 0 0 13.59 27.83c1.72 1.83 4.48-.93 2.76-2.76a46.33 46.33 0 0 1-12.45-25.34 133.85 133.85 0 0 1-.23-30.76c.36-3.59.64-6.75-.63-10.2-1.37-3.7-3.24-7.27-4.91-10.84C60 65.41 57 60.7 56.71 55.83a9.08 9.08 0 0 1 10.88-9.24 2 2 0 0 0 1.9-3.26c-5.9-7-.25-16.23 8.42-15.41 1.69.16 2.57-2.24 1.38-3.33A24.08 24.08 0 0 1 71.6 2.43L69.2 3.8q13.73 2.4 27.61 3.61c2.5.22 2.49-3.68 0-3.9z" fill="#6b7191"/><path d="M102.36 3.93q-2.78-.18-5.55-.41c-2.5-.21-2.49 3.69 0 3.9q2.77.23 5.55.41c2.51.16 2.5-3.74 0-3.9zM110.85 8.25c2.51 0 2.51-3.9 0-3.9s-2.51 3.9 0 3.9zM172.19 66c1.13-5.21 2.15-10.44 3.15-15.68.91-4.79 2.59-10 2-14.93-.91-7.73-7.56-9.52-14.18-10.6-4.85-.79-8.91-1.65-11.4-6.39-1.92-3.67-2.86-7.53-6.26-10.2-6.62-5.2-16.63-3.68-24.5-3.66-2.51 0-2.51 3.91 0 3.9 7.54 0 19.3-2.18 24.23 5.2 3.63 5.43 4 11.12 10.81 13.56s17.59.38 17.46 10.6c-.05 4.31-1.49 9-2.3 13.17-.89 4.67-1.82 9.34-2.83 14-.53 2.45 3.23 3.49 3.76 1z" fill="#6b7191"/><path d="M168.15 74.9c2.51 0 2.51-3.9 0-3.9s-2.51 3.9 0 3.9z" fill="#404040"/><path d="M87.9 157.85c18.38 10.4 45.76 9.89 62.42-3.75a46.54 46.54 0 0 0 16.6-29.73c1-7.71.12-15.6.11-23.35a139.48 139.48 0 0 1 3-27.55c.49-2.45-3.27-3.5-3.76-1-2.94 14.79-2.93 29-2.84 44 .07 12.24-4 23.7-12.93 32.33-15.24 14.8-42.61 16-60.63 5.76-2.19-1.24-4.16 2.13-2 3.37z" fill="#6b7191"/><circle cx="92.89" cy="96.18" r="18" fill="#fff"/><path d="M112.84 96.18c-.4-10.84-8.8-19.95-19.95-19.95a19.95 19.95 0 0 0 0 39.9c11.15 0 19.55-9.08 19.95-19.95.09-2.51-3.81-2.51-3.9 0-.32 8.75-7 16.05-16.05 16.05a16.05 16.05 0 1 1 0-32.1c9 0 15.73 7.3 16.05 16.05.06 2.5 3.99 2.52 3.9 0z" fill="#6b7191"/><path d="M112.61 97.47c3.5-1.64 7.13-.76 10.48.79 2.26 1 4.25-2.32 2-3.37-4.76-2.19-9.53-3.09-14.42-.79-2.27 1.07-.29 4.43 2 3.37z" fill="#6b7191"/><circle cx="139.89" cy="96.18" r="18" transform="rotate(-41.89 139.894 96.185)" fill="#fff"/><path d="M126.49 81.4c-7.79 7.55-8.86 19.93-1.38 28.18a19.95 19.95 0 0 0 29.56-26.8c-7.54-8.3-19.82-8.32-28.18-1.38-1.93 1.6.84 4.35 2.76 2.76 6.73-5.59 16.74-5.31 22.66 1.38a16.05 16.05 0 1 1-24 21.28c-6-6.74-4.9-16.57 1.38-22.66 1.76-1.75-1-4.51-2.8-2.76z" fill="#6b7191"/><path d="M95 92.79c-1.07 1.64-2.29 3.53-2.93 4.6a1.62 1.62 0 0 1-.32.78c-.25.25-.08-.1.32-.78a21.31 21.31 0 0 0 0-5.12 4 4 0 1 0 3 .52zM142 92.79c-1.07 1.64-2.29 3.53-2.93 4.6a1.62 1.62 0 0 1-.32.78c-.25.25-.08-.1.32-.78a21.31 21.31 0 0 0 0-5.12 4 4 0 1 0 3 .52z" fill="#6b7191" stroke="#6b7191" stroke-miterlimit="10"/></g></svg>