<svg xmlns="http://www.w3.org/2000/svg" viewBox="0 0 234.55 126.95"><title>icon-progress</title><g data-name="Layer 2"><g data-name="extra background"><rect x="10.09" y="97.18" width="195.94" height="27.07" rx="13.47" ry="13.47" fill="#f8f9fd" stroke="#f8f9fd" stroke-miterlimit="10" stroke-width=".77"/><rect x="21.64" y="55.18" width="173.29" height="27.07" rx="12.67" ry="12.67" fill="#f8f9fd" stroke="#f8f9fd" stroke-miterlimit="10" stroke-width=".724"/><rect x=".39" y="12.24" width="195.94" height="27.07" rx="13.47" ry="13.47" fill="#f8f9fd" stroke="#f8f9fd" stroke-miterlimit="10" stroke-width=".77"/><path d="M171.21 89.48A11.61 11.61 0 0 1 182.92 78H38.28A11.61 11.61 0 0 1 50 89.48a11.61 11.61 0 0 1-11.72 11.43h144.64a11.61 11.61 0 0 1-11.71-11.43z" fill="#f8f9fd" stroke="#f8f9fd" stroke-miterlimit="10" stroke-width=".662"/><path d="M161.21 53.6c0-7.83 4.58-14.24 10.18-14.24H45.69c5.6 0 10.18 6.41 10.18 14.24s-4.58 14.24-10.18 14.24h125.7c-5.6 0-10.18-6.41-10.18-14.24z" fill="#f8f9fd" stroke="#f8f9fd" stroke-miterlimit="10" stroke-width=".688"/><rect x="197.57" y="54.94" width="36.82" height="27.07" rx="13.52" ry="13.52" fill="#f8f9fd" stroke="#f8f9fd" stroke-miterlimit="10" stroke-width=".334"/><ellipse cx="7.55" cy="74.08" rx="7.16" ry="7.23" fill="#f8f9fd" stroke="#f8f9fd" stroke-miterlimit="10" stroke-width=".724"/><ellipse cx="187.02" cy="48.42" rx="4.99" ry="5.03" fill="#f8f9fd" stroke="#f8f9fd" stroke-miterlimit="10" stroke-width=".504"/><path fill="none" stroke="#6b7191" stroke-linecap="round" stroke-linejoin="round" stroke-width="1.485" d="M214.29 36.06l2.6-2.69M205.58 33.56l3.06 2.95M214.21 41.9l3.05 2.95M205.95 44.69l2.6-2.69"/><path fill="none" stroke="#6b7191" stroke-linecap="round" stroke-linejoin="round" stroke-width="1.417" d="M17.39 119.26l4.24-.05M29.37 119.13l4.24-.05M25.47 126.24l-.04-3.42"/><circle cx="31.39" cy="4.24" r="3.5" fill="none" stroke="#6b7191" stroke-linecap="round" stroke-linejoin="round" stroke-width="1.485"/><path fill="none" stroke="#6b7191" stroke-linecap="round" stroke-linejoin="round" stroke-width="1.485" d="M25.31 114.93l-.04-3.75"/></g><g stroke-linecap="round" stroke-linejoin="round"><path fill="none" stroke="gray" stroke-width="3" d="M137.33 57.49l12.06-15.25M128.75 68.3l4.43-5.6M52.38 99.24l33.01-36 30 22L125 73.08"/><path d="M58.1 102.16c.43-5.06-2.33-9.51-7.39-9.93s-10.51 3.33-10.93 8.39a9.192 9.192 0 0 0 18.32 1.54z" fill="#dbe7fe" stroke="#6b7191" stroke-width="2.507"/><circle cx="85.39" cy="63.24" r="10.5" fill="#dbe7fe" stroke="#6b7191" stroke-width="2.864"/><path d="M167.62 22.91l-1.92 22.8a4.09 4.09 0 0 1-6.42 3L140.5 35.67a4.09 4.09 0 0 1 .6-7.07l20.71-9.74a4.09 4.09 0 0 1 5.81 4.05z" fill="#dbe7fe" stroke="#6b7191" stroke-width="2.537"/></g></g></svg>