<svg xmlns="http://www.w3.org/2000/svg" viewBox="0 0 234.55 154.83"><title>icon-reusework</title><g data-name="Layer 2"><g data-name="Layer 4" fill="#f8f9fd" stroke="#f8f9fd" stroke-miterlimit="10"><rect x="10.09" y="109.43" width="195.94" height="27.07" rx="13.47" ry="13.47" stroke-width=".77"/><rect x="21.64" y="67.43" width="173.29" height="27.07" rx="12.67" ry="12.67" stroke-width=".724"/><rect x=".39" y="24.5" width="195.94" height="27.07" rx="13.47" ry="13.47" stroke-width=".77"/><path d="M171.2 101.73a11.61 11.61 0 0 1 11.72-11.43H38.28A11.61 11.61 0 0 1 50 101.73a11.61 11.61 0 0 1-11.72 11.43h144.64a11.61 11.61 0 0 1-11.72-11.43z" stroke-width=".662"/><path d="M161.2 65.86c0-7.83 4.58-14.24 10.18-14.24H45.69c5.6 0 10.18 6.41 10.18 14.24S51.29 80.1 45.69 80.1h125.7c-5.61 0-10.19-6.41-10.19-14.24z" stroke-width=".688"/><rect x="197.57" y="67.2" width="36.82" height="27.07" rx="13.52" ry="13.52" stroke-width=".334"/><ellipse cx="187.02" cy="60.68" rx="4.99" ry="5.03" stroke-width=".504"/></g><path d="M166.48 12.95a27.59 27.59 0 0 1 .91 4.79" fill="none" stroke="#6b7191" stroke-miterlimit="10" stroke-width="3"/><path d="M167.4 25.81c-1.57 18.72-13.37 45.74-32.88 72.1-23.73 32.09-51.72 53.49-69.9 55.27" fill="none" stroke="#6b7191" stroke-miterlimit="10" stroke-width="3" stroke-dasharray="9.432077407836914,8.084638595581055"/><path d="M60.59 153.23a16.44 16.44 0 0 1-4.75-1.06M46 133.89a48.14 48.14 0 0 1 .17-4.87" fill="none" stroke="#6b7191" stroke-miterlimit="10" stroke-width="3"/><path d="M47.43 120.84c3.73-18 14.83-41.21 31.67-64C100.49 28 125.34 7.72 143.35 2.71" fill="none" stroke="#6b7191" stroke-miterlimit="10" stroke-width="3" stroke-dasharray="9.648886680603027,8.270474433898926"/><path d="M147.39 1.82a25.07 25.07 0 0 1 4.86-.3" fill="none" stroke="#6b7191" stroke-miterlimit="10" stroke-width="3"/><path d="M156.06 41.89v71.88a7.08 7.08 0 0 1-7.05 7.05H83.65a7.08 7.08 0 0 1-7.05-7.05V15a7.08 7.08 0 0 1 7.05-7.05h38.67a5.59 5.59 0 0 1 3.92 1.62l28 28a6 6 0 0 1 1.48 2.4L124 9.3V34a6 6 0 0 0 6 6h25.8a6.38 6.38 0 0 1 .26 1.89z" fill="#dbe7fe"/><path d="M155.75 40h-25.8a6 6 0 0 1-6-6V9.3L155.74 40z" fill="#ccdcff"/><path d="M155.74 40a6 6 0 0 0-1.48-2.4l-28-28a5.59 5.59 0 0 0-3.92-1.62H83.65A7.08 7.08 0 0 0 76.6 15v98.81a7.08 7.08 0 0 0 7.05 7.05H149a7.08 7.08 0 0 0 7.05-7.05V41.89a6.38 6.38 0 0 0-.31-1.92" fill="none" stroke="#6b7191" stroke-linecap="round" stroke-linejoin="round" stroke-width="3"/><path d="M155.75 40h-25.8a6 6 0 0 1-6-6V9.3" fill="none" stroke="#6b7191" stroke-linecap="round" stroke-linejoin="round" stroke-width="3"/><path d="M136.54 60v71.88a7.08 7.08 0 0 1-7.05 7.05H64.13a7.08 7.08 0 0 1-7.05-7.05v-98.8A7.08 7.08 0 0 1 64.13 26h38.67a5.55 5.55 0 0 1 2 .39l-.35 1v24.75a6 6 0 0 0 6 6h25.8a6.38 6.38 0 0 1 .29 1.86z" fill="#fff"/><path d="M136.23 58.09h-25.8a6 6 0 0 1-6-6V27.42l.35-1a5.41 5.41 0 0 1 1.9 1.23l28 28a6 6 0 0 1 1.55 2.44z" fill="#f8f9fd"/><path d="M104.83 26.42a5.55 5.55 0 0 0-2-.39h-38.7a7.08 7.08 0 0 0-7.05 7.05v98.81a7.08 7.08 0 0 0 7.05 7.05h65.35a7.08 7.08 0 0 0 7.05-7.05V60a6.38 6.38 0 0 0-.31-1.92 6 6 0 0 0-1.49-2.41l-28-28a5.41 5.41 0 0 0-1.9-1.25z" fill="none" stroke="#6b7191" stroke-linecap="round" stroke-linejoin="round" stroke-width="3"/><path d="M136.23 58.09h-25.8a6 6 0 0 1-6-6V27.42M72.42 65.06h25.09M73.81 77.61H98.9M109.71 88.76h10.1M73.81 88.76h29.62M73.81 101.31h46M73.81 113.85h46" fill="none" stroke="#6b7191" stroke-linecap="round" stroke-linejoin="round" stroke-width="3"/><path d="M47.89 140.2a32.49 32.49 0 0 0 4.56 10.89M45.77 144l1.92-5a14.35 14.35 0 0 0 5 2.24" fill="none" stroke="#ccdcff" stroke-linecap="round" stroke-linejoin="round" stroke-width="1.812" stroke-dasharray="9.758124351501465,8.364107131958008"/><path d="M162.57 8.11a26.35 26.35 0 0 0-7-6.55M162.88 4.6l.24 4.33a11.64 11.64 0 0 0-4.42 0" fill="none" stroke="#ccdcff" stroke-linecap="round" stroke-linejoin="round" stroke-width="1.47" stroke-dasharray="7.9139885902404785,6.783418655395508"/><path d="M94.72 154.83h44.61c2.51 0 2.51-3.9 0-3.9H94.72c-2.51 0-2.51 3.9 0 3.9z" fill="#6b7191"/></g></svg>