<svg xmlns="http://www.w3.org/2000/svg" viewBox="0 0 1920.6 1080"><title>l-background-6</title><path fill="#3b6ecc" d="M.6 0h1920v1080H.6z" data-name="Layer 1"/><path d="M.6 0v309.07c0 82 1.74 164.28-.6 246.28C67.94 496 132.07 431.24 208.74 383.72c111.06-68.83 250.06-85.58 363.8-11.27 53.42 34.9 96.52 86.32 155.61 110.43 69.79 28.48 135.66 7.35 199.64-24.37A4114.49 4114.49 0 0 0 1288 256.78c88.4-55.51 176.75-120 274.79-157.47 95.38-36.42 198.07-47.69 298.88-58.44 19.59-2.09 39.22-4.18 58.92-4.22V0H.6z" fill="#3b6ecc" data-name="Layer 2"/><path d="M614.6 1080c63.83-56.09 150.77-87.45 223.68-132.16a2089.88 2089.88 0 0 0 227.4-161.24c109.59-89.28 210.94-190.28 332.73-262 138.19-81.46 298.46-121.85 458.73-128.6 8.47-.36 63.46 0 63.46 0v684" fill="#3b6ecc" data-name="Layer 3"/><g data-name="Layer 4" fill="#fff"><path d="M1620.14 419.46l46.33-18.12-6.7-3.81L1670.6 446c.8 3.6 5 4.8 8 3.26l44.08-22.89-8-3.26 11.91 49c1.66 6.81 12.17 3.93 10.51-2.9l-11.91-49c-.87-3.57-5-4.82-8-3.26l-44.08 22.89 8 3.26-10.81-48.47c-.59-2.66-4.05-4.84-6.7-3.81L1617.24 409c-6.46 2.53-3.65 13.07 2.9 10.51zM232.69 216.19l14.83-47.48-8 3.26 44.59 21.87c2.92 1.43 7.27.43 8-3.26l9.71-48.7-8 3.26 45.67 21.34c6.32 3 11.86-6.44 5.5-9.41l-45.67-21.34c-2.94-1.37-7.26-.48-8 3.26l-9.72 48.69 8-3.26-44.59-21.87a5.54 5.54 0 0 0-8 3.26l-14.83 47.48c-2.1 6.71 8.42 9.58 10.51 2.9z"/><path d="M172.67 249.61l13-50.31-8 3.26 45.67 21.34c3.24 1.51 6.89.33 8-3.26l1.39-4.44c2.1-6.71-8.42-9.58-10.51-2.9l-1.39 4.44 8-3.26-45.67-21.34c-3.09-1.45-7.06-.4-8 3.26l-13 50.31c-1.75 6.8 8.76 9.7 10.51 2.9z"/></g></svg>