<svg xmlns="http://www.w3.org/2000/svg" viewBox="0 0 1920.6 1080"><title>l-background</title><path fill="#fca592" d="M.6 0h1920v1080H.6z" data-name="Layer 1"/><path d="M.6 0v309.07c0 82 1.74 164.28-.6 246.28C67.94 496 132.07 431.24 208.74 383.72c111.06-68.83 250.06-85.58 363.8-11.27 53.42 34.9 96.52 86.32 155.61 110.43 69.79 28.48 135.66 7.35 199.64-24.37A4114.49 4114.49 0 0 0 1288 256.78c88.4-55.51 176.75-120 274.79-157.47 95.38-36.42 198.07-47.69 298.88-58.44 19.59-2.09 39.22-4.18 58.92-4.22V0H.6z" fill="#fcaa95" data-name="Layer 2"/><path d="M614.6 1080c63.83-56.09 150.77-87.45 223.68-132.16a2089.88 2089.88 0 0 0 227.4-161.24c109.59-89.28 210.94-190.28 332.73-262 138.19-81.46 298.46-121.85 458.73-128.6 8.47-.36 63.46 0 63.46 0v684" fill="#fc9f8b" data-name="Layer 3"/></svg>