<svg xmlns="http://www.w3.org/2000/svg" viewBox="0 0 404.6 607.11"><title>letters</title><path d="M227.15 218.73a18.16 18.16 0 0 1-9.86-23.72l19.56-47v-.15l56.7-136.77a10.89 10.89 0 0 1 .77-1.54l.31-.77a9.73 9.73 0 0 1 .62-.77 2.27 2.27 0 0 1 .46-.77l.62-.62c0-.1.15-.31.46-.62s.62-.67.62-.77a4.83 4.83 0 0 1 .62-.46c.41-.41.67-.62.77-.62-.1 0 .1-.15.62-.46a9.73 9.73 0 0 0 .77-.62l.62-.46a3.38 3.38 0 0 1 .92-.46c.21-.1.56-.25 1.08-.46s.67-.41.46-.31l.62-.31a4.7 4.7 0 0 0 1.08-.31 6.27 6.27 0 0 0 1.08-.31l.62-.15a6.52 6.52 0 0 0 1.08-.15l.77-.15h3.54l.92.15.77.15a3.55 3.55 0 0 1 1.08.31q.92.15.62.15a12.38 12.38 0 0 1 3.39 1.39c-.1-.1.1 0 .62.31a6.76 6.76 0 0 1 .92.62l.62.46c.41.31.67.52.77.62s.31.15.62.46a3.21 3.21 0 0 0 .77.62q0 .15.46.62c.41.41.62.67.62.77l.46.62c.41.41.62.67.62.77a2.23 2.23 0 0 0 .46.77 2.27 2.27 0 0 1 .46.77 11.12 11.12 0 0 1 .77 1.54l56.68 136.78v.12l19.56 47a18.19 18.19 0 0 1-16.79 25.11q-12.17 0-16.79-11.24l-14.79-35.74H265.7l-14.79 35.74q-4.62 11.24-16.79 11.24h-3.57zm112.75-81.79l-29.73-71.47-29.57 71.47zM10.8 365.11A10.94 10.94 0 0 1 0 354.31V245a10.53 10.53 0 0 1 3.11-7.59 10.88 10.88 0 0 1 7.59-3.2l38.43-.18q17.2 0 29.1 11a35.32 35.32 0 0 1 11.8 26.9q0 15.37-11.25 26.62 13.54 11.16 13.54 28.27 0 15.83-12.08 27.08a40.73 40.73 0 0 1-28.91 11.25zM21.55 289h27.63a19.94 19.94 0 0 0 13.54-5 15.78 15.78 0 0 0 5.67-12.08 14.46 14.46 0 0 0-5.58-11.53 20.31 20.31 0 0 0-13.63-4.76l-27.63.18zm0 54.53h29.74a20.18 20.18 0 0 0 13.72-4.94 15 15 0 0 0 5.67-11.8 14.38 14.38 0 0 0-5.58-11.44 20.31 20.31 0 0 0-13.55-4.77h-30zM209.31 607.11a59 59 0 0 1-41.76-100.75Q184.93 489 209.31 489a57.7 57.7 0 0 1 36 12.23 9.72 9.72 0 0 1 3.72 6.45 9.59 9.59 0 0 1-2 7.27 9.31 9.31 0 0 1-6.45 3.72 9.77 9.77 0 0 1-7.27-1.9 39.43 39.43 0 1 0 2.56 60.5 9.45 9.45 0 0 1 7-2.56 9.26 9.26 0 0 1 6.78 3.22 9.79 9.79 0 0 1-.58 13.8 57.37 57.37 0 0 1-39.76 15.38z" fill="#fff"/></svg>