<svg data-name="Layer 2" xmlns="http://www.w3.org/2000/svg" viewBox="0 0 453 448.84"><title>mixed-jumbo-shape-circle</title><circle cx="250" cy="245.84" r="203" fill="#fcaa95"/><path d="M424 211.84c-.15-43.91-13.73-87.47-39.47-123.16a215 215 0 0 0-100.42-76.23c-82.8-30.28-179.2-4-235.23 64a211.92 211.92 0 0 0 75.3 328.39 214.83 214.83 0 0 0 130.12 14.8c85.43-17 154.11-88.66 167.1-174.87a225.66 225.66 0 0 0 2.6-32.93c0-11.58-18-11.6-18 0A194 194 0 0 1 61.62 334.48C9.94 271.75 4.13 180.12 46.29 110.91c42-69 125.29-105.59 204.56-89.2 78.9 16.31 140.45 81.14 153 160.68a193.57 193.57 0 0 1 2.15 29.45c0 11.58 18 11.6 18 0z" fill="#404040"/></svg>