<svg data-name="Layer 1" xmlns="http://www.w3.org/2000/svg" viewBox="0 0 461 434.98"><title>mixed-jumbo-shape-altie</title><path fill="#edf6fe" d="M335.77 29.07L46.85 340.48 461 434.98 335.77 29.07z"/><path d="M271.82 2.81l-26.8 28.89-64.37 69.38-77.85 83.91-67 72.25c-10.92 11.77-22.21 23.3-32.81 35.37l-.47.51c-4.4 4.74-2.9 13.47 4 15l38.3 8.74 92 21 111.87 25.53 96.32 22c15.61 3.56 31.19 7.56 46.89 10.7l.68.15c6.44 1.47 13.18-4.23 11.07-11.07l-11.63-37.52-27.82-90.19-33.83-109.65-29.13-94.4c-4.72-15.3-9-30.81-14.18-46-.07-.22-.14-.44-.2-.66-3.4-11-20.79-6.33-17.36 4.79l11.59 37.54 27.82 90.19 33.83 109.65 29.13 94.4 9.61 31.14c1.5 4.86 2.62 10.12 4.57 14.82.09.21.14.45.2.66l11.07-11.04-38.3-8.74-92-21-111.89-25.52-96.32-22-31.77-7.25c-5-1.13-10.07-2.8-15.12-3.45-.23 0-.45-.1-.68-.15l4 15 26.8-28.89 64.36-69.37 77.85-83.91 67-72.25c10.92-11.77 22.21-23.3 32.81-35.37l.47-.51c7.89-8.41-4.81-21.19-12.71-12.68z" fill="#404040"/></svg>