<svg data-name="Layer 1" xmlns="http://www.w3.org/2000/svg" viewBox="0 0 216.5 139.77"><title>mixed-jumbo-shape</title><rect y="29.26" width="216.5" height="96.68" rx=".83" ry=".83" fill="#77f2bf"/><path d="M22 94.12a58.78 58.78 0 0 0 9.82 27c11.7 16.72 30.34 20.92 49.74 17.64 9.66-1.63 19.16-5.74 26.23-12.65 8-7.8 10-17.42 13.16-27.62 2.27-7.31 5.7-15.23 12.14-19.79 6.86-4.86 16.6-5 24.38-2.55a15.29 15.29 0 0 1 7.64 5.07c-1-1.16 1.2 1.95 1.58 2.6.21.37 1.06 2.55.26.43.24.63.46 1.26.66 1.9a38.29 38.29 0 0 1 .94 4.13c-.55-2.92 0 .17 0 1a21.26 21.26 0 0 1 0 2.87c-.46 4.85 4.47 9 9 9 5.25 0 8.54-4.14 9-9 .88-9.3-2.94-19.49-9.21-26.25-13-14-39.16-14.81-54.26-4.06-8.33 5.93-13.56 14.42-17.3 23.78-3.26 8.17-3.59 18.32-9.86 24.93-10.32 10.9-32.83 13.19-44.13 4.19-3.8-3-7.9-10-9.38-14.1a56.33 56.33 0 0 1-2.12-7.51c-.3-1.45-.69-5-.25-1-.53-4.83-3.75-9-9-9-4.45 0-9.54 4.14-9 9z"/><path d="M22 45.37a58.62 58.62 0 0 0 9.54 26.51 43.73 43.73 0 0 0 47.92 17.5c9.92-2.75 17.87-9.29 23.62-17.68s7.92-17.88 10.6-27.43c2.18-7.74 5.34-16.2 11.81-21.42s15.9-5.55 23.79-3.87a26.87 26.87 0 0 1 11.57 5c-.32-.24-1-.89.24.25.82.73 1.57 1.52 2.34 2.3.35.36.68.78 1 1.17-1.33-1.65.45.74.66 1.09.66 1.06 1.19 2.16 1.75 3.27-1.25-2.52.09.32.31 1a17.57 17.57 0 0 1 .66 2.75c.65 4.82 6.83 7.45 11.07 6.29 5.2-1.43 6.94-6.23 6.29-11.07-1.27-9.36-8.42-18.07-16-23.17-16.12-10.86-41-10.76-56 1.87-7.17 6.13-11.7 14.8-14.87 23.57s-4.16 18-8.79 26.15c-3.87 6.78-9.74 12-17.67 13.25a28.74 28.74 0 0 1-11.49-.64 18.07 18.07 0 0 1-4.76-1.8 24.53 24.53 0 0 1-3.81-2.47 24.28 24.28 0 0 1-6.11-7.21 43.77 43.77 0 0 1-2.37-4.42c-1.15-2.37.59 1.63-.33-.73-.27-.69-.53-1.38-.77-2.08a56 56 0 0 1-1.93-6.94c-.31-1.48-.7-5-.26-1-.53-4.83-3.75-9-9-9-4.45 0-9.54 4.14-9 9z"/></svg>