<svg xmlns="http://www.w3.org/2000/svg" viewBox="0 0 600 202"><title>modal-bg</title><path fill="#fafafa" d="M0 0h600v202H0z" data-name="Layer 2"/><g data-name="Layer 1" stroke="#ededed" stroke-linecap="round" stroke-linejoin="round" stroke-width="3"><circle cx="89.5" cy="133.5" r="9" fill="none"/><path fill="none" d="M397.5 39.5l1.7 9.06-7 6-8.7-3.06-1.7-9.06 7-6 8.7 3.06zM476 142.68l-15 25.98h30l-15-25.98zM86 75l19-22M260 162l21 18M491 29l8 5"/><path fill="#ededed" d="M173.98 14.44l6.579 4.551-4.552 6.58-6.579-4.553zM550.977 137.438l6.579 4.552-4.552 6.579-6.579-4.552zM28.982 174.43l6.578 4.552-4.552 6.58-6.578-4.553z"/><circle cx="309.5" cy="140.5" r="9" fill="none"/><circle cx="555" cy="73" r="9" fill="none"/><path fill="none" d="M212.5 92.5l1.7 9.06-7 6-8.7-3.06-1.7-9.06 7-6 8.7 3.06z"/></g></svg>