<svg data-name="Layer 1" xmlns="http://www.w3.org/2000/svg" viewBox="0 0 293.5 250.5"><title>proud</title><path fill="#edf6fe" stroke="#edf6fe" stroke-miterlimit="10" stroke-width=".877" d="M15 75.05h222v130H15z"/><path d="M202.5 152.55a11 11 0 0 1 22 0c0 6.08-4.92 13-11 13s-11-6.92-11-13z" fill="#fff"/><path d="M205.5 152.55c.65-11.3 17.76-9.53 15.85 1.66-.62 3.65-3.73 8.34-7.85 8.34-4.87 0-7.78-5.83-8-10-.2-3.84-6.2-3.87-6 0 .39 7.32 5.37 15.52 13.4 16 7.87.42 14-7.42 14.53-14.73a14.14 14.14 0 0 0-12.65-15.15c-8.41-.73-14.82 5.82-15.28 13.93-.22 3.81 5.78 3.79 6-.05z" fill="#404040"/><path d="M205.5 154.26a7.22 7.22 0 0 1 7.79-1.37c1.79.71 2.57-2.19.8-2.89a10.17 10.17 0 0 0-10.71 2.14c-1.41 1.32.71 3.44 2.12 2.12z" fill="#404040"/><path d="M113.5 152.55a11 11 0 0 0-22 0c0 6.08 4.92 13 11 13s11-6.92 11-13z" fill="#fff"/><path d="M116.5 152.55c-.45-7.83-6.47-14.36-14.64-14a14.14 14.14 0 0 0-13.29 15.19c.54 7.11 6.32 14.81 13.93 14.81 8.32 0 13.61-8.53 14-16 .2-3.86-5.8-3.85-6 0-.21 4.06-2.76 9.24-7.22 9.88s-8-4.28-8.63-8.22c-1.91-11.17 15.2-13 15.85-1.66.22 3.84 6.22 3.86 6 0z" fill="#404040"/><path d="M112.58 152.14a10.18 10.18 0 0 0-10.71-2.14c-1.77.7-1 3.61.8 2.89a7.22 7.22 0 0 1 7.79 1.37c1.41 1.32 3.53-.8 2.12-2.12z" fill="#404040"/><path d="M162.16 51.36a292.92 292.92 0 0 1-51.32-4.57 25.56 25.56 0 0 0 8.18 24 11.14 11.14 0 0 0-9.8 18.74c-6.1-1.64-13.06 3.35-13.46 9.65-.23 3.51 1.27 6.88 2.74 10.09.83 1.8 2.7 5.78 4.44 9.52 1.62 3.49 3.11 6.78 3.5 7.9 1.31 3.78.42 6.7.13 10.55-.58 7.54-.07 15.29-.07 22.86a47.55 47.55 0 0 0 47.41 47.45h8.21a44.51 44.51 0 0 0 44.38-44.38c0-8.86-.7-18 0-26.83 1.28-16.15 6.32-32.84 9.43-48.77.73-3.72 1.38-7.86-.67-11.05-4.31-6.71-15.83-3.2-21.58-8.71-3.19-3.05-3.67-8.05-6.45-11.48-4.15-5.11-11.77-5.19-18.35-5q-3.38.03-6.72.03z" fill="#fff"/><path d="M194.68 70.8c-3.19-3.05-3.67-8.05-6.45-11.48-4.15-5.11-11.77-5.19-18.35-5q-3.36.07-6.72.07a293 293 0 0 1-46.85-3.84q-2.5 1.2-4.91 2.57a25.65 25.65 0 0 0 8.63 20.73 11.14 11.14 0 0 0-9.8 18.74c-6.1-1.64-13.06 3.35-13.46 9.65-.23 3.51 1.27 6.88 2.74 10.09.83 1.8 2.7 5.78 4.44 9.52 1.55 3.33 3 6.46 3.43 7.71-1.09-3 4-11.56 5.19-14.16a104.85 104.85 0 0 1 8.46-14.85 21.3 21.3 0 0 1 5.47-6c3.18-2.11 7.14-2.56 10.94-2.94l11.77-1.2a7.8 7.8 0 0 1-3.89 3.54c11.8-.89 23.87-5.52 35.13-1.87 5 1.61 9.28 4.72 13.5 7.77a31.21 31.21 0 0 1 6.49 5.69c1.36 1.73 5.88 18 6.06 18 1.09 0 2.18 0 3.25-.11 2.11-11 5.08-22.13 7.18-32.87 1.35-6.9 3.42-4.68-.67-11.05-4.3-6.7-15.82-3.19-21.58-8.71z" fill="#edf6fe" stroke="#edf6fe" stroke-miterlimit="10"/><path d="M138.92 48.3q-13.22-1.15-26.28-3.44c-1.49-.26-3.43.38-3.73 2.12a29.21 29.21 0 0 0 9 27l2.14-5.17c-13.49-1.27-20.32 14-11.94 23.92l2.95-5.07c-7.92-1.55-16.32 3.57-17.21 12-1.17 11 9.23 20.15 11.14 30.5.49 2.68-.2 5.5-.41 8.17-.28 3.48-.3 7-.26 10.46.06 6.28-.17 12.73.65 19a51.38 51.38 0 0 0 13.9 28.6c2.68 2.84 7-1.45 4.29-4.29a45.25 45.25 0 0 1-12.15-24.72 133.1 133.1 0 0 1-.21-30.61c.37-3.67.62-7-.67-10.49-1.39-3.79-3.31-7.44-5-11.1-2-4.21-5-8.84-5.18-13.54a8 8 0 0 1 9.54-8.06 3.06 3.06 0 0 0 2.95-5.07c-5.36-6.34 0-14.29 7.65-13.57 2.62.25 4-3.48 2.14-5.17a23 23 0 0 1-7.4-21.1l-3.73 2.12q13.87 2.43 27.89 3.66c3.89.34 3.86-5.72 0-6.06z" fill="#404040"/><path d="M144.5 48.71q-2.78-.18-5.55-.41a3.06 3.06 0 0 0-3 3 3.09 3.09 0 0 0 3 3q2.77.23 5.55.41a3.03 3.03 0 0 0 0-6.06zM152.97 55.2c3.9 0 3.91-6.06 0-6.06s-3.91 6.06 0 6.06z" fill="#404040"/><path d="M152.97 55.2c3.9 0 3.91-6.06 0-6.06s-3.91 6.06 0 6.06zM215.34 112.14c1.13-5.21 2.15-10.44 3.15-15.68.93-4.9 2.61-10.2 2.05-15.22-.91-8.28-7.83-10.48-15-11.65-4.59-.75-8.4-1.42-10.75-5.89-2-3.78-3-7.62-6.43-10.42-6.84-5.52-17.1-4-25.23-4-3.9 0-3.91 6.07 0 6.06 7 0 18.63-2.21 23.3 4.66 3.87 5.7 4.21 11.5 11.45 14.06 6.17 2.18 16.81.34 16.67 9.56-.06 4.23-1.47 8.75-2.26 12.88-.89 4.67-1.82 9.34-2.83 14-.83 3.8 5 5.43 5.84 1.61zM210.26 121.85c3.9 0 3.91-6.06 0-6.06s-3.91 6.06 0 6.06z" fill="#404040"/><path d="M129.5 204.65c18.82 10.65 46.71 10.06 63.73-3.92a47.6 47.6 0 0 0 16.84-30.18c1.06-7.8.16-15.79.14-23.63a138 138 0 0 1 3-27.26c.76-3.81-5.08-5.44-5.84-1.61a156 156 0 0 0-3 21.22c-.45 7.68.07 15.35.12 23 .07 12-3.93 23.13-12.61 31.56-14.89 14.46-41.73 15.55-59.33 5.59-3.4-1.92-6.46 3.31-3.06 5.23z" fill="#404040"/><circle cx="135" cy="142.05" r="18" fill="#fff"/><path d="M155.13 142.05c-.4-10.94-8.88-20.13-20.13-20.13a20.13 20.13 0 0 0 0 40.26c11.25 0 19.73-9.16 20.13-20.13.1-2.74-4.16-2.74-4.26 0-.32 8.65-7 15.87-15.87 15.87a15.87 15.87 0 0 1 0-31.74c8.9 0 15.55 7.22 15.87 15.87.1 2.74 4.36 2.75 4.26 0z" fill="#404040"/><path d="M154.8 143.45c3.45-1.62 7-.73 10.35.79 2.42 1.11 4.54-2.48 2.1-3.6-4.81-2.21-9.61-3.11-14.56-.79-2.42 1.14-.31 4.73 2.1 3.6z" fill="#404040"/><circle cx="182" cy="142.05" r="18" fill="#fff"/><path d="M202.13 142.05c-.4-10.94-8.88-20.13-20.13-20.13a20.13 20.13 0 0 0 0 40.26c11.25 0 19.73-9.16 20.13-20.13.1-2.74-4.16-2.74-4.26 0-.32 8.65-7 15.87-15.87 15.87a15.87 15.87 0 0 1 0-31.74c8.9 0 15.55 7.22 15.87 15.87.1 2.74 4.36 2.75 4.26 0zM169.28 191.22a29.43 29.43 0 0 0 10.22-12.57c.74-1.76-1.84-3.29-2.59-1.51a26.69 26.69 0 0 1-9.12 11.49c-1.56 1.11-.06 3.71 1.51 2.59z" fill="#404040"/><path d="M137.1 138.66c-1.07 1.64-2.29 3.53-2.93 4.6a1.62 1.62 0 0 1-.32.78c-.25.25-.08-.1.32-.78a21.31 21.31 0 0 0 0-5.12 4 4 0 1 0 3 .52zM184.1 138.66c-1.07 1.64-2.29 3.53-2.93 4.6a1.62 1.62 0 0 1-.32.78c-.25.25-.08-.1.32-.78a21.31 21.31 0 0 0 0-5.12 4 4 0 1 0 3 .52z" fill="#404040" stroke="#404040" stroke-miterlimit="10"/><text transform="translate(59.5 141.88)" font-size="14" fill="#fbb1aa" stroke="#fbb1aa" stroke-miterlimit="10" font-family="Moon-Bold,Moon" font-weight="700">a</text><text transform="translate(233.5 183.88)" font-size="14" fill="#fbb1aa" stroke="#fbb1aa" stroke-miterlimit="10" font-family="Moon-Bold,Moon" font-weight="700">B</text><text transform="translate(232.5 99.88)" font-size="18" fill="#fbb1aa" stroke="#fbb1aa" stroke-miterlimit="10" font-family="Moon-Bold,Moon" font-weight="700">C</text><path fill="none" d="M289.52 0v8.5M285 3.98h8.5M4.52 242v8.5M0 245.98h8.5"/></svg>