<svg data-name="Layer 1" xmlns="http://www.w3.org/2000/svg" viewBox="0 0 498.01 627.78"><title>shapes</title><path d="M498.01 131.43A133.08 133.08 0 0 0 411.45 7.85c-51-19-111.27-2.69-145.84 39.31-35.16 42.72-40.6 104.29-11.86 152 28.6 47.44 84.73 71.77 138.94 61.18 52.48-10.25 95.32-54.5 103.51-107.4a145.36 145.36 0 0 0 1.81-21.51c.08-13.52-20.92-13.53-21 0-.26 45.4-28.83 87.87-71.77 103.56a111.9 111.9 0 0 1-124.36-33.64c-29.47-35.42-32.71-87.69-9-127s70.92-60.47 115.89-51.42a109.83 109.83 0 0 1 89.24 108.5c.08 13.5 21.08 13.5 21 0zM87.83 230.25l29.38 50.89 46.56 80.65 10.77 18.66 7.29-12.7H8.41l7.29 12.7 29.38-50.89 46.56-80.63 10.77-18.66c5.44-9.43-9.14-17.94-14.58-8.52l-29.38 50.89-46.56 80.65-10.77 18.64a8.52 8.52 0 0 0 7.29 12.7h173.43a8.52 8.52 0 0 0 7.29-12.7l-29.38-50.9-46.56-80.65-10.78-18.65c-5.4-9.41-20.02-.92-14.58 8.52zM332.01 558.93a70 70 0 0 0-45.59-64.88c-26.52-9.87-58.13-1.38-76.13 20.44-18.5 22.42-21.63 54.69-6.52 79.83s44.44 37.63 73 32.21c32-6.07 54.87-35.5 55.25-67.6.16-13.52-20.84-13.53-21 0-.23 19.66-12.53 38.6-31.42 45.09-19.64 6.75-41.41 1-54.45-15.49-12.32-15.62-13.36-38-2.9-54.95 10.32-16.75 31-25.85 50.27-21.73a48.56 48.56 0 0 1 38.49 47.08c.16 13.5 21.16 13.54 21 0z" fill="#fff"/></svg>