<svg data-name="Layer 1" xmlns="http://www.w3.org/2000/svg" viewBox="0 0 260.02 41.94"><title>sidemenu-auth-bg</title><path d="M243.28 3a2 2 0 0 1 .81.17l10.52 4.66a2 2 0 0 1 1.17 1.61l1.22 11.5a2 2 0 0 1-.81 1.82l-9.3 6.78a2 2 0 0 1-2 .21l-10.5-4.71a2 2 0 0 1-1.17-1.61L232 11.94a2 2 0 0 1 .81-1.82l9.3-6.78a2 2 0 0 1 1.17-.38m0-3a5 5 0 0 0-2.94 1L231 7.74a5 5 0 0 0-2 4.56l1.22 11.45a5 5 0 0 0 2.94 4l10.52 4.66a5 5 0 0 0 5-.53l9.32-6.74a5 5 0 0 0 2-4.56l-1.22-11.45a5 5 0 0 0-2.94-4L245.3.43a5 5 0 0 0-2-.43z" fill="#fff0db"/><path d="M7 30.94a4 4 0 1 1-4 4 4 4 0 0 1 4-4m0-3a7 7 0 1 0 7 7 7 7 0 0 0-7-7z" fill="#dbe7fe"/></svg>