<svg xmlns="http://www.w3.org/2000/svg" viewBox="0 0 1920 1080"><title>user-signup-bg</title><g data-name="Layer 1"><path fill="#fce289" d="M0 0h1920v827H0z"/><path fill="#3b6ecc" d="M0 827h1920v253H0z"/><circle cx="167" cy="827" r="76" fill="#e37774"/></g><path fill="#f4f4f2" d="M1814.81 463.6l-47.83-.62-1.25-.42-180.13-90.27 180.13-89.83.63-.24 48.45-.62v182z"/><path d="M1795.45 463.92c-1.59-5.56 2.11-11.19 6.09-15.35s8.71-8.24 9.87-13.9c1.38-6.74-2.74-13.27-6.73-18.86s-8.24-12-7.13-18.77c.93-5.68 5.36-10 9.23-14.24s7.57-9.62 6.55-15.28c-1.68-9.24-14.52-12.77-16.72-21.89-1.63-6.78 3.34-13.2 8-18.35s9.72-11.47 8.27-18.28c-1.06-5-5.28-8.49-8.87-12.06s-10.2-10-9.24-14.91H1920V464h-124.58z" fill="#e37774"/><path fill="#3b6ecc" d="M1684.98 421.98l-99.38-49.69 99.38-49.7v99.39z"/><circle cx="167" cy="826" r="44" fill="#f4f4f2"/></svg>