<svg xmlns="http://www.w3.org/2000/svg" viewBox="0 0 488.31 329.18"><title>achievement</title><g id="Layer_4" data-name="Layer 4"><rect y="51.38" width="455" height="260" style="fill:#7dfdbd;opacity:0.18"/><path d="M120.31,108.38c-.39-7.21-5.78-13.31-13.31-13.31a13.3,13.3,0,0,0-.54,26.59c7.74.31,13.45-5.84,13.85-13.28.23-4.25-6.39-4.24-6.62,0-.46,8.58-13.38,8.65-13.38,0s12.92-8.58,13.38,0C113.92,112.61,120.54,112.64,120.31,108.38Z" transform="translate(0 0)" style="fill:#404040"/><path d="M488.31,32.38c-.39-7.21-5.78-13.31-13.31-13.31a13.3,13.3,0,0,0-.54,26.59c7.74.31,13.45-5.84,13.85-13.28.23-4.25-6.39-4.24-6.62,0-.46,8.58-13.38,8.65-13.38,0s12.92-8.58,13.38,0C481.92,36.61,488.54,36.64,488.31,32.38Z" transform="translate(0 0)" style="fill:#404040"/><path d="M436.81,311.38c-.46-9.66-7.78-17.81-17.81-17.81a17.81,17.81,0,1,0,0,35.62c10,0,17.35-8.14,17.81-17.81.2-4.26-6.41-4.25-6.62,0-.68,14.32-22.35,14.48-22.38,0s21.7-14.34,22.38,0C430.39,315.61,437,315.64,436.81,311.38Z" transform="translate(0 0)" style="fill:#404040"/></g><g id="Layer_1" data-name="Layer 1"><path d="M375.28,226.75l3.58-.46a2.59,2.59,0,0,0,2.52-2.52c-.05-1.22-1.12-2.7-2.52-2.52l-3.58.46a2.59,2.59,0,0,0-2.52,2.52c.05,1.22,1.12,2.7,2.52,2.52Z" transform="translate(0 0)" style="fill:#fff"/><path d="M316,77.18l29.89,60.56a12.21,12.21,0,0,0,9.2,6.68l64.89,9.71A12.21,12.21,0,0,1,426.7,175a430.37,430.37,0,0,0-30.34,33c-8,9.56-20.48,20.43-17.77,34.16,3.2,16.18,6.81,32.34,9.6,48.6a12.21,12.21,0,0,1-17.72,12.88l-59.78-32.4a12.21,12.21,0,0,0-11.37,0l-61.73,32.4a12.21,12.21,0,0,1-17.72-12.88l11.42-57.79a12.21,12.21,0,0,0-3.51-10.81L179.41,175a12.21,12.21,0,0,1,6.77-20.83L253,144.43a12.21,12.21,0,0,0,9.2-6.68L294,77.18A12.21,12.21,0,0,1,316,77.18Z" transform="translate(0 0)" style="fill:#feee24"/><path d="M206,168.88l27.5-3.5c5.67-.72,5.74-9.73,0-9l-27.5,3.5c-5.67.72-5.74,9.73,0,9Z" transform="translate(0 0)" style="fill:#fff"/><path d="M379,299.38c-11.49.41-16.2-.26-16.22-.26,1.59.23,5-8.69,5.36-10.08,2.34-8.84,0-18.05-1.23-26.86l-4.43-31.12c-.79-5.55-1.57-11.28-.14-16.7,2-7.46,7.83-13.23,14-17.87,17.43-13.1,32.58-28.36,49.24-42.4,0,0-1.58.24-2.58,14.29-10.4,9.8-21.23,19.48-31.63,29.29-4.77,4.5-9.59,9.06-13.05,14.63-4.7,7.57-6.6,16.64-6.56,25.56s1.94,17.72,4.38,26.29c3.29,11.56,7.57,23.94,3.51,35.25" transform="translate(0 0)" style="fill:#ffc600"/><path d="M322.9,273.74l-10.25-5.56c-3.76-2-7.67-4.73-12-5.4-6.9-1.08-13.28,3.47-19.12,6.53l-51.15,26.85c-2.33,1.22-4.56,2.59-7.31,2.54-6-.11-9.58-5.69-8.77-11.22,1.13-7.72,3-15.41,4.56-23.07l5.87-29.73c1.48-7.48,2.31-14.15-3.59-20.31-12.26-12.79-25.44-24.8-38.13-37.17-4-3.89-10.07-8.09-12.87-13.06-3.42-6.09.94-12.53,7.23-13.7,2-.37,4-.58,6-.86L241,141.22c7-1,12.75-2.72,16.52-9.49,3.33-6,6.39-12.16,9.58-18.23,7.67-14.59,14.64-29.9,23.16-44,4-6.65,12.78-6,16.46.55,1.13,2,2.06,4.18,3.09,6.26l13.62,27.6,3.1,6.27c1.88,3.82,7.59.47,5.71-3.34l-10.56-21.4c-3.39-6.87-6.18-15.43-11-21.47-7.49-9.35-21.15-6.72-26.61,3.13-3.55,6.4-6.82,13-10.23,19.46l-15.66,29.78c-2.83,5.38-6.22,15.7-12.67,17.53-5.88,1.67-12.5,1.89-18.53,2.77l-33.29,4.84c-6.17.9-12.57,1.39-18.67,2.74-12.57,2.78-16.19,17.92-7.68,26.9,12.52,13.2,26.15,25.49,39.18,38.19,4.57,4.46,13.79,10.72,13,17.93-.7,6.82-2.72,13.75-4,20.47l-6.21,31.45c-1.62,8.21-3.42,16.61,4.26,22.71s15.19,2.69,22.52-1.16l26.47-13.89L289,272.9c1.71-.9,3.41-1.93,5.17-2.72,5.58-2.48,10.06.93,14.77,3.48l10.66,5.78c3.74,2,7.09-3.68,3.34-5.71Z" transform="translate(0 0)" style="fill:#404040"/><path d="M332.64,286.08c4.26,0,4.26-6.62,0-6.62s-4.26,6.62,0,6.62Z" transform="translate(0 0)" style="fill:#1c4f82"/><path d="M342,284.09l-7.69-4.17c-3.74-2-7.09,3.68-3.34,5.71l7.69,4.17c3.74,2,7.09-3.68,3.34-5.71Z" transform="translate(0 0)" style="fill:#404040"/><path d="M353.63,297.46c4.26,0,4.26-6.62,0-6.62s-4.26,6.62,0,6.62Z" transform="translate(0 0)" style="fill:#1c4f82"/><path d="M337.34,132.14c4.62,8.2,12.68,8.56,20.89,9.79l33.06,4.95c7.85,1.18,15.79,2.1,23.61,3.53,5.68,1,10.19,5.89,8.3,12-.85,2.72-3.1,4.61-5,6.59l-42,42.68c-5.36,5.45-8.61,10.89-7.1,18.94,1.73,9.19,3.62,18.35,5.44,27.52,1.93,9.75,4.36,19.55,5.8,29.38,1.13,7.71-5.94,13.32-13.17,10.21-4.06-1.75-7.92-4.29-11.81-6.4S348.22,295,352,297c9.08,4.92,19.68,12.8,29.48,4.58,8-6.69,5.21-15.92,3.5-24.56l-6.86-34.75c-1.41-7.11-5.55-17.07,0-23.16,13.3-14.62,27.83-28.27,41.7-42.35,5.87-6,12.49-11.91,9.86-21.32-2.74-9.8-11.51-11.19-20-12.46l-38.86-5.82L355,134.8c-4.84-.72-9.18-1.12-11.94-6-2.09-3.71-7.81-.38-5.71,3.34Z" transform="translate(0 0)" style="fill:#404040"/><path d="M340.19,133.78c4.26,0,4.26-6.62,0-6.62s-4.26,6.62,0,6.62Z" transform="translate(0 0)" style="fill:#404040"/><path d="M329.35,111.81c4.26,0,4.26-6.62,0-6.62s-4.26,6.62,0,6.62Z" transform="translate(0 0)" style="fill:#404040"/><path d="M275.37,149.26l13-26.11c2.58-5.17-5.18-9.73-7.77-4.54l-13,26.11c-2.58,5.17,5.18,9.73,7.77,4.54Z" transform="translate(0 0)" style="fill:#fff"/><path d="M295.37,109.26l6-12.11c2.57-5.17-5.19-9.74-7.77-4.54l-6,12.11c-2.57,5.17,5.19,9.74,7.77,4.54Z" transform="translate(0 0)" style="fill:#fff"/></g><g id="sparkles"><path d="M345.59,78.89l21-44c1.65-3.47-3.52-6.52-5.18-3l-21,44c-1.65,3.47,3.52,6.52,5.18,3Z" transform="translate(0 0)" style="fill:#404040"/><path d="M409.94,33.87l7.68-10.54c2.28-3.13-2.93-6.12-5.18-3l-7.68,10.54c-2.28,3.13,2.93,6.12,5.18,3Z" transform="translate(0 0)" style="fill:#404040"/><path d="M407.35,35.36c3.86,0,3.87-6,0-6s-3.87,6,0,6Z" transform="translate(0 0)" style="fill:#404040"/><path d="M360.59,100.89l40.5-55c2.29-3.11-2.91-6.11-5.18-3l-40.5,55c-2.29,3.11,2.91,6.11,5.18,3Z" transform="translate(0 0)" style="fill:#404040"/><path d="M440.23,87.47,467.51,73c3.41-1.81.38-7-3-5.18L437.2,82.29c-3.41,1.81-.38,7,3,5.18Z" transform="translate(0 0)" style="fill:#404040"/><path d="M380.51,120l51.71-27.49c3.41-1.81.38-7-3-5.18l-51.71,27.49c-3.41,1.81-.38,7,3,5.18Z" transform="translate(0 0)" style="fill:#404040"/><path d="M430.71,213,446,214.38c3.84.36,3.82-5.65,0-6L430.71,207c-3.84-.36-3.82,5.65,0,6Z" transform="translate(0 0)" style="fill:#404040"/><path d="M415.42,211.54,430.71,213c3.84.36,3.82-5.65,0-6l-15.29-1.42c-3.84-.36-3.82,5.65,0,6Z" transform="translate(0 0)" style="fill:#404040"/><path d="M450.3,245.66l16.9,4.61c3.73,1,5.32-4.77,1.6-5.79l-16.9-4.61c-3.73-1-5.32,4.77-1.6,5.79Z" transform="translate(0 0)" style="fill:#404040"/><path d="M408.32,234.22l42,11.44c3.73,1,5.32-4.77,1.6-5.79l-42-11.44c-3.73-1-5.32,4.77-1.6,5.79Z" transform="translate(0 0)" style="fill:#404040"/><path d="M422.38,270.43l20.5,19.06c2.83,2.63,7.08-1.61,4.24-4.24l-20.5-19.06c-2.83-2.63-7.08,1.61-4.24,4.24Z" transform="translate(0 0)" style="fill:#404040"/><path d="M399.55,250.44l16.83,15c2.88,2.56,7.13-1.67,4.24-4.24l-16.83-15c-2.88-2.56-7.13,1.67-4.24,4.24Z" transform="translate(0 0)" style="fill:#404040"/><path d="M196.44,248.83l-33,35.9c-2.61,2.84,1.62,7.09,4.24,4.24l33-35.9c2.61-2.84-1.62-7.09-4.24-4.24Z" transform="translate(0 0)" style="fill:#404040"/><path d="M132.25,268.63l.16.26a3,3,0,0,0,5.18-3l-.16-.26a3,3,0,1,0-5.18,3Z" transform="translate(0 0)" style="fill:#20578f"/><path d="M189.16,222.93l-54.85,40.7c-3.07,2.28-.08,7.49,3,5.18l54.85-40.7c3.07-2.28.08-7.49-3-5.18Z" transform="translate(0 0)" style="fill:#404040"/><path d="M123.46,209.81l-15.26,2.68c-3.8.67-2.19,6.45,1.6,5.79l15.26-2.68c3.8-.67,2.19-6.45-1.6-5.79Z" transform="translate(0 0)" style="fill:#404040"/><path d="M175.08,199.26l-40.88,8.22c-3.78.76-2.18,6.55,1.6,5.79L176.68,205c3.78-.76,2.18-6.55-1.6-5.79Z" transform="translate(0 0)" style="fill:#404040"/><path d="M212.21,120.23l-35.69-19.45c-3.39-1.85-6.42,3.33-3,5.18l35.69,19.45c3.39,1.85,6.42-3.33,3-5.18Z" transform="translate(0 0)" style="fill:#404040"/><path d="M235.54,106.82l-52.9-43.2c-3-2.42-7.24,1.8-4.24,4.24l52.9,43.2c3,2.42,7.24-1.8,4.24-4.24Z" transform="translate(0 0)" style="fill:#404040"/><path d="M252.36,89.68,237.27,63.54c-1.93-3.34-7.12-.33-5.18,3l15.09,26.14c1.93,3.34,7.12.33,5.18-3Z" transform="translate(0 0)" style="fill:#404040"/><path d="M423.94,14.87l7.68-10.54c2.28-3.13-2.93-6.12-5.18-3l-7.68,10.54c-2.28,3.13,2.93,6.12,5.18,3Z" transform="translate(0 0)" style="fill:#404040"/></g></svg>