<svg xmlns="http://www.w3.org/2000/svg" viewBox="0 0 418.98 343.17"><title>astronaut</title><g id="Layer_8" data-name="Layer 8"><rect x="17.43" y="232.8" width="338.55" height="46.64" rx="23.24" ry="23.24" style="fill:#f8f9fd;stroke:#f8f9fd;stroke-miterlimit:10;stroke-width:1.3287211721895984px"/><rect x="37.39" y="160.43" width="299.43" height="46.64" rx="21.85" ry="21.85" style="fill:#f8f9fd;stroke:#f8f9fd;stroke-miterlimit:10;stroke-width:1.2495871795113145px"/><rect x="0.66" y="86.44" width="338.55" height="46.64" rx="23.24" ry="23.24" style="fill:#f8f9fd;stroke:#f8f9fd;stroke-miterlimit:10;stroke-width:1.3287211721895984px"/><path d="M691.15,458.09h0c0-10.84,9.11-19.7,20.25-19.7H461.47c11.13,0,20.25,8.87,20.25,19.7h0c0,10.84-9.11,19.7-20.25,19.7H711.4C700.26,477.79,691.15,468.93,691.15,458.09Z" transform="translate(-395.34 -238.56)" style="fill:#f8f9fd;stroke:#f8f9fd;stroke-miterlimit:10;stroke-width:1.1419538840743881px"/><path d="M658.67,384.11h0c0-13.49,7.92-24.53,17.59-24.53H459.08c9.68,0,17.59,11,17.59,24.53h0c0,13.49-7.92,24.53-17.59,24.53H676.26C666.59,408.65,658.67,397.61,658.67,384.11Z" transform="translate(-395.34 -238.56)" style="fill:#f8f9fd;stroke:#f8f9fd;stroke-miterlimit:10;stroke-width:1.1879475794655243px"/><rect x="344.41" y="160.03" width="74.26" height="46.64" rx="23.24" ry="23.24" style="fill:#f8f9fd;stroke:#f8f9fd;stroke-miterlimit:10;stroke-width:0.6222893965291642px"/><ellipse cx="13.04" cy="193" rx="12.38" ry="12.46" style="fill:#f8f9fd;stroke:#f8f9fd;stroke-miterlimit:10;stroke-width:1.2495871795113145px"/><ellipse cx="288.91" cy="145.95" rx="7.59" ry="7.64" style="fill:#f8f9fd;stroke:#f8f9fd;stroke-miterlimit:10;stroke-width:0.7658760132488702px"/></g><g id="Arms"><path d="M655,349s-1-6-25-28l-.61-.39c.39-.61.77-1.22,1.13-1.83a49.61,49.61,0,0,0-.06-49.45c-3.63-6.13-8.84-12.31-7.85-19.36,1.24-8.9,12.59-13.46,21.08-10.53s14.19,10.9,18.1,19a90.56,90.56,0,0,1-5.63,89c-.35.54-.71,1.09-1.08,1.62Z" transform="translate(-395.34 -238.56)" style="fill:#ebf3fe"/><path d="M630,321c24,22,25,28,25,28l.08.06a90.61,90.61,0,0,1-11.91,14.17L640,362c-8.56-2.89-17.15-10.43-19-19.27-1.62-7.71,3.67-14.67,8-21.48.14-.21.27-.43.4-.64Z" transform="translate(-395.34 -238.56)" style="fill:#ebf3fe"/></g><g id="Legs"><path d="M583.73,546.9c3.91-6.13,11.58-9.21,16.26-14.81a50.37,50.37,0,0,0,10.42-21.71,52.09,52.09,0,0,0-1.1-25.15c-1.55-5.43-3.74-9-.71-14.2,4-6.83,11.69-12.73,17.9-17.5,2.67-2.05,10-9.15,13.73-8.54,4.82.78,9.16,11.36,10.94,14.79A87.1,87.1,0,0,1,659.3,483c6.29,31.6-5.88,63.47-29.93,84.43-9.07,7.91-22.23,17.07-35,13.49-14.37-4-18.14-22.29-10.66-34" transform="translate(-395.34 -238.56)" style="fill:#ebf3fe"/><path d="M707.4,509.77c-3.36-8.34-1.32-18.65-4-27.51A68.18,68.18,0,0,0,694.21,463a48.73,48.73,0,0,0-15.39-14.32c-6-3.44-16.14-4-20.34-9.79-3.45-4.75-2.31-12.32-2.29-17.73,0-6.08-2.83-15.11-1-20.83,4.22-12.94,33.7,3.24,41.25,7.3,26.81,14.43,47.53,38.26,53,68.72,2.22,12.27,3.61,28.32-3.61,39.35-10,15.24-32.05,10.16-38.51-5.89" transform="translate(-395.34 -238.56)" style="fill:#d6eafc"/><path d="M682.44,451c7.59-9.56,16.18-26.51,13.77-39.25-1.07-5.65-2.08-5.49-7.23-7.86q-5.44-2.5-11.09-4.51c-5.14-1.83-16.54-7.21-21.11-2.11-3.8,4.25-.67,12.75-.5,17.71.18,5.2-.6,10.45,0,15.64C657.9,445.17,672.27,443.73,682.44,451Z" transform="translate(-395.34 -238.56)" style="fill:#98bef6"/></g><g id="HEAD"><path d="M509,281" transform="translate(-395.34 -238.56)" style="fill:#4db5ec"/><path d="M511,280" transform="translate(-395.34 -238.56)" style="fill:#4db5ec"/><path d="M597.67,328.32q-9.23,10.95-18.46,21.89c-4.14,4.91-8.71,10.07-14.26,13h0l-53.83-83,1.68-.84c10.62-5.1,21.61-5.18,33.07-4.11a51.55,51.55,0,0,1,12.85,2.88A57.24,57.24,0,0,1,585,297.58a62.53,62.53,0,0,1,8,14.71c.37,1,2.63,10,3.43,14a5.94,5.94,0,0,1,.25,1.92Z" transform="translate(-395.34 -238.56)" style="fill:#98bef6"/><path d="M565,363.18h0a20.1,20.1,0,0,1-6.86,2.22c-6.47.83-12.81-1.89-18.77-4.54-4.67-2.08-9.44-4.21-13.21-7.67-4.51-4.14-7.24-9.82-9.86-15.36q-8-16.8-15.91-33.6c-1.45-3.05-2.93-6.3-2.62-9.67.42-4.43,3.83-8,7.4-10.61a46.73,46.73,0,0,1,5.89-3.72C511.23,283.23,514.59,314,565,363.18Z" transform="translate(-395.34 -238.56)" style="fill:#86a7d9"/><path d="M511.12,280.18l53.83,83C514.59,314,511.23,283.23,511,280.24h0Z" transform="translate(-395.34 -238.56)" style="fill:#98bef6"/><path d="M511.12,280.18l-.09.05h0c0-.16,0-.24,0-.24Z" transform="translate(-395.34 -238.56)" style="fill:#4db5ec"/><path d="M555,370l-28.86,25.25c-3.75,3.28-7.49,6.58-11.29,9.8-2.79-3.59-5.79-7-8.87-10.36-.12-.13-1-1.05-2.39-2.52L504,392s10-8,1-27-24-36-17-57a48.81,48.81,0,0,1,12.11-19.57C500.86,295.08,506.88,324.5,555,370Z" transform="translate(-395.34 -238.56)" style="fill:#dfecf9"/><path d="M505,365c9,19-1,27-1,27l-.41.17c-5.44-5.76-18.6-20-23.78-28.72-8.34-14-14.9-34.69-7.81-50.45,9-20,22-28,22-28a10.34,10.34,0,0,1,4-1c2,0,2,3,2,3a14,14,0,0,0,.11,1.43A48.81,48.81,0,0,0,488,308C481,329,496,346,505,365Z" transform="translate(-395.34 -238.56)" style="fill:#ebf3fe"/></g><g id="Torso"><path d="M595.5,325.5l-83.84,75.27c-12.41,11.14-18.87,31.86-18.92,48s10.33,32.44,21.86,43.43c4.9,4.68,9.33,6.53,15.71,4.28,9.88-3.49,18.87-14.16,13-24.44-2.19-3.81-6.16-6.32-8.3-10.24a45.12,45.12,0,0,1-4.83-20.29c0-9,10.88-28.11,22.51-23.88,5,1.8,11.9,13.3,15.31,17.11,12.11,13.53,24.37,26.94,36.31,40.62,2.5,2.87,3.79,5.28,7.18,6.25,7.16,2.06,18-5.42,23.06-9.14,8.4-6.17,16.36-13.42,22.17-22.12,21.38-32.07,13.33-75.3-10.36-103.47a129.84,129.84,0,0,0-26.74-24.37C611.39,317.08,603.81,320.31,595.5,325.5Z" transform="translate(-395.34 -238.56)" style="fill:#ebf3fe"/><path d="M591,330" transform="translate(-395.34 -238.56)" style="fill:none;stroke:#f0f;stroke-miterlimit:10"/><path d="M601,350.53c-6.12,5.53-19.54,12.67-13.93,21.75,3.57,5.78,16.19,22.15,23.89,19.53,3.91-1.33,8.23-7.13,11.2-9.81,4.79-4.32,9.64-9,6.34-16.1C624.64,357.6,610.18,342.25,601,350.53Z" transform="translate(-395.34 -238.56)" style="fill:#c4ddfe"/><path d="M634.67,379.77c-5,4.66-10.37,9.11-15.08,14.06-2.53,2.66-4.75,3.23-3.34,7.36,1.13,3.31,5,4.42,7.65,3.65,4.38-1.28,11.29-10.31,14.45-13.47,1.33-1.32,4.73-3.47,4.79-5.72C643.23,382.67,637.37,377.25,634.67,379.77Z" transform="translate(-395.34 -238.56)" style="fill:#c4ddfe"/><rect x="570.4" y="365.85" width="28" height="7.23" rx="3.32" ry="3.32" transform="translate(-494.8 232.71) rotate(-40.77)" style="fill:#c4ddfe"/><rect x="198.66" y="124.63" width="9.82" height="9.82" rx="4.91" ry="4.91" style="fill:#e37774"/><rect x="208.85" y="134.63" width="9.82" height="9.82" rx="4.91" ry="4.91" style="fill:#fce289"/></g><g id="Layer_2" data-name="Layer 2"><path d="M554.36,287q1.47.49,2.91,1.08a1.51,1.51,0,0,0,1.85-1,1.54,1.54,0,0,0-1-1.85q-1.44-.58-2.91-1.08a1.5,1.5,0,0,0-.8,2.89Z" transform="translate(-395.34 -238.56)" style="fill:#ebf3fe"/><path d="M525.94,284.63a50.16,50.16,0,0,1,22.5.46c1.87.46,2.67-2.43.8-2.89a53.81,53.81,0,0,0-24.09-.46c-1.89.39-1.09,3.28.8,2.89Z" transform="translate(-395.34 -238.56)" style="fill:#ebf3fe"/></g></svg>