<svg id="Layer_1" data-name="Layer 1" xmlns="http://www.w3.org/2000/svg" viewBox="0 0 1920.5 1080.5"><title>contact_bg</title><rect width="1920.5" height="1080.5" style="fill:#fafafa"/><circle cx="286.47" cy="427.31" r="28.81" style="fill:none;stroke:#ededed;stroke-linecap:round;stroke-linejoin:round;stroke-width:9.602499961853027px"/><polygon points="1272.33 126.43 1277.76 155.44 1255.36 174.64 1227.52 164.84 1222.09 135.84 1244.5 116.63 1272.33 126.43" style="fill:none;stroke:#ededed;stroke-linecap:round;stroke-linejoin:round;stroke-width:9.602499961853027px"/><polygon points="1523.6 456.69 1475.58 539.85 1571.61 539.85 1523.6 456.69" style="fill:none;stroke:#ededed;stroke-linecap:round;stroke-linejoin:round;stroke-width:9.602499961853027px"/><line x1="275.27" y1="240.06" x2="336.09" y2="169.64" style="fill:none;stroke:#ededed;stroke-linecap:round;stroke-linejoin:round;stroke-width:9.602499961853027px"/><line x1="832.22" y1="518.53" x2="899.43" y2="576.15" style="fill:none;stroke:#ededed;stroke-linecap:round;stroke-linejoin:round;stroke-width:9.602499961853027px"/><line x1="1571.61" y1="92.82" x2="1597.22" y2="108.83" style="fill:none;stroke:#ededed;stroke-linecap:round;stroke-linejoin:round;stroke-width:9.602499961853027px"/><rect x="546.84" y="50.71" width="25.61" height="25.61" transform="matrix(0.82, 0.57, -0.57, 0.82, 136.06, -306.64)" style="fill:#ededed;stroke:#ededed;stroke-linecap:round;stroke-linejoin:round;stroke-width:9.602499961853027px"/><rect x="1753.56" y="444.42" width="25.61" height="25.61" transform="translate(574.44 -923.3) rotate(34.68)" style="fill:#ededed;stroke:#ededed;stroke-linecap:round;stroke-linejoin:round;stroke-width:9.602499961853027px"/><rect x="82.72" y="562.85" width="25.61" height="25.61" transform="translate(345 48.41) rotate(34.68)" style="fill:#ededed;stroke:#ededed;stroke-linecap:round;stroke-linejoin:round;stroke-width:9.602499961853027px"/><circle cx="990.66" cy="449.72" r="28.81" style="fill:none;stroke:#ededed;stroke-linecap:round;stroke-linejoin:round;stroke-width:9.602499961853027px"/><circle cx="1776.46" cy="233.66" r="28.81" style="fill:none;stroke:#ededed;stroke-linecap:round;stroke-linejoin:round;stroke-width:9.602499961853027px"/><polygon points="680.18 296.08 685.61 325.08 663.2 344.29 635.37 334.49 629.94 305.48 652.34 286.28 680.18 296.08" style="fill:none;stroke:#ededed;stroke-linecap:round;stroke-linejoin:round;stroke-width:9.602499961853027px"/><circle cx="354.47" cy="849.31" r="28.81" style="fill:none;stroke:#ededed;stroke-linecap:round;stroke-linejoin:round;stroke-width:9.602499961853027px"/><polygon points="1422.57 927.95 1488.1 998.15 1516.12 906.3 1422.57 927.95" style="fill:none;stroke:#ededed;stroke-linecap:round;stroke-linejoin:round;stroke-width:9.602499961853027px"/><line x1="343.27" y1="662.06" x2="404.09" y2="591.64" style="fill:none;stroke:#ededed;stroke-linecap:round;stroke-linejoin:round;stroke-width:9.602499961853027px"/><line x1="900.22" y1="940.53" x2="967.43" y2="998.15" style="fill:none;stroke:#ededed;stroke-linecap:round;stroke-linejoin:round;stroke-width:9.602499961853027px"/><rect x="614.84" y="472.71" width="25.61" height="25.61" transform="matrix(0.82, 0.57, -0.57, 0.82, 388.25, -270.37)" style="fill:#ededed;stroke:#ededed;stroke-linecap:round;stroke-linejoin:round;stroke-width:9.602499961853027px"/><rect x="1821.56" y="866.42" width="25.61" height="25.61" transform="translate(826.63 -887.02) rotate(34.68)" style="fill:#ededed;stroke:#ededed;stroke-linecap:round;stroke-linejoin:round;stroke-width:9.602499961853027px"/><rect x="150.72" y="984.85" width="25.61" height="25.61" transform="translate(597.19 84.69) rotate(34.68)" style="fill:#ededed;stroke:#ededed;stroke-linecap:round;stroke-linejoin:round;stroke-width:9.602499961853027px"/><circle cx="1058.66" cy="871.72" r="28.81" style="fill:none;stroke:#ededed;stroke-linecap:round;stroke-linejoin:round;stroke-width:9.602499961853027px"/><polygon points="748.18 718.08 753.61 747.08 731.2 766.29 703.37 756.49 697.94 727.48 720.34 708.28 748.18 718.08" style="fill:none;stroke:#ededed;stroke-linecap:round;stroke-linejoin:round;stroke-width:9.602499961853027px"/></svg>