<svg xmlns="http://www.w3.org/2000/svg" viewBox="0 0 688 716"><title>cta-illustration-kids-3</title><g id="Layer_2" data-name="Layer 2"><rect width="688" height="716" style="fill:#3b6ecc"/><path d="M579,0H688a0,0,0,0,1,0,0V220a0,0,0,0,1,0,0h-5.51A103.49,103.49,0,0,1,579,116.51V0A0,0,0,0,1,579,0Z" style="fill:#e37774"/><path d="M0,567H142L59.17,453.15a31,31,0,0,0-26-14.15H0Z" style="fill:#fce289"/></g><g id="Layer_1" data-name="Layer 1"><polygon points="242.21 0 214 0 214 716 457 716 457 114.21 242.21 0" style="fill:#fff"/><polygon points="84.79 716 523.7 716 688 615.87 688 348.37 84.79 716" style="fill:#fff"/></g></svg>