<svg id="Layer_1" data-name="Layer 1" xmlns="http://www.w3.org/2000/svg" viewBox="0 0 381.51 258.51"><title>home-shapes</title><polygon points="5.96 252.01 214.01 37.01 214.01 252.01 5.96 252.01" style="fill:#e37774"/><path d="M478.19,514.24l70.18-72.52,112.23-116,25.65-26.5L676,295V510l6-6H474c-7.72,0-7.73,12,0,12H682a6.09,6.09,0,0,0,6-6V295c0-5.13-6.6-8-10.24-4.24l-70.18,72.52-112.23,116-25.65,26.5C464.34,511.31,472.81,519.8,478.19,514.24Z" transform="translate(-467.99 -257.99)" style="fill:#e37774"/><polygon points="374.01 201.09 215.01 36.01 215.01 252.01 374.01 252.01 374.01 201.09" style="fill:#e37774"/><path d="M846.24,454.83,792.66,399.2l-85.8-89.08-19.62-20.37C683.61,286,677,288.87,677,294V510a6.09,6.09,0,0,0,6,6H842a6.09,6.09,0,0,0,6-6V459.08c0-7.72-12-7.73-12,0V510l6-6H683l6,6V294l-10.24,4.24,53.58,55.63L818.14,443l19.62,20.37C843.12,468.89,851.6,460.4,846.24,454.83Z" transform="translate(-467.99 -257.99)" style="fill:#e37774"/><polygon points="380.51 2.36 380.51 257.51 117.66 257.51 380.51 2.36" style="fill:#fce289"/><polygon points="117.66 257.51 380.51 2.36 380.51 257.51 117.66 257.51" style="fill:none;stroke:#fce289;stroke-miterlimit:10;stroke-width:2px"/></svg>