<svg xmlns="http://www.w3.org/2000/svg" viewBox="0 0 234.55 142.83"><title>icon-world</title><g id="Layer_2" data-name="Layer 2"><g id="Layer_4" data-name="Layer 4"><rect x="10.09" y="105.9" width="195.94" height="27.07" rx="13.47" ry="13.47" style="fill:#f8f9fd;stroke:#f8f9fd;stroke-miterlimit:10;stroke-width:0.770033305552538px"/><rect x="21.64" y="63.9" width="173.29" height="27.07" rx="12.67" ry="12.67" style="fill:#f8f9fd;stroke:#f8f9fd;stroke-miterlimit:10;stroke-width:0.72417281108686px"/><rect x="0.39" y="20.97" width="195.94" height="27.07" rx="13.47" ry="13.47" style="fill:#f8f9fd;stroke:#f8f9fd;stroke-miterlimit:10;stroke-width:0.770033305552538px"/><path d="M171.2,98.2h0a11.61,11.61,0,0,1,11.72-11.43H38.28A11.61,11.61,0,0,1,50,98.2h0a11.61,11.61,0,0,1-11.72,11.43H182.92A11.61,11.61,0,0,1,171.2,98.2Z" style="fill:#f8f9fd;stroke:#f8f9fd;stroke-miterlimit:10;stroke-width:0.661796125889447px"/><path d="M161.2,62.33h0c0-7.83,4.58-14.24,10.18-14.24H45.69c5.6,0,10.18,6.41,10.18,14.24h0c0,7.83-4.58,14.24-10.18,14.24h125.7C165.78,76.57,161.2,70.16,161.2,62.33Z" style="fill:#f8f9fd;stroke:#f8f9fd;stroke-miterlimit:10;stroke-width:0.688450835724656px"/><rect x="197.57" y="63.67" width="36.82" height="27.07" rx="13.52" ry="13.52" style="fill:#f8f9fd;stroke:#f8f9fd;stroke-miterlimit:10;stroke-width:0.333800035388173px"/><ellipse cx="7.55" cy="82.8" rx="7.16" ry="7.23" style="fill:#f8f9fd;stroke:#f8f9fd;stroke-miterlimit:10;stroke-width:0.72417281108686px"/><ellipse cx="187.02" cy="57.15" rx="4.99" ry="5.03" style="fill:#f8f9fd;stroke:#f8f9fd;stroke-miterlimit:10;stroke-width:0.503865793384808px"/><path d="M29.31,113.66" style="fill:none;stroke:#404040;stroke-miterlimit:10;stroke-width:2px"/><path d="M29.4,120.89" style="fill:none;stroke:#404040;stroke-miterlimit:10;stroke-width:2px"/><path d="M33.49,117.86" style="fill:none;stroke:#404040;stroke-miterlimit:10;stroke-width:2px"/><path d="M31.49,117.88" style="fill:none;stroke:#404040;stroke-miterlimit:10;stroke-width:2px"/><path d="M25.62,118" style="fill:none;stroke:#404040;stroke-miterlimit:10;stroke-width:2px"/></g><g id="extra_background_lines" data-name="extra background lines"><path d="M129.89,12.42h36c2.51,0,2.51-3.9,0-3.9h-36c-2.51,0-2.51,3.9,0,3.9Z" style="fill:#6b7191"/><path d="M173.89,12.42h6c2.51,0,2.51-3.9,0-3.9h-6c-2.51,0-2.51,3.9,0,3.9Z" style="fill:#6b7191"/><path d="M81.89,125.52h-36c-2.51,0-2.51,3.9,0,3.9h36c2.51,0,2.51-3.9,0-3.9Z" style="fill:#6b7191"/><path d="M37.89,125.52h-6c-2.51,0-2.51,3.9,0,3.9h6c2.51,0,2.51-3.9,0-3.9Z" style="fill:#6b7191"/><path d="M90.89,137.52h-45c-2.51,0-2.51,3.9,0,3.9h45c2.51,0,2.51-3.9,0-3.9Z" style="fill:#6b7191"/></g><g id="Layer_12" data-name="Layer 12"><path d="M43.7,74a67,67,0,1,1,67,67A67,67,0,0,1,43.7,74Z" style="fill:#fff"/><path d="M156.46,25.4c8.56,6.18,13.67,17,17.41,26.69,1.75,4.57,2.54,6.38,3.1,14.93.47,7.17-10.43,6.48-16.37,8.26a14.47,14.47,0,0,0-4.89,2.33c-6.77,5.31-7.24,17.48-8.35,25.24-.67,4.62-3.13,21.34-11.16,17.77-2.82-1.25-3.59-4.67-4.79-7.21-3.12-6.62-9.62-12.53-9.81-20.22-.16-6.4,4.43-12.43,10.92-13.26,6-.77,11.89,2.44,17.37-1.41,2.86-2,4.59-5.1,6.83-7.7,2.08-2.4,6.34-3.65,7.8-6.27a5.25,5.25,0,0,0-.63-6.17,9,9,0,0,0-4.3-2.35c-1.79-.49-4-.55-5.14,1a7.88,7.88,0,0,1-1.07,1.61c-1.21,1-3-.18-4-1.33a96.32,96.32,0,0,1-10-12.78c-4.91-7.52,1.59-9.89,7.31-13.06C147.42,31,156.12,25.15,156.46,25.4Z" style="fill:#dbe7ff"/><path d="M134.39,25.2a1.2,1.2,0,0,0-.16-.75,5.78,5.78,0,0,0-.89-.82c-.3-.27-.61-.54-.93-.79a12.28,12.28,0,0,0-4.13-2.34c-5.78-1.75-8.75,3.78-10.47,8.28-.48,1.26-.86,2.9.18,3.76a2.74,2.74,0,0,0,1.9.46,18,18,0,0,0,7.85-2.57,46.09,46.09,0,0,0,4.25-2.8l1-.74c.27-.2.55-.32.82-.5A1.6,1.6,0,0,0,134.39,25.2Z" style="fill:#dbe7ff"/><path d="M103.6,41.4a1.31,1.31,0,0,0-.45-.31c-.9-.37-3.3,1.28-4.16,1.72a25.54,25.54,0,0,0-4.34,2.72c-2.13,1.71-3.87,4.33-1.06,6.36,2.47,1.78,5,.77,6.84-1.36,1.54-1.79,4.18-5.8,3.61-8.3A1.79,1.79,0,0,0,103.6,41.4Z" style="fill:#dbe7ff"/><path d="M95.47,9C60.79,15.87,42.09,49.34,43.7,83.11c8.65-1.84,33-7.1,33.34-18.54.16-4.81-20.74-25.88-10-29.93,8.23-3.11,6,8.1,7.78,11.51,3.36,6.63,14,3,17.21-2.95,2.45-4.58,1.23-9.21,5-13.76,1.44-1.74,3.59-2.81,5-4.44C107.23,19,104.37,9.53,95.47,9Z" style="fill:#dbe7ff"/><path d="M80.24,133.83s-24.36-12.18-30.45-33.5c8.39,3.23,18.54-4.15,23.35,5.2,2.08,4.06,2.53,10.17,5.3,16.15C80.07,125.2,84,130,80.24,133.83Z" style="fill:#dbe7ff"/></g><g id="world"><path d="M45.65,74c.27-26.16,16-50.28,40.41-60.23a65.74,65.74,0,0,1,77.16,21.83A65.06,65.06,0,0,1,94.92,137.09c-28.86-7.19-49-33.6-49.27-63.12,0-2.51-3.93-2.51-3.9,0,.28,27.47,16.63,52.7,42,63.49a69,69,0,0,0,88.26-94.95c-14.34-28-46.94-42.9-77.52-35.58C63.7,14.31,42.07,42.5,41.75,74,41.72,76.48,45.62,76.48,45.65,74Z" style="fill:#6b7191"/><path d="M88.12,23c0-12.15-9.54-22-21.31-22S45.49,10.82,45.49,23a21.51,21.51,0,0,0,1.09,6.59c.68,1.86,1.21,3.39,1.19,3.39s.93,1.3,2.11,2.89L64.57,55.58a2.56,2.56,0,0,0,4.32,0l15-19.84c1.19-1.58,2.12-2.88,2.07-2.88a33.19,33.19,0,0,1,1.12-3.39A21.42,21.42,0,0,0,88.12,23Z" style="fill:#fff0db"/><path d="M89.09,23C88.69,9.66,77.66-1.66,63.87.2S41.54,16.56,45.56,29.58c1.18,3.81,3.33,6.55,5.66,9.69l9.87,13.26c1.38,1.86,3.15,5.41,5.9,5.19s5.09-4.73,6.54-6.66C80,42.44,88.58,34.28,89.09,23c.06-1.25-1.89-1.25-1.95,0-.38,8.35-5.09,13.58-9.85,19.89l-7.12,9.44c-1.64,2.18-2.9,4.14-5.49,1.81s-4.35-5.85-6.32-8.49l-6.61-8.88C45.13,27.82,44.43,16,52.88,7.66,66.13-5.35,86.63,5.73,87.15,23,87.18,24.22,89.13,24.22,89.09,23Z" style="fill:#ffbe64"/><ellipse cx="66.8" cy="20.25" rx="9.98" ry="9.7" style="fill:#f7c384"/></g></g></svg>