<svg xmlns="http://www.w3.org/2000/svg" viewBox="0 0 234.55 134.33"><title>icon-laptop</title><g id="Layer_2" data-name="Layer 2"><g id="Layer_4" data-name="Layer 4"><rect x="10.09" y="104.56" width="195.94" height="27.07" rx="13.47" ry="13.47" style="fill:#f8f9fd;stroke:#f8f9fd;stroke-miterlimit:10;stroke-width:0.770033305552538px"/><rect x="21.64" y="62.56" width="173.29" height="27.07" rx="12.67" ry="12.67" style="fill:#f8f9fd;stroke:#f8f9fd;stroke-miterlimit:10;stroke-width:0.72417281108686px"/><rect x="0.39" y="19.63" width="195.94" height="27.07" rx="13.47" ry="13.47" style="fill:#f8f9fd;stroke:#f8f9fd;stroke-miterlimit:10;stroke-width:0.770033305552538px"/><path d="M171.2,96.86h0a11.61,11.61,0,0,1,11.72-11.43H38.28A11.61,11.61,0,0,1,50,96.86h0a11.61,11.61,0,0,1-11.72,11.43H182.92A11.61,11.61,0,0,1,171.2,96.86Z" style="fill:#f8f9fd;stroke:#f8f9fd;stroke-miterlimit:10;stroke-width:0.661796125889447px"/><path d="M161.2,61h0c0-7.83,4.58-14.24,10.18-14.24H45.69c5.6,0,10.18,6.41,10.18,14.24h0c0,7.83-4.58,14.24-10.18,14.24h125.7C165.78,75.22,161.2,68.82,161.2,61Z" style="fill:#f8f9fd;stroke:#f8f9fd;stroke-miterlimit:10;stroke-width:0.688450835724656px"/><rect x="197.57" y="62.33" width="36.82" height="27.07" rx="13.52" ry="13.52" style="fill:#f8f9fd;stroke:#f8f9fd;stroke-miterlimit:10;stroke-width:0.333800035388173px"/><ellipse cx="7.55" cy="81.46" rx="7.16" ry="7.23" style="fill:#f8f9fd;stroke:#f8f9fd;stroke-miterlimit:10;stroke-width:0.72417281108686px"/><ellipse cx="187.02" cy="55.8" rx="4.99" ry="5.03" style="fill:#f8f9fd;stroke:#f8f9fd;stroke-miterlimit:10;stroke-width:0.503865793384808px"/><path d="M29.31,112.31" style="fill:none;stroke:#404040;stroke-miterlimit:10;stroke-width:2px"/><path d="M29.4,119.55" style="fill:none;stroke:#404040;stroke-miterlimit:10;stroke-width:2px"/><path d="M33.49,116.51" style="fill:none;stroke:#404040;stroke-miterlimit:10;stroke-width:2px"/><path d="M31.49,116.54" style="fill:none;stroke:#404040;stroke-miterlimit:10;stroke-width:2px"/><path d="M25.62,116.61" style="fill:none;stroke:#404040;stroke-miterlimit:10;stroke-width:2px"/></g><g id="extra_background" data-name="extra background"><line x1="214.29" y1="43.45" x2="216.89" y2="40.75" style="fill:none;stroke:#6b7191;stroke-linecap:round;stroke-linejoin:round;stroke-width:1.48462831856838px"/><path d="M214.29,43.45" style="fill:none;stroke:#404040;stroke-miterlimit:10;stroke-width:2px"/><path d="M209.26,48.65" style="fill:none;stroke:#404040;stroke-miterlimit:10;stroke-width:2px"/><path d="M214.3,49.37" style="fill:none;stroke:#404040;stroke-miterlimit:10;stroke-width:2px"/><path d="M212.86,48" style="fill:none;stroke:#404040;stroke-miterlimit:10;stroke-width:2px"/><path d="M208.64,43.9" style="fill:none;stroke:#404040;stroke-miterlimit:10;stroke-width:2px"/><line x1="205.58" y1="40.94" x2="208.64" y2="43.9" style="fill:none;stroke:#6b7191;stroke-linecap:round;stroke-linejoin:round;stroke-width:1.48462831856838px"/><line x1="214.21" y1="49.28" x2="217.26" y2="52.24" style="fill:none;stroke:#6b7191;stroke-linecap:round;stroke-linejoin:round;stroke-width:1.48462831856838px"/><line x1="205.95" y1="52.08" x2="208.55" y2="49.38" style="fill:none;stroke:#6b7191;stroke-linecap:round;stroke-linejoin:round;stroke-width:1.48462831856838px"/><line x1="17.39" y1="126.65" x2="21.63" y2="126.6" style="fill:none;stroke:#6b7191;stroke-linecap:round;stroke-linejoin:round;stroke-width:1.4172751819473466px"/><line x1="29.37" y1="126.51" x2="33.61" y2="126.46" style="fill:none;stroke:#6b7191;stroke-linecap:round;stroke-linejoin:round;stroke-width:1.4172751819473466px"/><line x1="25.47" y1="133.63" x2="25.43" y2="130.2" style="fill:none;stroke:#6b7191;stroke-linecap:round;stroke-linejoin:round;stroke-width:1.4172751819473466px"/><circle cx="31.39" cy="11.63" r="3.5" style="fill:none;stroke:#6b7191;stroke-linecap:round;stroke-linejoin:round;stroke-width:1.48462831856838px"/><line x1="25.31" y1="122.31" x2="25.27" y2="118.56" style="fill:none;stroke:#6b7191;stroke-linecap:round;stroke-linejoin:round;stroke-width:1.48462831856838px"/></g><g id="PC"><path d="M45.37,30V19.43a6.85,6.85,0,0,1,6.85-6.8H186.43a6.85,6.85,0,0,1,6.85,6.8V92.57a6.85,6.85,0,0,1-6.85,6.8H52.22a6.85,6.85,0,0,1-6.85-6.8V43" style="fill:#fff"/><path d="M47.32,30c0-3.37-.5-7.12,0-10.44.63-4.12,3.17-4.71,6.27-5,4.47-.37,9.14,0,13.63,0H172.4c4.28,0,8.7-.33,13,0,6.2.48,6,5.19,6,9.82V76.77c0,4.91.91,10.8,0,15.64-1.12,6-6.15,5-10.56,5H59c-4.38,0-10.75,1.2-11.69-4.87-.86-5.53,0-11.86,0-17.44V43c0-2.51-3.9-2.51-3.9,0V89.93c0,6.16,2.52,11.15,9.42,11.4,4.35.16,8.74,0,13.09,0H176.85c3.16,0,6.42.23,9.57,0,8.16-.59,8.81-7.33,8.81-13.72V31.23c0-4.51,1.14-11.13-.81-15.43-2.43-5.37-7.76-5.13-12.62-5.13H55.23c-5.84,0-11.31,1.82-11.81,8.75-.25,3.48,0,7.06,0,10.56,0,2.51,3.9,2.51,3.9,0Z" style="fill:#6b7191"/><path d="M178.19,98.81H59.89c-4.84,0-8.81-3.94-7.51-8.75V27c-1.3-4.81,2.66-8.75,7.51-8.1h118.3a7.14,7.14,0,0,1,8.16,8.1v63C187,94.88,183,98.81,178.19,98.81Z" style="fill:#fff"/><path d="M178.19,96.86H98c-12.14,0-24.32.26-36.46,0-1.75,0-3.16,0-4.81-.94-3-1.8-2.42-5-2.42-8v-20c0-13.58.1-27.17,0-40.76,0-4.14,1.25-6,5.56-6.23h.53c1.33-.05,2.68,0,4,0h110c4.91,0,9.67-.13,10,6.41.23,5.14,0,10.35,0,15.5,0,15.23-.11,30.46,0,45.68,0,4.23-1.12,8-6.21,8.39-2.49.18-2.51,4.08,0,3.9,4.81-.35,9.2-3.11,10-8.18a37.46,37.46,0,0,0,.08-5.74V35.62c0-4.74,1.15-11.84-2.19-15.62s-8.09-3-12.47-3H97.55Q79,17,60.5,17c-7.15,0-10.35,3.73-10.07,10.66.26,6.38,0,12.83,0,19.21,0,14.72.33,29.54-.19,44.23-.47,13,19.27,9.67,27.39,9.67H178.19C180.7,100.76,180.7,96.86,178.19,96.86Z" style="fill:#6b7191"/><path d="M57,103.57h152.9c3,0,5.53-3.29,5.53-7.32V94.54h-197v1.72c0,4,2.49,7.32,5.53,7.32H45.37" style="fill:#fff"/><path d="M57,105.52h142.3c3.24,0,6.51.13,9.76,0,6.21-.25,8.32-5.35,8.32-11a2,2,0,0,0-1.95-1.95h-172c-8.19,0-16.85-.84-25,0a2,2,0,0,0-1.95,1.95c0,3.69.58,7.58,3.88,9.81,2.08,1.4,4.4,1.18,6.77,1.18H45.37c2.51,0,2.51-3.9,0-3.9H32.22a57.76,57.76,0,0,1-7,0c-3.71-.47-4.9-3.46-4.9-7.09l-1.95,1.95c10-1,20.59,0,30.7,0h166.3l-1.95-1.95c0,5.17-2,7.09-6.24,7.09H57c-2.51,0-2.51,3.9,0,3.9Z" style="fill:#6b7191"/><path d="M102.66,95h-5.6v.52c0,1.22.49,2.22,1.09,2.22H135c.6,0,1.09-1,1.09-2.22V95Z" style="fill:#fff"/><path d="M102.66,94.25a38.32,38.32,0,0,0-5.8,0,.75.75,0,0,0-.55.72c0,3.29,1.47,3.49,4.14,3.49h32c2.74,0,4.39,0,4.39-3.49a.76.76,0,0,0-.75-.75H102.66a.75.75,0,0,0,0,1.5h31.2c.45,0,1.77-.25,2.17,0-1.63-1-.3.51-1.36,1.24-.23.15-.8-.07-1.07,0-2.92.78-7.27,0-10.27,0H109.8c-3.19,0-6.93.56-10.07,0-1.26-.23-2.14.38-1.93-1.73q-1.11.68,0,.49h4.81A.75.75,0,0,0,102.66,94.25Z" style="fill:#6b7191"/><path d="M67.89,34.25h48a1.13,1.13,0,0,0,0-2.25h-48a1.13,1.13,0,0,0,0,2.25Z" style="fill:#6b7191"/><path d="M123.89,34.25h9a1.13,1.13,0,0,0,0-2.25h-9a1.13,1.13,0,0,0,0,2.25Z" style="fill:#6b7191"/><path d="M67.89,43.25h65a1.13,1.13,0,0,0,0-2.25h-65a1.13,1.13,0,0,0,0,2.25Z" style="fill:#6b7191"/><path d="M67.89,52.25h65a1.13,1.13,0,0,0,0-2.25h-65a1.13,1.13,0,0,0,0,2.25Z" style="fill:#6b7191"/><circle cx="186.89" cy="18.13" r="16.5" style="fill:#eef6e1"/><path d="M191.12,33.36a10.34,10.34,0,0,1-6.21,1.35,19.58,19.58,0,0,1-4.69-.62,13.66,13.66,0,0,1-9.6-9.78,11.08,11.08,0,0,1-.38-4.68c.66.17,1.2,1.3,1.64,1.82a40.27,40.27,0,0,0,7.41,6.93,26.74,26.74,0,0,0,11.93,5" style="fill:#d9ecbc"/><path d="M205,18.13C204.61,8.25,197,0,186.89,0a18.3,18.3,0,0,0-18.12,18.12,18.33,18.33,0,0,0,18.13,18.13C197,36.25,204.61,28,205,18.13c.06-1.45-2.19-1.45-2.25,0-.35,8.64-7,15.88-15.87,15.88A16,16,0,0,1,171,18.13,16,16,0,0,1,186.89,2.25c8.92.09,15.52,7.15,15.88,15.87C202.82,19.57,205.07,19.58,205,18.13Z" style="fill:#6b7191"/><path d="M195.34,18.85a14.36,14.36,0,0,0-14.95-7.5c-1,.14-.55,1.59.4,1.45A12.85,12.85,0,0,1,194,19.61c.45.86,1.74.1,1.3-.76Z" style="fill:#6b7191"/><path d="M191.34,19.85a10.2,10.2,0,0,0-10.63-5.31c-1,.14-.55,1.59.4,1.45A8.69,8.69,0,0,1,190,20.61c.45.86,1.74.1,1.3-.76Z" style="fill:#6b7191"/><path d="M187.34,20.85a4.42,4.42,0,0,0-4.63-2.27c-1,.14-.55,1.59.4,1.45A2.9,2.9,0,0,1,186,21.61c.45.86,1.74.1,1.3-.76Z" style="fill:#6b7191"/><polygon points="79.32 64.11 89.16 81.16 69.47 81.16 79.32 64.11" style="fill:#dbe7ff"/><path d="M78.8,64.41l9.84,17,.52-.9H69.47l.52.9,9.84-17a.6.6,0,0,0-1-.61L69,80.86a.61.61,0,0,0,.52.9H89.16a.61.61,0,0,0,.52-.9l-9.84-17A.6.6,0,0,0,78.8,64.41Z" style="fill:#6b7191"/><circle cx="116.89" cy="73.13" r="9.5" style="fill:#dbe7ff"/><path d="M127,73.13c-.3-5.48-4.38-10.1-10.1-10.1a10.09,10.09,0,0,0-.52,20.17c5.92.3,10.31-4.38,10.62-10.07,0-.77-1.16-.77-1.2,0-.61,11.39-17.8,11.5-17.8,0s17.19-11.4,17.8,0C125.83,73.89,127,73.9,127,73.13Z" style="fill:#6b7191"/></g></g></svg>