<svg xmlns="http://www.w3.org/2000/svg" viewBox="0 0 234.55 166.71"><title>icon-achievement</title><g id="Layer_2" data-name="Layer 2"><g id="Layer_4" data-name="Layer 4"><rect x="10.09" y="129.8" width="195.94" height="27.07" rx="13.47" ry="13.47" style="fill:#f8f9fd;stroke:#f8f9fd;stroke-miterlimit:10;stroke-width:0.7700333055525377px"/><rect x="21.64" y="87.8" width="173.29" height="27.07" rx="12.67" ry="12.67" style="fill:#f8f9fd;stroke:#f8f9fd;stroke-miterlimit:10;stroke-width:0.7241728110868604px"/><rect x="0.39" y="44.87" width="195.94" height="27.07" rx="13.47" ry="13.47" style="fill:#f8f9fd;stroke:#f8f9fd;stroke-miterlimit:10;stroke-width:0.7700333055525377px"/><path d="M171.2,122.1h0a11.61,11.61,0,0,1,11.72-11.43H38.28A11.61,11.61,0,0,1,50,122.1h0a11.61,11.61,0,0,1-11.72,11.43H182.92A11.61,11.61,0,0,1,171.2,122.1Z" style="fill:#f8f9fd;stroke:#f8f9fd;stroke-miterlimit:10;stroke-width:0.6617961258894465px"/><path d="M161.2,86.23h0c0-7.83,4.58-14.24,10.18-14.24H45.69c5.6,0,10.18,6.41,10.18,14.24h0c0,7.83-4.58,14.24-10.18,14.24h125.7C165.78,100.46,161.2,94.06,161.2,86.23Z" style="fill:#f8f9fd;stroke:#f8f9fd;stroke-miterlimit:10;stroke-width:0.6884508357246559px"/><rect x="197.57" y="87.57" width="36.82" height="27.07" rx="13.52" ry="13.52" style="fill:#f8f9fd;stroke:#f8f9fd;stroke-miterlimit:10;stroke-width:0.3338000353881725px"/><ellipse cx="7.55" cy="106.7" rx="7.16" ry="7.23" style="fill:#f8f9fd;stroke:#f8f9fd;stroke-miterlimit:10;stroke-width:0.7241728110868604px"/><ellipse cx="187.02" cy="81.04" rx="4.99" ry="5.03" style="fill:#f8f9fd;stroke:#f8f9fd;stroke-miterlimit:10;stroke-width:0.5038657933848075px"/><line x1="190.29" y1="13.69" x2="192.89" y2="10.99" style="fill:none;stroke:#6b7191;stroke-linecap:round;stroke-linejoin:round;stroke-width:1.4846283185683757px"/><path d="M190.29,13.69" style="fill:none;stroke:#404040;stroke-miterlimit:10;stroke-width:2px"/><path d="M185.26,18.89" style="fill:none;stroke:#404040;stroke-miterlimit:10;stroke-width:2px"/><path d="M190.3,19.61" style="fill:none;stroke:#404040;stroke-miterlimit:10;stroke-width:2px"/><path d="M188.86,18.22" style="fill:none;stroke:#404040;stroke-miterlimit:10;stroke-width:2px"/><path d="M184.64,14.14" style="fill:none;stroke:#404040;stroke-miterlimit:10;stroke-width:2px"/><line x1="181.58" y1="11.18" x2="184.64" y2="14.14" style="fill:none;stroke:#6b7191;stroke-linecap:round;stroke-linejoin:round;stroke-width:1.4846283185683757px"/><line x1="190.21" y1="19.52" x2="193.26" y2="22.48" style="fill:none;stroke:#6b7191;stroke-linecap:round;stroke-linejoin:round;stroke-width:1.4846283185683757px"/><line x1="181.95" y1="22.32" x2="184.55" y2="19.62" style="fill:none;stroke:#6b7191;stroke-linecap:round;stroke-linejoin:round;stroke-width:1.4846283185683757px"/><line x1="29.31" y1="137.55" x2="29.27" y2="133.8" style="fill:none;stroke:#6b7191;stroke-linecap:round;stroke-linejoin:round;stroke-width:1.4846283185683757px"/><path d="M29.31,137.55" style="fill:none;stroke:#404040;stroke-miterlimit:10;stroke-width:2px"/><path d="M29.4,144.79" style="fill:none;stroke:#404040;stroke-miterlimit:10;stroke-width:2px"/><path d="M33.49,141.75" style="fill:none;stroke:#404040;stroke-miterlimit:10;stroke-width:2px"/><path d="M31.49,141.78" style="fill:none;stroke:#404040;stroke-miterlimit:10;stroke-width:2px"/><path d="M25.62,141.85" style="fill:none;stroke:#404040;stroke-miterlimit:10;stroke-width:2px"/><line x1="21.37" y1="141.9" x2="25.62" y2="141.85" style="fill:none;stroke:#6b7191;stroke-linecap:round;stroke-linejoin:round;stroke-width:1.4846283185683757px"/><line x1="33.37" y1="141.75" x2="37.61" y2="141.7" style="fill:none;stroke:#6b7191;stroke-linecap:round;stroke-linejoin:round;stroke-width:1.4846283185683757px"/><line x1="29.46" y1="149.55" x2="29.42" y2="145.8" style="fill:none;stroke:#6b7191;stroke-linecap:round;stroke-linejoin:round;stroke-width:1.4846283185683757px"/><circle cx="195.39" cy="121.87" r="3.5" style="fill:none;stroke:#6b7191;stroke-linecap:round;stroke-linejoin:round;stroke-width:1.4846283185683757px"/></g><g id="star"><path d="M173.18,113.19l2.41-.31a1.74,1.74,0,0,0,1.7-1.7c0-.82-.75-1.82-1.7-1.7l-2.41.31a1.74,1.74,0,0,0-1.7,1.7c0,.82.75,1.82,1.7,1.7Z" style="fill:#fff"/><path d="M133.24,12.51l20.12,40.77a8.22,8.22,0,0,0,6.19,4.5l43.68,6.54a8.22,8.22,0,0,1,4.56,14,289.72,289.72,0,0,0-20.43,22.2c-5.36,6.44-13.79,13.76-12,23,2.15,10.89,4.59,21.77,6.46,32.72a8.22,8.22,0,0,1-11.93,8.67l-40.24-21.81a8.22,8.22,0,0,0-7.65,0L80.48,164.93a8.22,8.22,0,0,1-11.93-8.67l7.69-38.9a8.22,8.22,0,0,0-2.36-7.28L41.32,78.34a8.22,8.22,0,0,1,4.56-14l45-6.54a8.22,8.22,0,0,0,6.19-4.5l21.43-40.77A8.22,8.22,0,0,1,133.24,12.51Z" style="fill:#fff0db"/><path d="M175.68,162.09a71.31,71.31,0,0,1-10.92-.18c1.07.15,3.36-5.85,3.61-6.78,1.57-6,0-12.15-.83-18.08l-3-20.95c-.53-3.74-1.06-7.59-.09-11.24,1.33-5,5.27-8.91,9.42-12C185.62,84,195.82,73.73,207,64.28c0,0-1.07.16-1.74,9.62C198.3,80.5,191,87,184,93.61c-3.21,3-6.46,6.1-8.79,9.85a32.32,32.32,0,0,0-4.41,17.2,66.29,66.29,0,0,0,2.95,17.7c2.21,7.78,5.1,16.12,2.36,23.73" style="fill:#ffe5c2"/><path d="M137.78,145.06c-4.55-2.47-9.85-6.67-15.09-7.37-4.37-.58-8.39,2.26-12.09,4.2L76.44,159.83c-.85.45-1.72,1-2.61,1.37-5.54,2.24-9.85-2-9.19-7.58s2.14-10.83,3.19-16.17l3.86-19.51c.93-4.69,1.24-8.81-2.29-12.7-7.64-8.43-16.46-16-24.61-24-2.86-2.79-6.17-5.46-8.74-8.52-3.72-4.42-1.65-9.9,3.82-11.15,1.35-.31,2.79-.4,4.16-.6L82.38,55.4c4.75-.69,8.45-1.62,11.17-6.13,2.13-3.53,3.87-7.36,5.79-11l11.32-21.53c2.1-4,4.88-12.47,10.18-12.9,6.54-.53,9.51,10,11.78,14.6l8,16.14c1.11,2.25,4.48.28,3.37-2l-7.1-14.39c-2.25-4.57-4.11-9.94-7.14-14.07-4.71-6.42-13.8-5-17.59,1.46-2.27,3.84-4.17,7.93-6.24,11.88L95.15,37.84c-2,3.74-4.46,11.37-8.87,13-4,1.43-8.88,1.4-13,2l-22.8,3.31c-4.18.61-8.77.75-12.85,1.95-7.81,2.29-9.52,11.73-4.36,17.39,8,8.75,17.09,16.66,25.57,24.92,3,3,9.75,7.58,9.8,12.34,0,4.56-1.8,9.72-2.68,14.16l-4.23,21.41c-1,4.92-2.36,9.91,1.49,14.12,4.89,5.34,10.84,3.07,16.16.28l20.79-10.91c5.8-3,11.55-6.27,17.44-9.15s13,3,18.21,5.81c2.21,1.2,4.18-2.17,2-3.37Z" style="fill:#6b7191"/><path d="M149.63,151l-5.18-2.81c-2.21-1.2-4.18,2.17-2,3.37l5.18,2.81c2.21,1.2,4.18-2.17,2-3.37Z" style="fill:#6b7191"/><path d="M147.87,50.36c3.15,5.26,8,5.59,13.44,6.4L183.17,60c5.49.82,11.14,1.32,16.57,2.48,3.9.83,7.18,3.74,6,8.15-.55,2.16-2.46,3.72-4,5.26l-28,28.48c-3.32,3.37-5.46,6.65-4.66,11.69.88,5.55,2.19,11.07,3.28,16.59,1.41,7.13,3,14.26,4.23,21.43,1,5.57-3.11,10.48-9.09,8.1-2.74-1.09-5.35-2.9-8-4.31-2.21-1.2-4.18,2.17-2,3.37,5.9,3.2,12.82,8.43,19.27,3.3,5.16-4.1,3.84-9.75,2.75-15.26l-4.59-23.21c-1-5.21-4.08-12.58-.27-17.15,3.45-4.14,7.69-7.81,11.47-11.65l16.61-16.87c3.61-3.67,7.76-7.17,6.87-12.94-1-6.6-6.57-8.36-12.21-9.21l-26-3.89c-5.6-.84-17-.46-20.29-6-1.29-2.15-4.66-.19-3.37,2Z" style="fill:#6b7191"/><path d="M142.26,35.54c2.51,0,2.51-3.9,0-3.9s-2.51,3.9,0,3.9Z" style="fill:#6b7191"/></g></g></svg>