<svg xmlns="http://www.w3.org/2000/svg" viewBox="0 0 234.55 126.95"><title>icon-progress</title><g id="Layer_2" data-name="Layer 2"><g id="extra_background" data-name="extra background"><rect x="10.09" y="97.18" width="195.94" height="27.07" rx="13.47" ry="13.47" style="fill:#f8f9fd;stroke:#f8f9fd;stroke-miterlimit:10;stroke-width:0.770033305552538px"/><rect x="21.64" y="55.18" width="173.29" height="27.07" rx="12.67" ry="12.67" style="fill:#f8f9fd;stroke:#f8f9fd;stroke-miterlimit:10;stroke-width:0.72417281108686px"/><rect x="0.39" y="12.24" width="195.94" height="27.07" rx="13.47" ry="13.47" style="fill:#f8f9fd;stroke:#f8f9fd;stroke-miterlimit:10;stroke-width:0.770033305552538px"/><path d="M175.59,89.48h0A11.61,11.61,0,0,1,187.3,78H42.66A11.61,11.61,0,0,1,54.38,89.48h0a11.61,11.61,0,0,1-11.72,11.43H187.3A11.61,11.61,0,0,1,175.59,89.48Z" transform="translate(-4.38)" style="fill:#f8f9fd;stroke:#f8f9fd;stroke-miterlimit:10;stroke-width:0.661796125889447px"/><path d="M165.59,53.6h0c0-7.83,4.58-14.24,10.18-14.24H50.07c5.6,0,10.18,6.41,10.18,14.24h0c0,7.83-4.58,14.24-10.18,14.24h125.7C170.17,67.84,165.59,61.43,165.59,53.6Z" transform="translate(-4.38)" style="fill:#f8f9fd;stroke:#f8f9fd;stroke-miterlimit:10;stroke-width:0.688450835724656px"/><rect x="197.57" y="54.94" width="36.82" height="27.07" rx="13.52" ry="13.52" style="fill:#f8f9fd;stroke:#f8f9fd;stroke-miterlimit:10;stroke-width:0.333800035388173px"/><ellipse cx="7.55" cy="74.08" rx="7.16" ry="7.23" style="fill:#f8f9fd;stroke:#f8f9fd;stroke-miterlimit:10;stroke-width:0.72417281108686px"/><ellipse cx="187.02" cy="48.42" rx="4.99" ry="5.03" style="fill:#f8f9fd;stroke:#f8f9fd;stroke-miterlimit:10;stroke-width:0.503865793384808px"/><path d="M33.7,104.93" transform="translate(-4.38)" style="fill:none;stroke:#404040;stroke-miterlimit:10;stroke-width:2px"/><path d="M33.79,112.16" transform="translate(-4.38)" style="fill:none;stroke:#404040;stroke-miterlimit:10;stroke-width:2px"/><path d="M37.87,109.13" transform="translate(-4.38)" style="fill:none;stroke:#404040;stroke-miterlimit:10;stroke-width:2px"/><path d="M35.87,109.15" transform="translate(-4.38)" style="fill:none;stroke:#404040;stroke-miterlimit:10;stroke-width:2px"/><path d="M30,109.23" transform="translate(-4.38)" style="fill:none;stroke:#404040;stroke-miterlimit:10;stroke-width:2px"/><path d="M3.7,16.93" transform="translate(-4.38)" style="fill:none;stroke:#404040;stroke-miterlimit:10;stroke-width:2px"/><path d="M3.79,24.16" transform="translate(-4.38)" style="fill:none;stroke:#404040;stroke-miterlimit:10;stroke-width:2px"/><path d="M0,21.23" transform="translate(-4.38)" style="fill:none;stroke:#404040;stroke-miterlimit:10;stroke-width:2px"/><line x1="214.29" y1="36.06" x2="216.89" y2="33.37" style="fill:none;stroke:#6b7191;stroke-linecap:round;stroke-linejoin:round;stroke-width:1.48462831856838px"/><path d="M218.67,36.06" transform="translate(-4.38)" style="fill:none;stroke:#404040;stroke-miterlimit:10;stroke-width:2px"/><path d="M213.64,41.27" transform="translate(-4.38)" style="fill:none;stroke:#404040;stroke-miterlimit:10;stroke-width:2px"/><path d="M218.68,42" transform="translate(-4.38)" style="fill:none;stroke:#404040;stroke-miterlimit:10;stroke-width:2px"/><path d="M217.25,40.6" transform="translate(-4.38)" style="fill:none;stroke:#404040;stroke-miterlimit:10;stroke-width:2px"/><path d="M213,36.51" transform="translate(-4.38)" style="fill:none;stroke:#404040;stroke-miterlimit:10;stroke-width:2px"/><line x1="205.58" y1="33.56" x2="208.64" y2="36.51" style="fill:none;stroke:#6b7191;stroke-linecap:round;stroke-linejoin:round;stroke-width:1.48462831856838px"/><line x1="214.21" y1="41.9" x2="217.26" y2="44.85" style="fill:none;stroke:#6b7191;stroke-linecap:round;stroke-linejoin:round;stroke-width:1.48462831856838px"/><line x1="205.95" y1="44.69" x2="208.55" y2="42" style="fill:none;stroke:#6b7191;stroke-linecap:round;stroke-linejoin:round;stroke-width:1.48462831856838px"/><line x1="17.39" y1="119.26" x2="21.63" y2="119.21" style="fill:none;stroke:#6b7191;stroke-linecap:round;stroke-linejoin:round;stroke-width:1.41727518194735px"/><line x1="29.37" y1="119.13" x2="33.61" y2="119.08" style="fill:none;stroke:#6b7191;stroke-linecap:round;stroke-linejoin:round;stroke-width:1.41727518194735px"/><line x1="25.47" y1="126.24" x2="25.43" y2="122.82" style="fill:none;stroke:#6b7191;stroke-linecap:round;stroke-linejoin:round;stroke-width:1.41727518194735px"/><circle cx="31.39" cy="4.24" r="3.5" style="fill:none;stroke:#6b7191;stroke-linecap:round;stroke-linejoin:round;stroke-width:1.48462831856838px"/><line x1="25.31" y1="114.93" x2="25.27" y2="111.18" style="fill:none;stroke:#6b7191;stroke-linecap:round;stroke-linejoin:round;stroke-width:1.48462831856838px"/></g><g id="kid"><line x1="137.33" y1="57.49" x2="149.39" y2="42.24" style="fill:none;stroke:gray;stroke-linecap:round;stroke-linejoin:round;stroke-width:3px"/><path d="M142.71,63.49" transform="translate(-4.38)" style="fill:none;stroke:gray;stroke-linecap:round;stroke-linejoin:round;stroke-width:3px"/><path d="M138.82,68.48" transform="translate(-4.38)" style="fill:none;stroke:gray;stroke-linecap:round;stroke-linejoin:round;stroke-width:3px"/><line x1="128.75" y1="68.3" x2="133.18" y2="62.7" style="fill:none;stroke:gray;stroke-linecap:round;stroke-linejoin:round;stroke-width:3px"/><polyline points="52.38 99.24 85.39 63.24 115.39 85.24 125 73.08" style="fill:none;stroke:gray;stroke-linecap:round;stroke-linejoin:round;stroke-width:3px"/><path d="M62.48,102.16c.43-5.06-2.33-9.51-7.39-9.93s-10.51,3.33-10.93,8.39a9.19,9.19,0,0,0,18.32,1.54Z" transform="translate(-4.38)" style="fill:#dbe7fe;stroke:#6b7191;stroke-linecap:round;stroke-linejoin:round;stroke-width:2.506930693758545px"/><circle cx="85.39" cy="63.24" r="10.5" style="fill:#dbe7fe;stroke:#6b7191;stroke-linecap:round;stroke-linejoin:round;stroke-width:2.8636363636363638px"/><path d="M172,22.91l-1.92,22.8a4.09,4.09,0,0,1-6.42,3L144.88,35.67a4.09,4.09,0,0,1,.6-7.07l20.71-9.74A4.09,4.09,0,0,1,172,22.91Z" transform="translate(-4.38)" style="fill:#dbe7fe;stroke:#6b7191;stroke-linecap:round;stroke-linejoin:round;stroke-width:2.537306426871897px"/></g></g></svg>