<svg xmlns="http://www.w3.org/2000/svg" viewBox="0 0 1920.6 1080"><title>l-background</title><g id="Layer_1" data-name="Layer 1"><rect x="0.6" width="1920" height="1080" style="fill:#fca592"/></g><g id="Layer_2" data-name="Layer 2"><path d="M0,0V309.07c0,82,1.74,164.28-.6,246.28C67.34,496,131.47,431.24,208.14,383.72c111.06-68.83,250.06-85.58,363.8-11.27,53.42,34.9,96.52,86.32,155.61,110.43,69.79,28.48,135.66,7.35,199.64-24.37A4114.49,4114.49,0,0,0,1287.4,256.78c88.4-55.51,176.75-120,274.79-157.47,95.38-36.42,198.07-47.69,298.88-58.44,19.59-2.09,39.22-4.18,58.92-4.22V0H0Z" transform="translate(0.6 0)" style="fill:#fcaa95"/></g><g id="Layer_3" data-name="Layer 3"><path d="M614,1080c63.83-56.09,150.77-87.45,223.68-132.16a2089.88,2089.88,0,0,0,227.4-161.24c109.59-89.28,210.94-190.28,332.73-262C1536,443.14,1696.27,402.75,1856.54,396c8.47-.36,63.46,0,63.46,0v684" transform="translate(0.6 0)" style="fill:#fc9f8b"/></g></svg>