<svg xmlns="http://www.w3.org/2000/svg" viewBox="0 0 1920.6 1080"><title>l-background-4</title><g id="Layer_1" data-name="Layer 1"><rect x="0.6" width="1920" height="1080" style="fill:#e87e70"/><path d="M342,714" transform="translate(0.6 0)" style="fill:none"/></g><g id="Layer_2" data-name="Layer 2"><path d="M0,0V309.07c0,82,1.74,164.28-.6,246.28C67.34,496,131.47,431.24,208.14,383.72c111.06-68.83,250.06-85.58,363.8-11.27,53.42,34.9,96.52,86.32,155.61,110.43,69.79,28.48,135.66,7.35,199.64-24.37A4114.49,4114.49,0,0,0,1287.4,256.78c88.4-55.51,176.75-120,274.79-157.47,95.38-36.42,198.07-47.69,298.88-58.44,19.59-2.09,39.22-4.18,58.92-4.22V0H0Z" transform="translate(0.6 0)" style="fill:#e87e70"/></g><g id="Layer_3" data-name="Layer 3"><path d="M614,1080c63.83-56.09,150.77-87.45,223.68-132.16a2089.88,2089.88,0,0,0,227.4-161.24c109.59-89.28,210.94-190.28,332.73-262C1536,443.14,1696.27,402.75,1856.54,396c8.47-.36,63.46,0,63.46,0v684" transform="translate(0.6 0)" style="fill:#ec735e"/></g><g id="Layer_4" data-name="Layer 4"><path d="M1619.54,419.46l46.33-18.12-6.7-3.81L1670,446c.8,3.6,5,4.8,8,3.26l44.08-22.89-8-3.26,11.91,49c1.66,6.81,12.17,3.93,10.51-2.9l-11.91-49c-.87-3.57-5-4.82-8-3.26l-44.08,22.89,8,3.26-10.81-48.47c-.59-2.66-4.05-4.84-6.7-3.81L1616.64,409c-6.46,2.53-3.65,13.07,2.9,10.51Z" transform="translate(0.6 0)" style="fill:#fff"/><path d="M232.09,216.19l14.83-47.48-8,3.26,44.59,21.87c2.92,1.43,7.27.43,8-3.26l9.71-48.7-8,3.26,45.67,21.34c6.32,3,11.86-6.44,5.5-9.41l-45.67-21.34c-2.94-1.37-7.26-.48-8,3.26L281,187.68l8-3.26-44.59-21.87a5.54,5.54,0,0,0-8,3.26l-14.83,47.48c-2.1,6.71,8.42,9.58,10.51,2.9Z" transform="translate(0.6 0)" style="fill:#fff"/><path d="M172.07,249.61l13-50.31-8,3.26,45.67,21.34c3.24,1.51,6.89.33,8-3.26l1.39-4.44c2.1-6.71-8.42-9.58-10.51-2.9l-1.39,4.44,8-3.26-45.67-21.34c-3.09-1.45-7.06-.4-8,3.26l-13,50.31c-1.75,6.8,8.76,9.7,10.51,2.9Z" transform="translate(0.6 0)" style="fill:#fff"/></g></svg>