<svg xmlns="http://www.w3.org/2000/svg" viewBox="0 0 1955 1120"><title>l-background-10</title><g id="Layer_1" data-name="Layer 1"><path d="M342,714" transform="translate(18 20)" style="fill:none"/><rect width="1955" height="1120" style="fill:#3b6ecc"/><polygon points="1938 20 978 560 18 20 1938 20" style="fill:#3b6ecc"/><polygon points="1938 1100 18 1100 978 560 1938 1100" style="fill:#3b6ecc"/></g><g id="Layer_4" data-name="Layer 4"><path d="M1619.54,419.46l46.33-18.12-6.7-3.81L1670,446c.8,3.6,5,4.8,8,3.26l44.08-22.89-8-3.26,11.91,49c1.66,6.81,12.17,3.93,10.51-2.9l-11.91-49c-.87-3.57-5-4.82-8-3.26l-44.08,22.89,8,3.26-10.81-48.47c-.59-2.66-4.05-4.84-6.7-3.81L1616.64,409c-6.46,2.53-3.65,13.07,2.9,10.51Z" transform="translate(18 20)" style="fill:#fff"/><path d="M232.09,216.19l14.83-47.48-8,3.26,44.59,21.87c2.92,1.43,7.27.43,8-3.26l9.71-48.7-8,3.26,45.67,21.34c6.32,3,11.86-6.44,5.5-9.41l-45.67-21.34c-2.94-1.37-7.26-.48-8,3.26L281,187.68l8-3.26-44.59-21.87a5.54,5.54,0,0,0-8,3.26l-14.83,47.48c-2.1,6.71,8.42,9.58,10.51,2.9Z" transform="translate(18 20)" style="fill:#fff"/><path d="M172.07,249.61l13-50.31-8,3.26,45.67,21.34c3.24,1.51,6.89.33,8-3.26l1.39-4.44c2.1-6.71-8.42-9.58-10.51-2.9l-1.39,4.44,8-3.26-45.67-21.34c-3.09-1.45-7.06-.4-8,3.26l-13,50.31c-1.75,6.8,8.76,9.7,10.51,2.9Z" transform="translate(18 20)" style="fill:#fff"/></g></svg>