<svg id="Layer_1" data-name="Layer 1" xmlns="http://www.w3.org/2000/svg" viewBox="0 0 216.5 133.82"><title>mixed-jumbo-shape-alt</title><rect y="26.28" width="216.5" height="96.68" rx="0.83" ry="0.83" style="fill:#fc8e76"/><path d="M25,88.47a55.64,55.64,0,0,0,9.41,25.46c10.9,15.54,28.35,19.27,46.35,16.26,9.16-1.53,18.2-5.32,24.9-11.88C113.23,110.9,115,101.72,118,92c2.51-8.05,6.35-16.63,13.52-21.58,7.56-5.22,18.14-5.55,26.7-2.85a18.42,18.42,0,0,1,12.23,12.1,18.32,18.32,0,0,1,1,8.79c-.73,7.68,11.28,7.63,12,0a32.51,32.51,0,0,0-8.33-24.13c-12.11-13.1-36.62-13.62-50.63-3.59-7.63,5.46-12.48,13.4-15.92,22-3.5,8.74-3.9,19.15-10.63,26.26-10.89,11.49-35,14.77-47.76,4.66-5.06-4-8.61-9.9-10.76-15.9a56.33,56.33,0,0,1-2.12-7.51c-.22-1-.64-4.36-.36-1.77-.84-7.59-12.85-7.68-12,0Z" transform="translate(0 2.67)"/><path d="M25,39.72a55.39,55.39,0,0,0,9.13,25A40.66,40.66,0,0,0,78.66,80.85c9.14-2.53,16.53-8.56,21.82-16.3,5.57-8.13,7.68-17.41,10.3-26.72,2.34-8.29,5.77-17.09,12.58-22.74,7.31-6.07,17.77-6.54,26.71-4.65,7.09,1.5,13.8,5,17.61,11.17a16.55,16.55,0,0,1,3,7.78c.44,3.24,4.55,4.94,7.38,4.19,3.47-.92,4.62-4.18,4.19-7.38-1.17-8.62-7.63-16.65-14.6-21.37-14.95-10.13-38.33-10.3-52.35,1.4-6.87,5.73-11.15,13.94-14.15,22.23-3.24,8.95-4.32,18.5-9.09,26.87C87.69,63,80.85,68.81,71.84,70.06c-7.76,1.07-16.11-.73-22.19-5.78-4.89-4.07-8.27-9.83-10.34-15.78a56,56,0,0,1-1.93-6.94c-.22-1.07-.65-4.38-.37-1.84-.84-7.59-12.85-7.68-12,0Z" transform="translate(0 2.67)"/></svg>