<svg xmlns="http://www.w3.org/2000/svg" viewBox="0 0 600 202"><title>modal-bg</title><g id="Layer_2" data-name="Layer 2"><rect width="600" height="202" style="fill:#fafafa"/></g><g id="Layer_1" data-name="Layer 1"><circle cx="89.5" cy="133.5" r="9" style="fill:none;stroke:#ededed;stroke-linecap:round;stroke-linejoin:round;stroke-width:3px"/><polygon points="397.5 39.5 399.2 48.56 392.2 54.56 383.5 51.5 381.8 42.44 388.8 36.44 397.5 39.5" style="fill:none;stroke:#ededed;stroke-linecap:round;stroke-linejoin:round;stroke-width:3px"/><polygon points="476 142.68 461 168.66 491 168.66 476 142.68" style="fill:none;stroke:#ededed;stroke-linecap:round;stroke-linejoin:round;stroke-width:3px"/><line x1="86" y1="75" x2="105" y2="53" style="fill:none;stroke:#ededed;stroke-linecap:round;stroke-linejoin:round;stroke-width:3px"/><line x1="260" y1="162" x2="281" y2="180" style="fill:none;stroke:#ededed;stroke-linecap:round;stroke-linejoin:round;stroke-width:3px"/><line x1="491" y1="29" x2="499" y2="34" style="fill:none;stroke:#ededed;stroke-linecap:round;stroke-linejoin:round;stroke-width:3px"/><rect x="170.5" y="15.5" width="8" height="8" transform="translate(42.59 -95.32) rotate(34.68)" style="fill:#ededed;stroke:#ededed;stroke-linecap:round;stroke-linejoin:round;stroke-width:3px"/><rect x="547.5" y="138.5" width="8" height="8" transform="translate(179.55 -287.98) rotate(34.68)" style="fill:#ededed;stroke:#ededed;stroke-linecap:round;stroke-linejoin:round;stroke-width:3px"/><rect x="25.5" y="175.5" width="8" height="8" transform="translate(107.87 15.6) rotate(34.68)" style="fill:#ededed;stroke:#ededed;stroke-linecap:round;stroke-linejoin:round;stroke-width:3px"/><circle cx="309.5" cy="140.5" r="9" style="fill:none;stroke:#ededed;stroke-linecap:round;stroke-linejoin:round;stroke-width:3px"/><circle cx="555" cy="73" r="9" style="fill:none;stroke:#ededed;stroke-linecap:round;stroke-linejoin:round;stroke-width:3px"/><polygon points="212.5 92.5 214.2 101.56 207.2 107.56 198.5 104.5 196.8 95.44 203.8 89.44 212.5 92.5" style="fill:none;stroke:#ededed;stroke-linecap:round;stroke-linejoin:round;stroke-width:3px"/></g></svg>