<svg id="Layer_1" data-name="Layer 1" xmlns="http://www.w3.org/2000/svg" viewBox="0 0 260.02 41.94"><title>sidemenu-auth-bg</title><path d="M262.28,11.06a2,2,0,0,1,.81.17l10.52,4.66a2,2,0,0,1,1.17,1.61L276,29a2,2,0,0,1-.81,1.82l-9.3,6.78a2,2,0,0,1-2,.21L253.39,33.1a2,2,0,0,1-1.17-1.61L251,20a2,2,0,0,1,.81-1.82l9.3-6.78a2,2,0,0,1,1.17-.38m0-3a5,5,0,0,0-2.94,1L250,15.8a5,5,0,0,0-2,4.56l1.22,11.45a5,5,0,0,0,2.94,4l10.52,4.66a5,5,0,0,0,5-.53L277,33.2a5,5,0,0,0,2-4.56l-1.22-11.45a5,5,0,0,0-2.94-4L264.3,8.49a5,5,0,0,0-2-.43Z" transform="translate(-19 -8.06)" style="fill:#fff0db"/><path d="M26,39a4,4,0,1,1-4,4,4,4,0,0,1,4-4m0-3a7,7,0,1,0,7,7,7,7,0,0,0-7-7Z" transform="translate(-19 -8.06)" style="fill:#dbe7fe"/></svg>