<svg xmlns="http://www.w3.org/2000/svg" viewBox="0 0 1920 1080"><title>user-signup-bg</title><g id="Layer_1" data-name="Layer 1"><rect width="1920" height="827" style="fill:#fce289"/><rect y="827" width="1920" height="253" style="fill:#3b6ecc"/><circle cx="167" cy="827" r="76" style="fill:#e37774"/></g><g id="Pencil"><polygon points="1814.81 463.6 1766.98 462.98 1765.73 462.56 1585.6 372.29 1765.73 282.46 1766.36 282.22 1814.81 281.6 1814.81 463.6" style="fill:#f4f4f2"/><path d="M1795.45,463.92c-1.59-5.56,2.11-11.19,6.09-15.35s8.71-8.24,9.87-13.9c1.38-6.74-2.74-13.27-6.73-18.86s-8.24-12-7.13-18.77c.93-5.68,5.36-10,9.23-14.24s7.57-9.62,6.55-15.28c-1.68-9.24-14.52-12.77-16.72-21.89-1.63-6.78,3.34-13.2,8-18.35s9.72-11.47,8.27-18.28c-1.06-5-5.28-8.49-8.87-12.06s-10.2-10-9.24-14.91H1920V464H1795.42Z" style="fill:#e37774"/><polygon points="1684.98 421.98 1585.6 372.29 1684.98 322.59 1684.98 421.98" style="fill:#3b6ecc"/><circle cx="167" cy="826" r="44" style="fill:#f4f4f2"/></g></svg>